<svg xmlns="http://www.w3.org/2000/svg" width="48" height="48"><circle fill="#212121" cx="24.057" cy="24.056" r="22.014"/><path fill="#FFF" d="M24.057 1.112c-12.672 0-22.944 10.272-22.944 22.944C1.112 36.729 11.385 47 24.057 47 36.729 47 47 36.729 47 24.057S36.729 1.112 24.057 1.112zm13.566 20.605l-6.197 6.04 1.465 8.529a.815.815 0 01-.322.792.815.815 0 01-.854.063l-7.659-4.027-7.66 4.027a.798.798 0 01-.376.092.849.849 0 01-.476-.15.81.81 0 01-.322-.792l1.462-8.528-6.196-6.041a.81.81 0 01.448-1.381l8.563-1.244 3.83-7.76a.81.81 0 011.452 0l3.83 7.76 8.563 1.244a.8.8 0 01.652.551.796.796 0 01-.203.825z"/><path fill="none" stroke="#212121" stroke-miterlimit="10" d="M24.057 1.112c-12.672 0-22.944 10.272-22.944 22.944C1.112 36.729 11.385 47 24.057 47 36.729 47 47 36.729 47 24.057S36.729 1.112 24.057 1.112z"/></svg>