<svg xmlns="http://www.w3.org/2000/svg" width="48" height="48"><circle fill="#212121" cx="24.057" cy="24.056" r="22.014"/><g fill="#FFF"><path d="M28.102 19.175a.675.675 0 00-.949.091l-7.247 8.728a.673.673 0 001.038.859l7.248-8.729a.677.677 0 00-.09-.949zM23.172 21.73a2.76 2.76 0 00-2.761-2.762 2.76 2.76 0 00-2.763 2.762 2.764 2.764 0 002.763 2.762 2.76 2.76 0 002.761-2.762zm-3.901 0a1.146 1.146 0 111.146 1.145 1.146 1.146 0 01-1.146-1.145z"/><path d="M24.057 1.112c-12.672 0-22.944 10.272-22.944 22.944C1.112 36.729 11.385 47 24.057 47 36.729 47 47 36.729 47 24.057S36.729 1.112 24.057 1.112zM36.563 28.18l-.609.342a1.788 1.788 0 00-.891 1.881l.127.691a1.78 1.78 0 01-1.646 2.105l-.7.037a1.764 1.764 0 00-1.612 1.309l-.188.682a1.786 1.786 0 01-2.399 1.178l-.651-.271a1.783 1.783 0 00-2.024.479l-.47.526a1.78 1.78 0 01-2.672.021l-.465-.521a1.776 1.776 0 00-2.033-.449l-.646.274a1.78 1.78 0 01-2.419-1.142l-.196-.672a1.792 1.792 0 00-1.639-1.287l-.702-.027a1.782 1.782 0 01-1.684-2.076l.118-.691a1.77 1.77 0 00-.915-1.865l-.618-.331a1.787 1.787 0 01-.618-2.604l.405-.574a1.787 1.787 0 00-.018-2.083l-.415-.566a1.783 1.783 0 01.573-2.611l.612-.343a1.78 1.78 0 00.887-1.88l-.129-.691a1.78 1.78 0 011.65-2.104l.702-.039a1.774 1.774 0 001.617-1.309l.185-.679a1.788 1.788 0 012.403-1.179l.651.269a1.783 1.783 0 002.026-.477l.461-.528a1.78 1.78 0 012.672-.022l.466.522c.511.571 1.33.751 2.031.449l.646-.275a1.779 1.779 0 012.42 1.138l.195.675a1.794 1.794 0 001.641 1.285l.699.028a1.789 1.789 0 011.688 2.078l-.117.689a1.778 1.778 0 00.914 1.869l.616.332a1.787 1.787 0 01.615 2.605l-.399.573a1.773 1.773 0 00.013 2.08l.413.566a1.784 1.784 0 01-.571 2.613z"/><path d="M27.691 23.615a2.764 2.764 0 00-2.764 2.762 2.763 2.763 0 102.764-2.762zm0 3.906c-.633 0-1.146-.517-1.146-1.146s.514-1.146 1.146-1.146c.631 0 1.146.517 1.146 1.146s-.515 1.146-1.146 1.146z"/></g><path fill="none" stroke="#212121" stroke-miterlimit="10" d="M24.057 1.112c-12.672 0-22.944 10.272-22.944 22.944C1.112 36.729 11.385 47 24.057 47 36.729 47 47 36.729 47 24.057S36.729 1.112 24.057 1.112z"/></svg>