<svg xmlns="http://www.w3.org/2000/svg" width="48" height="48"><circle fill="#212121" cx="24.057" cy="24.056" r="22.014"/><g fill="#FFF"><path d="M19.433 24.525h2.992V22.47H18.72zM18.167 20.879h4.258v-1.79h-4.879zM20.583 27.84h1.842v-1.723h-2.44zM24.017 26.117h3.668v1.723h-3.668z"/><circle cx="20.415" cy="34.338" r="1.061"/><circle cx="29.166" cy="34.338" r="1.061"/><path d="M24.057 1.112c-12.672 0-22.944 10.272-22.944 22.944C1.112 36.729 11.385 47 24.057 47 36.729 47 47 36.729 47 24.057S36.729 1.112 24.057 1.112zm11.701 17.425l-3.314 10.342a.79.79 0 01-.758.553H20.017a.76.76 0 01-.307-.063l-.739 2.055h12.714c.362 0 .662.299.662.662 0 .367-.3.662-.662.662h-.746c.379.424.613.979.613 1.592a2.393 2.393 0 01-2.391 2.389 2.394 2.394 0 01-2.391-2.389c0-.609.232-1.168.613-1.592h-5.204c.38.424.613.979.613 1.592a2.393 2.393 0 01-2.387 2.389 2.388 2.388 0 01-2.387-2.389c0-.609.233-1.168.613-1.592h-.611a.66.66 0 01-.624-.885l1.193-3.314a.655.655 0 01.407-.398l-4.127-11.896-3.372-1.324a.797.797 0 01.582-1.482l3.713 1.459c.216.085.384.26.46.479l.737 2.124a.864.864 0 01.103-.006H35c.255 0 .493.122.645.327a.781.781 0 01.113.705z"/><path d="M29.275 24.525h2.893l.658-2.055h-3.551zM29.275 20.879h4.062l.573-1.79h-4.635zM24.017 22.47h3.668v2.055h-3.668zM24.017 19.089h3.668v1.79h-3.668zM29.275 27.84h1.83l.553-1.723h-2.383z"/></g><path fill="none" stroke="#212121" stroke-miterlimit="10" d="M24.057 1.112c-12.672 0-22.944 10.272-22.944 22.944C1.112 36.729 11.385 47 24.057 47 36.729 47 47 36.729 47 24.057S36.729 1.112 24.057 1.112z"/></svg>