<svg xmlns="http://www.w3.org/2000/svg" width="48" height="48"><circle fill="#212121" cx="24.057" cy="24.056" r="22.014"/><path fill="#FFF" d="M24.057 1.112c-12.672 0-22.944 10.272-22.944 22.944C1.112 36.729 11.385 47 24.057 47 36.729 47 47 36.729 47 24.057S36.729 1.112 24.057 1.112zm.931 22.944v10.633h-2.657l-6.989-6.799h-4.067V20.221h4.067l6.989-6.799h2.657v10.634zm10.002 5.399l-2.348-3.582-2.396 3.582h-3.105l3.865-5.496-3.785-5.414h3.245l2.271 3.396 2.334-3.396h3.117l-3.81 5.299 3.866 5.61-3.254.001z"/><path fill="none" stroke="#212121" stroke-miterlimit="10" d="M24.057 1.112c-12.672 0-22.944 10.272-22.944 22.944C1.112 36.729 11.385 47 24.057 47 36.729 47 47 36.729 47 24.057S36.729 1.112 24.057 1.112z"/></svg>