<svg xmlns="http://www.w3.org/2000/svg" width="48" height="48"><circle fill="#212121" cx="24.057" cy="24.056" r="22.014"/><path fill="#FFF" d="M24.057 1.112c-12.672 0-22.944 10.272-22.944 22.944C1.112 36.729 11.385 47 24.057 47 36.729 47 47 36.729 47 24.057S36.729 1.112 24.057 1.112zm9.17 23.368v10.895h-6.809v-8.171H20.97v8.171h-6.809V24.48h-4.085l13.619-12.257L37.313 24.48h-4.086z"/><path fill="none" stroke="#212121" stroke-miterlimit="10" d="M24.057 1.112c-12.672 0-22.944 10.272-22.944 22.944C1.112 36.729 11.385 47 24.057 47 36.729 47 47 36.729 47 24.057S36.729 1.112 24.057 1.112z"/></svg>