<svg xmlns="http://www.w3.org/2000/svg" width="48" height="48"><circle fill="#212121" cx="24.057" cy="24.056" r="22.014"/><path fill="#FFF" d="M24.057 1.112c-12.672 0-22.944 10.272-22.944 22.944C1.112 36.729 11.385 47 24.057 47 36.729 47 47 36.729 47 24.057S36.729 1.112 24.057 1.112zm.931 22.944v10.633h-2.657l-6.989-6.799h-4.067V20.221h4.067l6.989-6.799h2.657v10.634zm3.233 3.842c3.334-3.774.139-7.528 0-7.688l1.355-1.192c1.54 1.741 3.517 6.087-.002 10.072l-1.353-1.192zm3.668 5.12l-1.303-1.252c7.305-7.597.303-15.104 0-15.417l1.303-1.25c.086.086 8.515 9.06 0 17.919z"/><path fill="none" stroke="#212121" stroke-miterlimit="10" d="M24.057 1.112c-12.672 0-22.944 10.272-22.944 22.944C1.112 36.729 11.385 47 24.057 47 36.729 47 47 36.729 47 24.057S36.729 1.112 24.057 1.112z"/></svg>