<svg xmlns="http://www.w3.org/2000/svg" width="48" height="48"><circle fill="#212121" cx="24.057" cy="24.056" r="22.014"/><path fill="#FFF" d="M24.057 1.112c-12.672 0-22.944 10.272-22.944 22.944C1.112 36.729 11.385 47 24.057 47 36.729 47 47 36.729 47 24.057S36.729 1.112 24.057 1.112zm2.659 37.693h-5.264V33.54h5.264v5.265zm6.154-16.563c-.654 1.037-2.058 2.447-4.205 4.232-1.112.926-1.804 1.668-2.071 2.229-.267.563-.39 1.564-.365 3.02h-4.773a96.348 96.348 0 01-.019-1.258c0-1.55.255-2.822.768-3.82.512-1 1.536-2.123 3.069-3.375 1.535-1.248 2.453-2.067 2.754-2.455a3.254 3.254 0 00.693-2.023c0-1.024-.41-1.902-1.228-2.633-.818-.73-1.921-1.096-3.308-1.096-1.336 0-2.454.381-3.353 1.143-.9.762-1.519 1.923-1.855 3.485l-4.834-.6c.138-2.236 1.09-4.134 2.857-5.696s4.087-2.342 6.961-2.342c3.021 0 5.426.791 7.212 2.37 1.786 1.58 2.681 3.419 2.681 5.518.001 1.165-.329 2.265-.984 3.301z"/><path fill="none" stroke="#212121" stroke-miterlimit="10" d="M24.057 1.112c-12.672 0-22.944 10.272-22.944 22.944C1.112 36.729 11.385 47 24.057 47 36.729 47 47 36.729 47 24.057S36.729 1.112 24.057 1.112z"/></svg>