<svg xmlns="http://www.w3.org/2000/svg" width="48" height="48"><circle fill="#212121" cx="24.057" cy="24.056" r="22.014"/><g fill="#FFF"><path d="M22.263 17.542c.243 0 .314-.056.314-.056.396-.409-.742-3.35-1.886-4.5a1.8 1.8 0 00-1.285-.537c-.485 0-.942.19-1.287.537a1.852 1.852 0 000 2.601c.732.736 2.971 1.955 4.144 1.955zM14.189 24.333h9.337V34.52h-9.337zM26.486 17.542c1.174 0 3.412-1.219 4.145-1.955a1.852 1.852 0 000-2.601c-.688-.689-1.883-.691-2.572 0-1.145 1.15-2.281 4.091-1.888 4.5.001.002.073.056.315.056zM12.492 19.24v3.395h11.034V19.24h-1.263z"/><path d="M24.057 1.112c-12.672 0-22.944 10.272-22.944 22.944C1.112 36.729 11.385 47 24.057 47 36.729 47 47 36.729 47 24.057S36.729 1.112 24.057 1.112zm13.898 22.371a.85.85 0 01-.848.85h-.854V34.52c0 .938-.762 1.696-1.693 1.696H14.189a1.7 1.7 0 01-1.697-1.696V24.333h-.849a.85.85 0 01-.849-.85V19.24a1.7 1.7 0 011.698-1.698h5.371a6.703 6.703 0 01-.949-.759 3.552 3.552 0 01.001-4.994c1.329-1.338 3.648-1.34 4.979 0 .735.738 2.688 3.745 2.419 5.753h.123c-.27-2.008 1.684-5.015 2.419-5.753 1.33-1.34 3.646-1.338 4.979 0a3.552 3.552 0 010 4.994c-.23.234-.563.496-.947.759h5.371a1.7 1.7 0 011.697 1.698v4.243z"/><path d="M25.225 24.333h9.336V34.52h-9.336zM25.225 19.24v3.395h11.033V19.24h-9.772z"/></g><path fill="none" stroke="#212121" stroke-miterlimit="10" d="M24.057 1.112c-12.672 0-22.944 10.272-22.944 22.944C1.112 36.729 11.385 47 24.057 47 36.729 47 47 36.729 47 24.057S36.729 1.112 24.057 1.112z"/></svg>