<svg xmlns="http://www.w3.org/2000/svg" width="48" height="48"><circle fill="#212121" cx="24.057" cy="24.056" r="22.014"/><g fill="#FFF"><path d="M33.816 19.912H20.192c-.752 0-1.365.612-1.365 1.365v8.567c0 .752.613 1.365 1.365 1.365h9.55c.322 0 .621.146.82.396l2.92 3.693v-3.732c0-.196.156-.355.353-.357a1.372 1.372 0 001.349-1.365v-8.567c0-.753-.614-1.365-1.368-1.365zm-1.134 8.598H21.329a.357.357 0 010-.713h11.353a.357.357 0 110 .713zm0-2.735H21.329a.357.357 0 110-.714h11.353a.357.357 0 110 .714zm0-2.734H21.329a.357.357 0 010-.716h11.353a.358.358 0 010 .716z"/><path d="M24.057 1.112c-12.672 0-22.944 10.272-22.944 22.944C1.112 36.729 11.385 47 24.057 47 36.729 47 47 36.729 47 24.057S36.729 1.112 24.057 1.112zM16.848 25.82a.235.235 0 00-.156.09l-2.685 3.398a.579.579 0 01-.458.223.585.585 0 01-.592-.588v-3.166a1.866 1.866 0 01-1.48-1.818v-7.458c0-1.024.833-1.857 1.857-1.857h11.861c1.021 0 1.857.833 1.857 1.857v1.38a.358.358 0 01-.715 0v-1.38c0-.63-.513-1.142-1.142-1.142H13.334c-.629 0-1.142.512-1.142 1.142v7.458c0 .622.506 1.135 1.127 1.143a.358.358 0 01.354.356v3.118l2.457-3.111a.964.964 0 01.617-.354.358.358 0 01.101.709zm19.05 4.026c0 1.01-.736 1.864-1.701 2.045v3.68a.618.618 0 01-.627.623.615.615 0 01-.483-.235l-3.084-3.903a.332.332 0 00-.261-.127h-9.55a2.084 2.084 0 01-2.081-2.08V21.28c0-1.147.934-2.081 2.081-2.081h13.625c1.148 0 2.082.934 2.082 2.081v8.566h-.001z"/></g><path fill="none" stroke="#212121" stroke-miterlimit="10" d="M24.057 1.112c-12.672 0-22.944 10.272-22.944 22.944C1.112 36.729 11.385 47 24.057 47 36.729 47 47 36.729 47 24.057S36.729 1.112 24.057 1.112z"/></svg>