<svg xmlns="http://www.w3.org/2000/svg" width="48" height="48"><circle fill="#212121" cx="24.057" cy="24.056" r="22.014"/><g fill="#FFF"><path d="M21.957 13.844c-4.257 0-7.722 3.464-7.722 7.722 0 4.258 3.464 7.722 7.722 7.722s7.723-3.464 7.723-7.722c0-4.258-3.465-7.722-7.723-7.722z"/><path d="M24.057 1.112c-12.672 0-22.944 10.272-22.944 22.944C1.112 36.729 11.385 47 24.057 47 36.729 47 47 36.729 47 24.057S36.729 1.112 24.057 1.112zm12.016 35.501a1.354 1.354 0 01-.944.381 1.35 1.35 0 01-.982-.418l-6.203-6.453a10.34 10.34 0 01-5.985 1.891c-5.76 0-10.447-4.688-10.447-10.448 0-5.76 4.687-10.447 10.447-10.447s10.446 4.687 10.446 10.447c0 2.466-.866 4.834-2.449 6.715l6.156 6.406c.52.542.501 1.407-.039 1.926z"/></g><path fill="none" stroke="#212121" stroke-miterlimit="10" d="M24.057 1.112c-12.672 0-22.944 10.272-22.944 22.944C1.112 36.729 11.385 47 24.057 47 36.729 47 47 36.729 47 24.057S36.729 1.112 24.057 1.112z"/></svg>