<svg xmlns="http://www.w3.org/2000/svg" xmlns:xlink="http://www.w3.org/1999/xlink" viewBox="0 0 825 495" style="enable-background:new 0 0 825 495" xml:space="preserve"><style>.st0{opacity:.2}.st1{fill:none;stroke:#fff;stroke-width:.25;stroke-miterlimit:10}.st2{fill:#fff}.st5{enable-background:new}.st8,.st9{fill:#fff;stroke:#fff;stroke-miterlimit:10}.st9{fill:none}</style><g class="st0" id="Layer_4"><path class="st1" d="M0 0h55v55H0zM55 0h55v55H55zM110 0h55v55h-55zM165 0h55v55h-55zM220 0h55v55h-55zM275 0h55v55h-55zM330 0h55v55h-55zM385 0h55v55h-55zM440 0h55v55h-55zM495 0h55v55h-55zM0 55h55v55H0zM55 55h55v55H55zM110 55h55v55h-55zM165 55h55v55h-55zM220 55h55v55h-55zM275 55h55v55h-55zM330 55h55v55h-55zM385 55h55v55h-55zM440 55h55v55h-55zM495 55h55v55h-55zM0 110h55v55H0zM55 110h55v55H55zM110 110h55v55h-55zM165 110h55v55h-55zM220 110h55v55h-55zM275 110h55v55h-55zM330 110h55v55h-55zM385 110h55v55h-55zM440 110h55v55h-55zM495 110h55v55h-55zM0 165h55v55H0zM55 165h55v55H55zM110 165h55v55h-55zM165 165h55v55h-55zM220 165h55v55h-55zM275 165h55v55h-55zM330 165h55v55h-55zM385 165h55v55h-55zM440 165h55v55h-55zM495 165h55v55h-55zM0 220h55v55H0zM55 220h55v55H55zM110 220h55v55h-55zM165 220h55v55h-55zM220 220h55v55h-55zM275 220h55v55h-55zM330 220h55v55h-55zM385 220h55v55h-55zM440 220h55v55h-55zM495 220h55v55h-55z"/><g><path class="st1" d="M0 275h55v55H0zM55 275h55v55H55zM110 275h55v55h-55zM165 275h55v55h-55zM220 275h55v55h-55zM275 275h55v55h-55zM330 275h55v55h-55zM385 275h55v55h-55zM440 275h55v55h-55zM495 275h55v55h-55z"/></g><g><path class="st1" d="M0 330h55v55H0zM55 330h55v55H55zM110 330h55v55h-55zM165 330h55v55h-55zM220 330h55v55h-55zM275 330h55v55h-55zM330 330h55v55h-55zM385 330h55v55h-55zM440 330h55v55h-55zM495 330h55v55h-55z"/></g><g><path class="st1" d="M0 385h55v55H0zM55 385h55v55H55zM110 385h55v55h-55zM165 385h55v55h-55zM220 385h55v55h-55zM275 385h55v55h-55zM330 385h55v55h-55zM385 385h55v55h-55zM440 385h55v55h-55zM495 385h55v55h-55z"/></g><g><path class="st1" d="M0 440h55v55H0zM55 440h55v55H55zM110 440h55v55h-55zM165 440h55v55h-55zM220 440h55v55h-55zM275 440h55v55h-55zM330 440h55v55h-55zM385 440h55v55h-55zM440 440h55v55h-55zM495 440h55v55h-55z"/></g><path class="st1" d="M550 0h55v55h-55zM605 0h55v55h-55zM660 0h55v55h-55zM715 0h55v55h-55zM770 0h55v55h-55zM550 55h55v55h-55zM605 55h55v55h-55zM660 55h55v55h-55zM715 55h55v55h-55zM770 55h55v55h-55zM550 110h55v55h-55zM605 110h55v55h-55zM660 110h55v55h-55zM715 110h55v55h-55zM770 110h55v55h-55zM550 165h55v55h-55zM605 165h55v55h-55zM660 165h55v55h-55zM715 165h55v55h-55zM770 165h55v55h-55zM550 220h55v55h-55zM605 220h55v55h-55zM660 220h55v55h-55zM715 220h55v55h-55zM770 220h55v55h-55zM550 275h55v55h-55zM605 275h55v55h-55zM660 275h55v55h-55zM715 275h55v55h-55zM770 275h55v55h-55zM550 330h55v55h-55zM605 330h55v55h-55zM660 330h55v55h-55zM715 330h55v55h-55zM770 330h55v55h-55zM550 385h55v55h-55zM605 385h55v55h-55zM660 385h55v55h-55zM715 385h55v55h-55zM770 385h55v55h-55zM550 440h55v55h-55zM605 440h55v55h-55zM660 440h55v55h-55zM715 440h55v55h-55zM770 440h55v55h-55z"/></g><g class="st0" id="Layer_3"><path class="st2" d="M54 50h2v10h-2z"/><path transform="rotate(90 55 55)" class="st2" d="M54 50h2v10h-2z"/><path class="st2" d="M109 50h2v10h-2z"/><path transform="rotate(90 110 55)" class="st2" d="M109 50h2v10h-2z"/><path class="st2" d="M164 50h2v10h-2z"/><path transform="rotate(90 165 55)" class="st2" d="M164 50h2v10h-2z"/><path class="st2" d="M219 50h2v10h-2z"/><path transform="rotate(90 220 55)" class="st2" d="M219 50h2v10h-2z"/><path class="st2" d="M274 50h2v10h-2z"/><path transform="rotate(90 275 55)" class="st2" d="M274 50h2v10h-2z"/><path class="st2" d="M329 50h2v10h-2z"/><path transform="rotate(90 330 55)" class="st2" d="M329 50h2v10h-2z"/><path class="st2" d="M384 50h2v10h-2z"/><path transform="rotate(90 385 55)" class="st2" d="M384 50h2v10h-2z"/><path class="st2" d="M439 50h2v10h-2z"/><path transform="rotate(90 440 55)" class="st2" d="M439 50h2v10h-2z"/><path class="st2" d="M494 50h2v10h-2z"/><path transform="rotate(90 495 55)" class="st2" d="M494 50h2v10h-2z"/><path class="st2" d="M54 105h2v10h-2z"/><path transform="rotate(90 55 110)" class="st2" d="M54 105h2v10h-2z"/><path class="st2" d="M109 105h2v10h-2z"/><path transform="rotate(90 110 110)" class="st2" d="M109 105h2v10h-2z"/><path class="st2" d="M164 105h2v10h-2z"/><path transform="rotate(90 165 110)" class="st2" d="M164 105h2v10h-2z"/><path class="st2" d="M219 105h2v10h-2z"/><path transform="rotate(90 220 110)" class="st2" d="M219 105h2v10h-2z"/><path class="st2" d="M274 105h2v10h-2z"/><path transform="rotate(90 275 110)" class="st2" d="M274 105h2v10h-2z"/><path class="st2" d="M329 105h2v10h-2z"/><path transform="rotate(90 330 110)" class="st2" d="M329 105h2v10h-2z"/><path class="st2" d="M384 105h2v10h-2z"/><path transform="rotate(90 385 110)" class="st2" d="M384 105h2v10h-2z"/><path class="st2" d="M439 105h2v10h-2z"/><path transform="rotate(90 440 110)" class="st2" d="M439 105h2v10h-2z"/><path class="st2" d="M494 105h2v10h-2z"/><path transform="rotate(90 495 110)" class="st2" d="M494 105h2v10h-2z"/><path class="st2" d="M54 160h2v10h-2z"/><path transform="rotate(90 55 165)" class="st2" d="M54 160h2v10h-2z"/><path class="st2" d="M109 160h2v10h-2z"/><path transform="rotate(90 110 165)" class="st2" d="M109 160h2v10h-2z"/><path class="st2" d="M164 160h2v10h-2z"/><path transform="rotate(90 165 165)" class="st2" d="M164 160h2v10h-2z"/><path class="st2" d="M219 160h2v10h-2z"/><path transform="rotate(90 220 165)" class="st2" d="M219 160h2v10h-2z"/><path class="st2" d="M274 160h2v10h-2z"/><path transform="rotate(90 275 165)" class="st2" d="M274 160h2v10h-2z"/><g><path class="st2" d="M329 160h2v10h-2z"/><path transform="rotate(90 330 165)" class="st2" d="M329 160h2v10h-2z"/></g><g><path class="st2" d="M384 160h2v10h-2z"/><path transform="rotate(90 385 165)" class="st2" d="M384 160h2v10h-2z"/></g><g><path class="st2" d="M439 160h2v10h-2z"/><path transform="rotate(90 440 165)" class="st2" d="M439 160h2v10h-2z"/></g><g><path class="st2" d="M494 160h2v10h-2z"/><path transform="rotate(90 495 165)" class="st2" d="M494 160h2v10h-2z"/></g><g><path class="st2" d="M54 215h2v10h-2z"/><path transform="rotate(90 55 220)" class="st2" d="M54 215h2v10h-2z"/><path class="st2" d="M109 215h2v10h-2z"/><path transform="rotate(90 110 220)" class="st2" d="M109 215h2v10h-2z"/><path class="st2" d="M164 215h2v10h-2z"/><path transform="rotate(90 165 220)" class="st2" d="M164 215h2v10h-2z"/><path class="st2" d="M219 215h2v10h-2z"/><path transform="rotate(90 220 220)" class="st2" d="M219 215h2v10h-2z"/><path class="st2" d="M274 215h2v10h-2z"/><path transform="rotate(90 275 220)" class="st2" d="M274 215h2v10h-2z"/><g><path class="st2" d="M329 215h2v10h-2z"/><path transform="rotate(90 330 220)" class="st2" d="M329 215h2v10h-2z"/></g><g><path class="st2" d="M384 215h2v10h-2z"/><path transform="rotate(90 385 220)" class="st2" d="M384 215h2v10h-2z"/></g><g><path class="st2" d="M439 215h2v10h-2z"/><path transform="rotate(90 440 220)" class="st2" d="M439 215h2v10h-2z"/></g><g><path class="st2" d="M494 215h2v10h-2z"/><path transform="rotate(90 495 220)" class="st2" d="M494 215h2v10h-2z"/></g></g><g><path class="st2" d="M54 270h2v10h-2z"/><path transform="rotate(90 55 275)" class="st2" d="M54 270h2v10h-2z"/><path class="st2" d="M109 270h2v10h-2z"/><path transform="rotate(90 110 275)" class="st2" d="M109 270h2v10h-2z"/><path class="st2" d="M164 270h2v10h-2z"/><path transform="rotate(90 165 275)" class="st2" d="M164 270h2v10h-2z"/><path class="st2" d="M219 270h2v10h-2z"/><path transform="rotate(90 220 275)" class="st2" d="M219 270h2v10h-2z"/><path class="st2" d="M274 270h2v10h-2z"/><path transform="rotate(90 275 275)" class="st2" d="M274 270h2v10h-2z"/><g><path class="st2" d="M329 270h2v10h-2z"/><path transform="rotate(90 330 275)" class="st2" d="M329 270h2v10h-2z"/></g><g><path class="st2" d="M384 270h2v10h-2z"/><path transform="rotate(90 385 275)" class="st2" d="M384 270h2v10h-2z"/></g><g><path class="st2" d="M439 270h2v10h-2z"/><path transform="rotate(90 440 275)" class="st2" d="M439 270h2v10h-2z"/></g><g><path class="st2" d="M494 270h2v10h-2z"/><path transform="rotate(90 495 275)" class="st2" d="M494 270h2v10h-2z"/></g></g><g><path class="st2" d="M54 325h2v10h-2z"/><path transform="rotate(90 55 330)" class="st2" d="M54 325h2v10h-2z"/><path class="st2" d="M109 325h2v10h-2z"/><path transform="rotate(90 110 330)" class="st2" d="M109 325h2v10h-2z"/><path class="st2" d="M164 325h2v10h-2z"/><path transform="rotate(90 165 330)" class="st2" d="M164 325h2v10h-2z"/><path class="st2" d="M219 325h2v10h-2z"/><path transform="rotate(90 220 330)" class="st2" d="M219 325h2v10h-2z"/><path class="st2" d="M274 325h2v10h-2z"/><path transform="rotate(90 275 330)" class="st2" d="M274 325h2v10h-2z"/><g><path class="st2" d="M329 325h2v10h-2z"/><path transform="rotate(90 330 330)" class="st2" d="M329 325h2v10h-2z"/></g><g><path class="st2" d="M384 325h2v10h-2z"/><path transform="rotate(90 385 330)" class="st2" d="M384 325h2v10h-2z"/></g><g><path class="st2" d="M439 325h2v10h-2z"/><path transform="rotate(90 440 330)" class="st2" d="M439 325h2v10h-2z"/></g><g><path class="st2" d="M494 325h2v10h-2z"/><path transform="rotate(90 495 330)" class="st2" d="M494 325h2v10h-2z"/></g></g><g><path class="st2" d="M54 380h2v10h-2z"/><path transform="rotate(90 55 385)" class="st2" d="M54 380h2v10h-2z"/><path class="st2" d="M109 380h2v10h-2z"/><path transform="rotate(90 110 385)" class="st2" d="M109 380h2v10h-2z"/><path class="st2" d="M164 380h2v10h-2z"/><path transform="rotate(90 165 385)" class="st2" d="M164 380h2v10h-2z"/><path class="st2" d="M219 380h2v10h-2z"/><path transform="rotate(90 220 385)" class="st2" d="M219 380h2v10h-2z"/><path class="st2" d="M274 380h2v10h-2z"/><path transform="rotate(90 275 385)" class="st2" d="M274 380h2v10h-2z"/><g><path class="st2" d="M329 380h2v10h-2z"/><path transform="rotate(90 330 385)" class="st2" d="M329 380h2v10h-2z"/></g><g><path class="st2" d="M384 380h2v10h-2z"/><path transform="rotate(90 385 385)" class="st2" d="M384 380h2v10h-2z"/></g><g><path class="st2" d="M439 380h2v10h-2z"/><path transform="rotate(90 440 385)" class="st2" d="M439 380h2v10h-2z"/></g><g><path class="st2" d="M494 380h2v10h-2z"/><path transform="rotate(90 495 385)" class="st2" d="M494 380h2v10h-2z"/></g></g><g><path class="st2" d="M54 435h2v10h-2z"/><path transform="rotate(90 55 440)" class="st2" d="M54 435h2v10h-2z"/><path class="st2" d="M109 435h2v10h-2z"/><path transform="rotate(90 110 440)" class="st2" d="M109 435h2v10h-2z"/><path class="st2" d="M164 435h2v10h-2z"/><path transform="rotate(90 165 440)" class="st2" d="M164 435h2v10h-2z"/><path class="st2" d="M219 435h2v10h-2z"/><path transform="rotate(90 220 440)" class="st2" d="M219 435h2v10h-2z"/><path class="st2" d="M274 435h2v10h-2z"/><path transform="rotate(90 275 440)" class="st2" d="M274 435h2v10h-2z"/><g><path class="st2" d="M329 435h2v10h-2z"/><path transform="rotate(90 330 440)" class="st2" d="M329 435h2v10h-2z"/></g><g><path class="st2" d="M384 435h2v10h-2z"/><path transform="rotate(90 385 440)" class="st2" d="M384 435h2v10h-2z"/></g><g><path class="st2" d="M439 435h2v10h-2z"/><path transform="rotate(90 440 440)" class="st2" d="M439 435h2v10h-2z"/></g><g><path class="st2" d="M494 435h2v10h-2z"/><path transform="rotate(90 495 440)" class="st2" d="M494 435h2v10h-2z"/></g></g><g><path class="st2" d="M549 50h2v10h-2z"/><path transform="rotate(90 550 55)" class="st2" d="M549 50h2v10h-2z"/></g><g><path class="st2" d="M604 50h2v10h-2z"/><path transform="rotate(90 605 55)" class="st2" d="M604 50h2v10h-2z"/></g><g><path class="st2" d="M659 50h2v10h-2z"/><path transform="rotate(90 660 55)" class="st2" d="M659 50h2v10h-2z"/></g><g><path class="st2" d="M714 50h2v10h-2z"/><path transform="rotate(90 715 55)" class="st2" d="M714 50h2v10h-2z"/></g><g><path class="st2" d="M769 50h2v10h-2z"/><path transform="rotate(90 770 55)" class="st2" d="M769 50h2v10h-2z"/></g><g><path class="st2" d="M549 105h2v10h-2z"/><path transform="rotate(90 550 110)" class="st2" d="M549 105h2v10h-2z"/></g><g><path class="st2" d="M604 105h2v10h-2z"/><path transform="rotate(90 605 110)" class="st2" d="M604 105h2v10h-2z"/></g><g><path class="st2" d="M659 105h2v10h-2z"/><path transform="rotate(90 660 110)" class="st2" d="M659 105h2v10h-2z"/></g><g><path class="st2" d="M714 105h2v10h-2z"/><path transform="rotate(90 715 110)" class="st2" d="M714 105h2v10h-2z"/></g><g><path class="st2" d="M769 105h2v10h-2z"/><path transform="rotate(90 770 110)" class="st2" d="M769 105h2v10h-2z"/></g><g><path class="st2" d="M549 160h2v10h-2z"/><path transform="rotate(90 550 165)" class="st2" d="M549 160h2v10h-2z"/></g><g><path class="st2" d="M604 160h2v10h-2z"/><path transform="rotate(90 605 165)" class="st2" d="M604 160h2v10h-2z"/></g><g><path class="st2" d="M659 160h2v10h-2z"/><path transform="rotate(90 660 165)" class="st2" d="M659 160h2v10h-2z"/></g><g><path class="st2" d="M714 160h2v10h-2z"/><path transform="rotate(90 715 165)" class="st2" d="M714 160h2v10h-2z"/></g><g><path class="st2" d="M769 160h2v10h-2z"/><path transform="rotate(90 770 165)" class="st2" d="M769 160h2v10h-2z"/></g><g><path class="st2" d="M549 215h2v10h-2z"/><path transform="rotate(90 550 220)" class="st2" d="M549 215h2v10h-2z"/></g><g><path class="st2" d="M604 215h2v10h-2z"/><path transform="rotate(90 605 220)" class="st2" d="M604 215h2v10h-2z"/></g><g><path class="st2" d="M659 215h2v10h-2z"/><path transform="rotate(90 660 220)" class="st2" d="M659 215h2v10h-2z"/></g><g><path class="st2" d="M714 215h2v10h-2z"/><path transform="rotate(90 715 220)" class="st2" d="M714 215h2v10h-2z"/></g><g><path class="st2" d="M769 215h2v10h-2z"/><path transform="rotate(90 770 220)" class="st2" d="M769 215h2v10h-2z"/></g><g><path class="st2" d="M549 270h2v10h-2z"/><path transform="rotate(90 550 275)" class="st2" d="M549 270h2v10h-2z"/></g><g><path class="st2" d="M604 270h2v10h-2z"/><path transform="rotate(90 605 275)" class="st2" d="M604 270h2v10h-2z"/></g><g><path class="st2" d="M659 270h2v10h-2z"/><path transform="rotate(90 660 275)" class="st2" d="M659 270h2v10h-2z"/></g><g><path class="st2" d="M714 270h2v10h-2z"/><path transform="rotate(90 715 275)" class="st2" d="M714 270h2v10h-2z"/></g><g><path class="st2" d="M769 270h2v10h-2z"/><path transform="rotate(90 770 275)" class="st2" d="M769 270h2v10h-2z"/></g><g><path class="st2" d="M549 325h2v10h-2z"/><path transform="rotate(90 550 330)" class="st2" d="M549 325h2v10h-2z"/></g><g><path class="st2" d="M604 325h2v10h-2z"/><path transform="rotate(90 605 330)" class="st2" d="M604 325h2v10h-2z"/></g><g><path class="st2" d="M659 325h2v10h-2z"/><path transform="rotate(90 660 330)" class="st2" d="M659 325h2v10h-2z"/></g><g><path class="st2" d="M714 325h2v10h-2z"/><path transform="rotate(90 715 330)" class="st2" d="M714 325h2v10h-2z"/></g><g><path class="st2" d="M769 325h2v10h-2z"/><path transform="rotate(90 770 330)" class="st2" d="M769 325h2v10h-2z"/></g><g><path class="st2" d="M549 380h2v10h-2z"/><path transform="rotate(90 550 385)" class="st2" d="M549 380h2v10h-2z"/></g><g><path class="st2" d="M604 380h2v10h-2z"/><path transform="rotate(90 605 385)" class="st2" d="M604 380h2v10h-2z"/></g><g><path class="st2" d="M659 380h2v10h-2z"/><path transform="rotate(90 660 385)" class="st2" d="M659 380h2v10h-2z"/></g><g><path class="st2" d="M714 380h2v10h-2z"/><path transform="rotate(90 715 385)" class="st2" d="M714 380h2v10h-2z"/></g><g><path class="st2" d="M769 380h2v10h-2z"/><path transform="rotate(90 770 385)" class="st2" d="M769 380h2v10h-2z"/></g><g><path class="st2" d="M549 435h2v10h-2z"/><path transform="rotate(90 550 440)" class="st2" d="M549 435h2v10h-2z"/></g><g><path class="st2" d="M604 435h2v10h-2z"/><path transform="rotate(90 605 440)" class="st2" d="M604 435h2v10h-2z"/></g><g><path class="st2" d="M659 435h2v10h-2z"/><path transform="rotate(90 660 440)" class="st2" d="M659 435h2v10h-2z"/></g><g><path class="st2" d="M714 435h2v10h-2z"/><path transform="rotate(90 715 440)" class="st2" d="M714 435h2v10h-2z"/></g><g><path class="st2" d="M769 435h2v10h-2z"/><path transform="rotate(90 770 440)" class="st2" d="M769 435h2v10h-2z"/></g></g><g style="opacity:.25" id="OBJECTS"><defs><path id="SVGID_1_" d="M0-2.5h825v550H0z"/></defs><clipPath id="SVGID_2_"><use xlink:href="#SVGID_1_" style="overflow:visible"/></clipPath><g style="clip-path:url(#SVGID_2_)"><g class="st5"><defs><path id="SVGID_3_" class="st5" d="m848.3 137.8-2-240c-.2-24.7-30.4-36.7-47.6-18.7L571.8 118.9c-16.7 17.5-4.2 46.5 20 46.5l228.9.1c15.4.1 27.8-12.4 27.6-27.7z"/></defs><clipPath id="SVGID_4_"><use xlink:href="#SVGID_3_" style="overflow:visible"/></clipPath><g style="clip-path:url(#SVGID_4_)"><path transform="rotate(-23.737 665.22 -63.425)" class="st2" d="M455.3-67.3h419.8v7.8H455.3z"/><path transform="rotate(-23.737 673.96 -43.49)" class="st2" d="M464-47.3h419.8v7.8H464z"/><path transform="rotate(-23.737 682.689 -23.69)" class="st2" d="M472.8-27.5h419.8v7.8H472.8z"/><path transform="rotate(-23.737 691.418 -3.891)" class="st2" d="M481.5-7.7h419.8V.1H481.5z"/><path transform="rotate(-23.737 700.157 16.044)" class="st2" d="M490.2 12.2H910V20H490.2z"/><path transform="rotate(-23.737 708.887 35.843)" class="st2" d="M499 32h419.8v7.8H499z"/><path transform="rotate(-23.737 717.626 55.779)" class="st2" d="M507.7 51.9h419.8v7.8H507.7z"/><path transform="rotate(-23.737 726.355 75.578)" class="st2" d="M516.4 71.7h419.8v7.8H516.4z"/><path transform="rotate(-23.737 735.095 95.514)" class="st2" d="M525.2 91.7H945v7.8H525.2z"/><path transform="rotate(-23.737 743.824 115.313)" class="st2" d="M533.9 111.5h419.8v7.8H533.9z"/><path transform="rotate(-23.737 752.553 135.112)" class="st2" d="M542.6 131.3h419.8v7.8H542.6z"/><path transform="rotate(-23.737 761.293 155.048)" class="st2" d="M551.4 151.2h419.8v7.8H551.4z"/><path transform="rotate(-23.737 770.022 174.847)" class="st2" d="M560.1 171h419.8v7.8H560.1z"/></g></g><path class="st2" d="M200.9 157.5c-1.5.1-3-.2-4.5-.7-4.1-1.5-6.7-5.3-6.8-9.7l-.6-58.4c-.1-2.9 1-5.5 3.1-7.6 2-2 4.7-3.1 7.5-3.2l55.6-.2c4.3 0 8 2.4 9.7 6.4 1.7 4 .9 8.3-2 11.5L208.1 154c-2.1 2.2-4.5 3.4-7.2 3.5zm-4.2-68.7.7 58.4c0 1.8 1.2 2.3 1.8 2.6.6.2 1.9.5 3-.7l54.9-58.5c1.1-1.3.7-2.6.5-3.1-.3-.5-.9-1.7-2.6-1.7l-55.6.2c-.8 0-1.5.3-2 .9-.5.4-.7 1.1-.7 1.9zM648.5 324c-2.8 1.6-6.2 2-9.2.8-4-1.6-6.6-5.4-6.6-9.8l-.1-58.3c0-2.9 1.1-5.5 3.2-7.5 2-2 4.6-3.1 7.5-3.1l55.5.3c4.3 0 7.9 2.4 9.7 6.5 1.6 4 .8 8.4-2.1 11.4l-55.4 58c-.9.5-1.7 1.2-2.5 1.7zm-8.4-67.5.2 58.4c0 1.8 1.3 2.4 1.8 2.6.5.2 1.9.5 3.1-.7l55.4-58c1.2-1.2.8-2.5.7-3.1-.2-.5-.9-1.8-2.6-1.8l-55.5-.3c-.8 0-1.5.2-2.1.9-.7.6-.9 1.3-1 2zM28.9 301.7c-2.1 0-4.1-.9-5.6-2.5-2.2-2.3-2.6-5.6-1.2-8.5l18.5-38.2c.9-1.9 2.5-3.3 4.5-3.9s4.1-.5 5.9.4l36.1 17.8c2.8 1.4 4.4 4.1 4.3 7.3-.2 3.1-2.1 5.7-5.1 6.7l-54.8 20.3c-.7.5-1.7.7-2.6.6zm18.7-48c-.2 0-.4 0-.7.1-.6.2-1 .5-1.2 1.1l-18.5 38.2c-.6 1.1.1 2 .3 2.3.3.3 1.1 1 2.2.6l54.9-20.3c1.1-.4 1.3-1.4 1.3-1.8 0-.4-.1-1.4-1.2-2L48.3 254c-.2-.3-.4-.3-.7-.3zM448.7 176.8c.1-2 1.3-3.5 3.2-4.3 1.9-.7 4-.4 5.6 1l29.8 28.8c1.6 1.4 2 3.7 1.2 5.6s-2.6 3.2-4.7 3.2l-30.2-.1c-1.3 0-2.6-.5-3.6-1.6-.9-.9-1.5-2.3-1.5-3.6l.3-28.8c-.1 0-.1-.1-.1-.2zm36.7 29.3c0-.4 0-.9-.6-1.4L455 175.9c-.8-.7-1.7-.5-2-.4-.2.1-1.1.5-1.1 1.7l-.3 28.6c0 .4.2.9.6 1.3.3.4.8.5 1.3.5l30.2.1c1.1 0 1.6-.9 1.7-1.1-.1-.1-.1-.3 0-.5zM373.3 379c-1.2-.1-2.4-.6-3.3-1.5l-32.4-30.8c-1.6-1.5-2.1-3.9-1.3-5.9s2.7-3.4 4.9-3.4l32.5-.1c1.4 0 2.8.6 3.9 1.5 1 1.1 1.6 2.4 1.5 3.8l-.1 31.1c0 2.2-1.2 4.1-3.3 4.9-.8.3-1.5.4-2.4.4zm.5-38.5h-.1l-32.5.1c-1.3 0-1.8 1-1.9 1.3-.1.3-.4 1.4.5 2.2l32.4 30.8c.9.8 2 .6 2.3.5.3-.1 1.2-.6 1.2-1.9l.1-31.1c0-.5-.3-1.1-.6-1.5-.4-.2-.8-.4-1.4-.4z"/><g><g class="st5"><defs><path id="SVGID_5_" class="st5" d="m195.5 646.1 89-202.2c9.2-20.9-11.7-42.3-32.9-33.6L-29.5 526c-20.6 8.4-21.1 37.4-.8 46.6l192.1 86.5c12.9 5.7 28-.1 33.7-13z"/></defs><clipPath id="SVGID_6_"><use xlink:href="#SVGID_5_" style="overflow:visible"/></clipPath><g style="clip-path:url(#SVGID_6_)"><path transform="matrix(.0083 -1 1 .0083 -291.448 522.613)" class="st2" d="M114.2 215.1h7.1v386.3h-7.1z"/><path transform="matrix(.0083 -1 1 .0083 -311.527 542.208)" class="st2" d="M114 235h7.1v386.3H114z"/><path transform="matrix(.0083 -1 1 .0083 -331.713 561.908)" class="st2" d="M113.9 255h7.1v386.3h-7.1z"/><path transform="matrix(.0083 -1 1 .0083 -351.897 581.397)" class="st2" d="M113.6 275h7.1v386.3h-7.1z"/><path transform="matrix(.0083 -1 1 .0083 -371.976 600.992)" class="st2" d="M113.4 294.9h7.1v386.3h-7.1z"/><path transform="matrix(.0083 -1 1 .0083 -392.162 620.692)" class="st2" d="M113.3 314.9h7.1v386.3h-7.1z"/><path transform="matrix(.0083 -1 1 .0083 -412.24 640.288)" class="st2" d="M113.1 334.8h7.1v386.3h-7.1z"/><path transform="matrix(.0083 -1 1 .0083 -432.32 659.884)" class="st2" d="M113 354.8h7.1v386.3H113z"/><path transform="matrix(.0083 -1 1 .0083 -452.505 679.584)" class="st2" d="M112.8 374.8h7.1v386.3h-7.1z"/><path transform="matrix(.0083 -1 1 .0083 -472.584 699.179)" class="st2" d="M112.6 394.7h7.1V781h-7.1z"/><path transform="matrix(.0083 -1 1 .0083 -492.663 718.774)" class="st2" d="M112.5 414.6h7.1v386.3h-7.1z"/><path transform="matrix(.0083 -1 1 .0083 -512.85 738.475)" class="st2" d="M112.3 434.6h7.1v386.3h-7.1z"/><path transform="matrix(.0083 -1 1 .0083 -532.928 758.07)" class="st2" d="M112.2 454.6h7.1v386.3h-7.1z"/></g></g><path class="st8" d="M615.5 448.5h.8c.8-.1 1.4-.8 1.6-1.6v-.4c0-1.1-.9-2.1-2.1-2.1-1.1 0-2.1.9-2.1 2.1v.4c.3.8 1 1.5 1.8 1.6zM644.6 448.5h.8c.8-.1 1.4-.8 1.7-1.6v-.4c0-1.1-.9-2.1-2.1-2.1-1.1 0-2.1.9-2.1 2.1v.4c.3.8.9 1.5 1.7 1.6zM673.8 448.5h.8c.8-.1 1.4-.8 1.6-1.6v-.4c0-1.1-.9-2.1-2.1-2.1-1.1 0-2.1.9-2.1 2.1v.4c.3.8.9 1.5 1.8 1.6zM702.8 448.5h.8c.8-.1 1.4-.8 1.6-1.6v-.4c0-1.1-.9-2.1-2.1-2.1-1.1 0-2.1.9-2.1 2.1v.4c.4.8 1 1.5 1.8 1.6zM731.9 448.5h.8c.8-.1 1.4-.8 1.7-1.6v-.4c0-1.1-.9-2.1-2.1-2.1-1.1 0-2.1.9-2.1 2.1v.4c.3.8 1 1.5 1.7 1.6zM761.1 448.5h.8c.8-.1 1.4-.8 1.6-1.6v-.4c0-1.1-.9-2.1-2.1-2.1-1.1 0-2.1.9-2.1 2.1v.4c.4.8 1 1.5 1.8 1.6zM790.2 448.5h.8c.8-.1 1.4-.8 1.7-1.6v-.4c0-1.1-.9-2.1-2.1-2.1-1.1 0-2.1.9-2.1 2.1v.4c.3.8 1 1.5 1.7 1.6zM819.4 448.5h.8c.8-.1 1.4-.8 1.7-1.6v-.4c0-1.1-.9-2.1-2.1-2.1-1.1 0-2.1.9-2.1 2.1v.4c.3.8.8 1.5 1.7 1.6zM848.4 448.5h.8c.8-.1 1.4-.8 1.6-1.6v-.4c0-1.1-.9-2.1-2.1-2.1-1.1 0-2.1.9-2.1 2.1v.4c.4.8 1.1 1.5 1.8 1.6zM615.5 470.8h.8c.8-.1 1.4-.8 1.6-1.6v-.4c0-1.1-.9-2.1-2.1-2.1-1.1 0-2.1.9-2.1 2.1v.4c.3.9 1 1.5 1.8 1.6zM644.6 470.8h.8c.8-.1 1.4-.8 1.7-1.6v-.4c0-1.1-.9-2.1-2.1-2.1-1.1 0-2.1.9-2.1 2.1v.4c.3.9.9 1.5 1.7 1.6zM673.8 470.8h.8c.8-.1 1.4-.8 1.6-1.6v-.4c0-1.1-.9-2.1-2.1-2.1-1.1 0-2.1.9-2.1 2.1v.4c.3.9.9 1.5 1.8 1.6zM702.8 470.8h.8c.8-.1 1.4-.8 1.6-1.6v-.4c0-1.1-.9-2.1-2.1-2.1-1.1 0-2.1.9-2.1 2.1v.4c.4.9 1 1.5 1.8 1.6zM731.9 470.8h.8c.8-.1 1.4-.8 1.7-1.6v-.4c0-1.1-.9-2.1-2.1-2.1-1.1 0-2.1.9-2.1 2.1v.4c.3.9 1 1.5 1.7 1.6zM761.1 470.8h.8c.8-.1 1.4-.8 1.6-1.6v-.4c0-1.1-.9-2.1-2.1-2.1-1.1 0-2.1.9-2.1 2.1v.4c.4.9 1 1.5 1.8 1.6zM790.2 470.8h.8c.8-.1 1.4-.8 1.7-1.6v-.4c0-1.1-.9-2.1-2.1-2.1-1.1 0-2.1.9-2.1 2.1v.4c.3.9 1 1.5 1.7 1.6zM819.4 470.8h.8c.8-.1 1.4-.8 1.7-1.6v-.4c0-1.1-.9-2.1-2.1-2.1-1.1 0-2.1.9-2.1 2.1v.4c.3.9.8 1.5 1.7 1.6zM848.4 470.8h.8c.8-.1 1.4-.8 1.6-1.6v-.4c0-1.1-.9-2.1-2.1-2.1-1.1 0-2.1.9-2.1 2.1v.4c.4.9 1.1 1.5 1.8 1.6zM615.5 493.2h.8c.8-.1 1.4-.8 1.6-1.6v-.4c0-1.1-.9-2.1-2.1-2.1-1.1 0-2.1.9-2.1 2.1v.4c.3.8 1 1.4 1.8 1.6zM644.6 493.2h.8c.8-.1 1.4-.8 1.7-1.6v-.4c0-1.1-.9-2.1-2.1-2.1-1.1 0-2.1.9-2.1 2.1v.4c.3.8.9 1.4 1.7 1.6zM673.8 493.2h.8c.8-.1 1.4-.8 1.6-1.6v-.4c0-1.1-.9-2.1-2.1-2.1-1.1 0-2.1.9-2.1 2.1v.4c.3.8.9 1.4 1.8 1.6zM702.8 493.2h.8c.8-.1 1.4-.8 1.6-1.6v-.4c0-1.1-.9-2.1-2.1-2.1-1.1 0-2.1.9-2.1 2.1v.4c.4.8 1 1.4 1.8 1.6zM731.9 493.2h.8c.8-.1 1.4-.8 1.7-1.6v-.4c0-1.1-.9-2.1-2.1-2.1-1.1 0-2.1.9-2.1 2.1v.4c.3.8 1 1.4 1.7 1.6zM761.1 493.2h.8c.8-.1 1.4-.8 1.6-1.6v-.4c0-1.1-.9-2.1-2.1-2.1-1.1 0-2.1.9-2.1 2.1v.4c.4.8 1 1.4 1.8 1.6zM790.2 493.2h.8c.8-.1 1.4-.8 1.7-1.6v-.4c0-1.1-.9-2.1-2.1-2.1-1.1 0-2.1.9-2.1 2.1v.4c.3.8 1 1.4 1.7 1.6zM819.4 493.2h.8c.8-.1 1.4-.8 1.7-1.6v-.4c0-1.1-.9-2.1-2.1-2.1-1.1 0-2.1.9-2.1 2.1v.4c.3.8.8 1.4 1.7 1.6zM848.4 493.2h.8c.8-.1 1.4-.8 1.6-1.6v-.4c0-1.1-.9-2.1-2.1-2.1-1.1 0-2.1.9-2.1 2.1v.4c.4.8 1.1 1.4 1.8 1.6zM615.5 515.5h.8c.8-.1 1.4-.8 1.6-1.7v-.4c0-1.1-.9-2.1-2.1-2.1-1.1 0-2.1.9-2.1 2.1v.4c.3.9 1 1.5 1.8 1.7zM644.6 515.5h.8c.8-.1 1.4-.8 1.7-1.7v-.4c0-1.1-.9-2.1-2.1-2.1-1.1 0-2.1.9-2.1 2.1v.4c.3.9.9 1.5 1.7 1.7zM673.8 515.5h.8c.8-.1 1.4-.8 1.6-1.7v-.4c0-1.1-.9-2.1-2.1-2.1-1.1 0-2.1.9-2.1 2.1v.4c.3.9.9 1.5 1.8 1.7zM702.8 515.5h.8c.8-.1 1.4-.8 1.6-1.7v-.4c0-1.1-.9-2.1-2.1-2.1-1.1 0-2.1.9-2.1 2.1v.4c.4.9 1 1.5 1.8 1.7zM731.9 515.5h.8c.8-.1 1.4-.8 1.7-1.7v-.4c0-1.1-.9-2.1-2.1-2.1-1.1 0-2.1.9-2.1 2.1v.4c.3.9 1 1.5 1.7 1.7zM761.1 515.5h.8c.8-.1 1.4-.8 1.6-1.7v-.4c0-1.1-.9-2.1-2.1-2.1-1.1 0-2.1.9-2.1 2.1v.4c.4.9 1 1.5 1.8 1.7zM790.2 515.5h.8c.8-.1 1.4-.8 1.7-1.7v-.4c0-1.1-.9-2.1-2.1-2.1-1.1 0-2.1.9-2.1 2.1v.4c.3.9 1 1.5 1.7 1.7zM819.4 515.5h.8c.8-.1 1.4-.8 1.7-1.7v-.4c0-1.1-.9-2.1-2.1-2.1-1.1 0-2.1.9-2.1 2.1v.4c.3.9.8 1.5 1.7 1.7zM848.4 515.5h.8c.8-.1 1.4-.8 1.6-1.7v-.4c0-1.1-.9-2.1-2.1-2.1-1.1 0-2.1.9-2.1 2.1v.4c.4.9 1.1 1.5 1.8 1.7zM615.5 537.7h.8c.8-.1 1.4-.8 1.6-1.7v-.4c0-1.1-.9-2.1-2.1-2.1-1.1 0-2.1.9-2.1 2.1v.4c.3.9 1 1.6 1.8 1.7zM644.6 537.7h.8c.8-.1 1.4-.8 1.7-1.7v-.4c0-1.1-.9-2.1-2.1-2.1-1.1 0-2.1.9-2.1 2.1v.4c.3.9.9 1.6 1.7 1.7zM673.8 537.7h.8c.8-.1 1.4-.8 1.6-1.7v-.4c0-1.1-.9-2.1-2.1-2.1-1.1 0-2.1.9-2.1 2.1v.4c.3.9.9 1.6 1.8 1.7zM702.8 537.7h.8c.8-.1 1.4-.8 1.6-1.7v-.4c0-1.1-.9-2.1-2.1-2.1-1.1 0-2.1.9-2.1 2.1v.4c.4.9 1 1.6 1.8 1.7zM731.9 537.7h.8c.8-.1 1.4-.8 1.7-1.7v-.4c0-1.1-.9-2.1-2.1-2.1-1.1 0-2.1.9-2.1 2.1v.4c.3.9 1 1.6 1.7 1.7zM761.1 537.7h.8c.8-.1 1.4-.8 1.6-1.7v-.4c0-1.1-.9-2.1-2.1-2.1-1.1 0-2.1.9-2.1 2.1v.4c.4.9 1 1.6 1.8 1.7zM790.2 537.7h.8c.8-.1 1.4-.8 1.7-1.7v-.4c0-1.1-.9-2.1-2.1-2.1-1.1 0-2.1.9-2.1 2.1v.4c.3.9 1 1.6 1.7 1.7zM819.4 537.7h.8c.8-.1 1.4-.8 1.7-1.7v-.4c0-1.1-.9-2.1-2.1-2.1-1.1 0-2.1.9-2.1 2.1v.4c.3.9.8 1.6 1.7 1.7zM848.4 537.7h.8c.8-.1 1.4-.8 1.6-1.7v-.4c0-1.1-.9-2.1-2.1-2.1-1.1 0-2.1.9-2.1 2.1v.4c.4.9 1.1 1.6 1.8 1.7zM615.5 560h.8c.8-.1 1.4-.8 1.6-1.6v-.4c0-1.1-.9-2.1-2.1-2.1-1.1 0-2.1.9-2.1 2.1v.4c.3.9 1 1.5 1.8 1.6zM644.6 560h.8c.8-.1 1.4-.8 1.7-1.6v-.4c0-1.1-.9-2.1-2.1-2.1-1.1 0-2.1.9-2.1 2.1v.4c.3.9.9 1.5 1.7 1.6zM673.8 560h.8c.8-.1 1.4-.8 1.6-1.6v-.4c0-1.1-.9-2.1-2.1-2.1-1.1 0-2.1.9-2.1 2.1v.4c.3.9.9 1.5 1.8 1.6zM702.8 560h.8c.8-.1 1.4-.8 1.6-1.6v-.4c0-1.1-.9-2.1-2.1-2.1-1.1 0-2.1.9-2.1 2.1v.4c.4.9 1 1.5 1.8 1.6zM731.9 560h.8c.8-.1 1.4-.8 1.7-1.6v-.4c0-1.1-.9-2.1-2.1-2.1-1.1 0-2.1.9-2.1 2.1v.4c.3.9 1 1.5 1.7 1.6zM761.1 560h.8c.8-.1 1.4-.8 1.6-1.6v-.4c0-1.1-.9-2.1-2.1-2.1-1.1 0-2.1.9-2.1 2.1v.4c.4.9 1 1.5 1.8 1.6zM790.2 560h.8c.8-.1 1.4-.8 1.7-1.6v-.4c0-1.1-.9-2.1-2.1-2.1-1.1 0-2.1.9-2.1 2.1v.4c.3.9 1 1.5 1.7 1.6zM819.4 560h.8c.8-.1 1.4-.8 1.7-1.6v-.4c0-1.1-.9-2.1-2.1-2.1-1.1 0-2.1.9-2.1 2.1v.4c.3.9.8 1.5 1.7 1.6zM848.4 560h.8c.8-.1 1.4-.8 1.6-1.6v-.4c0-1.1-.9-2.1-2.1-2.1-1.1 0-2.1.9-2.1 2.1v.4c.4.9 1.1 1.5 1.8 1.6z"/><g><path class="st8" d="M124.9-19.4v.8c.1.8.8 1.4 1.7 1.7h.4c1.1 0 2.1-.9 2.1-2.1 0-1.1-.9-2.1-2.1-2.1h-.4c-.9.3-1.6.9-1.7 1.7zM124.9 9.8v.8c.1.8.8 1.4 1.7 1.7h.4c1.1 0 2.1-.9 2.1-2.1 0-1.1-.9-2.1-2.1-2.1h-.4c-.9.2-1.6.9-1.7 1.7zM124.9 38.9v.8c.1.8.8 1.4 1.7 1.7h.4c1.1 0 2.1-.9 2.1-2.1 0-1.1-.9-2.1-2.1-2.1h-.4c-.9.3-1.6.9-1.7 1.7zM124.9 68.1v.8c.1.8.8 1.4 1.7 1.7h.4c1.1 0 2.1-.9 2.1-2.1 0-1.1-.9-2.1-2.1-2.1h-.4c-.9.2-1.6.8-1.7 1.7zM124.9 97.2v.8c.1.8.8 1.4 1.7 1.6h.4c1.1 0 2.1-.9 2.1-2.1 0-1.1-.9-2.1-2.1-2.1h-.4c-.9.4-1.6.9-1.7 1.8zM124.9 126.1v.8c.1.8.8 1.4 1.7 1.7h.4c1.1 0 2.1-.9 2.1-2.1 0-1.1-.9-2.1-2.1-2.1h-.4c-.9.4-1.6 1.1-1.7 1.7zM124.9 155.4v.8c.1.8.8 1.4 1.7 1.7h.4c1.1 0 2.1-.9 2.1-2.1 0-1.1-.9-2.1-2.1-2.1h-.4c-.9.3-1.6.9-1.7 1.7zM124.9 184.6v.8c.1.8.8 1.4 1.7 1.6h.4c1.1 0 2.1-.9 2.1-2.1 0-1.1-.9-2.1-2.1-2.1h-.4c-.9.3-1.6 1-1.7 1.8zM124.9 213.7v.8c.1.8.8 1.4 1.7 1.6h.4c1.1 0 2.1-.9 2.1-2.1 0-1.1-.9-2.1-2.1-2.1h-.4c-.9.4-1.6.9-1.7 1.8zM102.6-19.4v.8c.1.8.8 1.4 1.7 1.7h.4c1.1 0 2.1-.9 2.1-2.1 0-1.1-.9-2.1-2.1-2.1h-.4c-1 .3-1.6.9-1.7 1.7zM102.6 9.8v.8c.1.8.8 1.4 1.7 1.7h.4c1.1 0 2.1-.9 2.1-2.1 0-1.1-.9-2.1-2.1-2.1h-.4c-1 .2-1.6.9-1.7 1.7zM102.6 38.9v.8c.1.8.8 1.4 1.7 1.7h.4c1.1 0 2.1-.9 2.1-2.1 0-1.1-.9-2.1-2.1-2.1h-.4c-1 .3-1.6.9-1.7 1.7zM102.6 68.1v.8c.1.8.8 1.4 1.7 1.7h.4c1.1 0 2.1-.9 2.1-2.1 0-1.1-.9-2.1-2.1-2.1h-.4c-1 .2-1.6.8-1.7 1.7zM102.6 97.2v.8c.1.8.8 1.4 1.7 1.6h.4c1.1 0 2.1-.9 2.1-2.1 0-1.1-.9-2.1-2.1-2.1h-.4c-1 .4-1.6.9-1.7 1.8zM102.6 126.1v.8c.1.8.8 1.4 1.7 1.7h.4c1.1 0 2.1-.9 2.1-2.1 0-1.1-.9-2.1-2.1-2.1h-.4c-1 .4-1.6 1.1-1.7 1.7zM102.6 155.4v.8c.1.8.8 1.4 1.7 1.7h.4c1.1 0 2.1-.9 2.1-2.1 0-1.1-.9-2.1-2.1-2.1h-.4c-1 .3-1.6.9-1.7 1.7zM102.6 184.6v.8c.1.8.8 1.4 1.7 1.6h.4c1.1 0 2.1-.9 2.1-2.1 0-1.1-.9-2.1-2.1-2.1h-.4c-1 .3-1.6 1-1.7 1.8zM102.6 213.7v.8c.1.8.8 1.4 1.7 1.6h.4c1.1 0 2.1-.9 2.1-2.1 0-1.1-.9-2.1-2.1-2.1h-.4c-1 .4-1.6.9-1.7 1.8zM80.2-19.4v.8c.1.8.8 1.4 1.7 1.7h.4c1.1 0 2.1-.9 2.1-2.1 0-1.1-.9-2.1-2.1-2.1h-.4c-.9.3-1.5.9-1.7 1.7zM80.2 9.8v.8c.1.8.8 1.4 1.7 1.7h.4c1.1 0 2.1-.9 2.1-2.1 0-1.1-.9-2.1-2.1-2.1h-.4c-.9.2-1.5.9-1.7 1.7zM80.2 38.9v.8c.1.8.8 1.4 1.7 1.7h.4c1.1 0 2.1-.9 2.1-2.1 0-1.1-.9-2.1-2.1-2.1h-.4c-.9.3-1.5.9-1.7 1.7zM80.2 68.1v.8c.1.8.8 1.4 1.7 1.7h.4c1.1 0 2.1-.9 2.1-2.1 0-1.1-.9-2.1-2.1-2.1h-.4c-.9.2-1.5.8-1.7 1.7zM80.2 97.2v.8c.1.8.8 1.4 1.7 1.6h.4c1.1 0 2.1-.9 2.1-2.1 0-1.1-.9-2.1-2.1-2.1h-.4c-.9.4-1.5.9-1.7 1.8zM80.2 126.1v.8c.1.8.8 1.4 1.7 1.7h.4c1.1 0 2.1-.9 2.1-2.1 0-1.1-.9-2.1-2.1-2.1h-.4c-.9.4-1.5 1.1-1.7 1.7zM80.2 155.4v.8c.1.8.8 1.4 1.7 1.7h.4c1.1 0 2.1-.9 2.1-2.1 0-1.1-.9-2.1-2.1-2.1h-.4c-.9.3-1.5.9-1.7 1.7zM80.2 184.6v.8c.1.8.8 1.4 1.7 1.6h.4c1.1 0 2.1-.9 2.1-2.1 0-1.1-.9-2.1-2.1-2.1h-.4c-.9.3-1.5 1-1.7 1.8zM80.2 213.7v.8c.1.8.8 1.4 1.7 1.6h.4c1.1 0 2.1-.9 2.1-2.1 0-1.1-.9-2.1-2.1-2.1h-.4c-.9.4-1.5.9-1.7 1.8zM57.9-19.4v.8c.1.8.8 1.4 1.6 1.7h.4c1.1 0 2.1-.9 2.1-2.1 0-1.1-.9-2.1-2.1-2.1h-.4c-.7.3-1.4.9-1.6 1.7zM57.9 9.8v.8c.1.8.8 1.4 1.6 1.7h.4c1.1 0 2.1-.9 2.1-2.1 0-1.1-.9-2.1-2.1-2.1h-.4c-.7.2-1.4.9-1.6 1.7zM57.9 38.9v.8c.1.8.8 1.4 1.6 1.7h.4c1.1 0 2.1-.9 2.1-2.1 0-1.1-.9-2.1-2.1-2.1h-.4c-.7.3-1.4.9-1.6 1.7zM57.9 68.1v.8c.1.8.8 1.4 1.6 1.7h.4c1.1 0 2.1-.9 2.1-2.1 0-1.1-.9-2.1-2.1-2.1h-.4c-.7.2-1.4.8-1.6 1.7zM57.9 97.2v.8c.1.8.8 1.4 1.6 1.6h.4c1.1 0 2.1-.9 2.1-2.1 0-1.1-.9-2.1-2.1-2.1h-.4c-.7.4-1.4.9-1.6 1.8zM57.9 126.1v.8c.1.8.8 1.4 1.6 1.7h.4c1.1 0 2.1-.9 2.1-2.1 0-1.1-.9-2.1-2.1-2.1h-.4c-.7.4-1.4 1.1-1.6 1.7zM57.9 155.4v.8c.1.8.8 1.4 1.6 1.7h.4c1.1 0 2.1-.9 2.1-2.1 0-1.1-.9-2.1-2.1-2.1h-.4c-.7.3-1.4.9-1.6 1.7zM57.9 184.6v.8c.1.8.8 1.4 1.6 1.6h.4c1.1 0 2.1-.9 2.1-2.1 0-1.1-.9-2.1-2.1-2.1h-.4c-.7.3-1.4 1-1.6 1.8zM57.9 213.7v.8c.1.8.8 1.4 1.6 1.6h.4c1.1 0 2.1-.9 2.1-2.1 0-1.1-.9-2.1-2.1-2.1h-.4c-.7.4-1.4.9-1.6 1.8zM35.7-19.4v.8c.1.8.8 1.4 1.6 1.7h.4c1.1 0 2.1-.9 2.1-2.1 0-1.1-.9-2.1-2.1-2.1h-.4c-.9.3-1.5.9-1.6 1.7zM35.7 9.8v.8c.1.8.8 1.4 1.6 1.7h.4c1.1 0 2.1-.9 2.1-2.1 0-1.1-.9-2.1-2.1-2.1h-.4c-.9.2-1.5.9-1.6 1.7zM35.7 38.9v.8c.1.8.8 1.4 1.6 1.7h.4c1.1 0 2.1-.9 2.1-2.1 0-1.1-.9-2.1-2.1-2.1h-.4c-.9.3-1.5.9-1.6 1.7zM35.7 68.1v.8c.1.8.8 1.4 1.6 1.7h.4c1.1 0 2.1-.9 2.1-2.1 0-1.1-.9-2.1-2.1-2.1h-.4c-.9.2-1.5.8-1.6 1.7zM35.7 97.2v.8c.1.8.8 1.4 1.6 1.6h.4c1.1 0 2.1-.9 2.1-2.1 0-1.1-.9-2.1-2.1-2.1h-.4c-.9.4-1.5.9-1.6 1.8zM35.7 126.1v.8c.1.8.8 1.4 1.6 1.7h.4c1.1 0 2.1-.9 2.1-2.1 0-1.1-.9-2.1-2.1-2.1h-.4c-.9.4-1.5 1.1-1.6 1.7zM35.7 155.4v.8c.1.8.8 1.4 1.6 1.7h.4c1.1 0 2.1-.9 2.1-2.1 0-1.1-.9-2.1-2.1-2.1h-.4c-.9.3-1.5.9-1.6 1.7zM35.7 184.6v.8c.1.8.8 1.4 1.6 1.6h.4c1.1 0 2.1-.9 2.1-2.1 0-1.1-.9-2.1-2.1-2.1h-.4c-.9.3-1.5 1-1.6 1.8zM35.7 213.7v.8c.1.8.8 1.4 1.6 1.6h.4c1.1 0 2.1-.9 2.1-2.1 0-1.1-.9-2.1-2.1-2.1h-.4c-.9.4-1.5.9-1.6 1.8zM13.3-19.4v.8c.1.8.8 1.4 1.6 1.7h.4c1.1 0 2.1-.9 2.1-2.1 0-1.1-.9-2.1-2.1-2.1h-.4c-.8.3-1.4.9-1.6 1.7zM13.3 9.8v.8c.1.8.8 1.4 1.6 1.7h.4c1.1 0 2.1-.9 2.1-2.1 0-1.1-.9-2.1-2.1-2.1h-.4c-.8.2-1.4.9-1.6 1.7zM13.3 38.9v.8c.1.8.8 1.4 1.6 1.7h.4c1.1 0 2.1-.9 2.1-2.1 0-1.1-.9-2.1-2.1-2.1h-.4c-.8.3-1.4.9-1.6 1.7zM13.3 68.1v.8c.1.8.8 1.4 1.6 1.7h.4c1.1 0 2.1-.9 2.1-2.1 0-1.1-.9-2.1-2.1-2.1h-.4c-.8.2-1.4.8-1.6 1.7zM13.3 97.2v.8c.1.8.8 1.4 1.6 1.6h.4c1.1 0 2.1-.9 2.1-2.1 0-1.1-.9-2.1-2.1-2.1h-.4c-.8.4-1.4.9-1.6 1.8zM13.3 126.1v.8c.1.8.8 1.4 1.6 1.7h.4c1.1 0 2.1-.9 2.1-2.1 0-1.1-.9-2.1-2.1-2.1h-.4c-.8.4-1.4 1.1-1.6 1.7zM13.3 155.4v.8c.1.8.8 1.4 1.6 1.7h.4c1.1 0 2.1-.9 2.1-2.1 0-1.1-.9-2.1-2.1-2.1h-.4c-.8.3-1.4.9-1.6 1.7zM13.3 184.6v.8c.1.8.8 1.4 1.6 1.6h.4c1.1 0 2.1-.9 2.1-2.1 0-1.1-.9-2.1-2.1-2.1h-.4c-.8.3-1.4 1-1.6 1.8zM13.3 213.7v.8c.1.8.8 1.4 1.6 1.6h.4c1.1 0 2.1-.9 2.1-2.1 0-1.1-.9-2.1-2.1-2.1h-.4c-.8.4-1.4.9-1.6 1.8z"/></g><g><path class="st9" d="M248.3 566.5C313 488.4 399 384.7 441.8 332.9c16.1-19.4 42.4-26.9 66.3-19l119.6 39.9c23.1 7.6 48.7.9 64.9-17.3l86.1-96.8c37.3-42 106.7-15.6 106.7 40.5v325.3c0 33.8-27.3 61-61 61H295.3c-51.5-.1-79.8-60.2-47-100z"/><path class="st9" d="M257 568.8c64.7-78.1 150.6-181.9 193.5-233.7 16.1-19.4 42.4-26.9 66.3-19L636.4 356c23.1 7.6 48.7.9 64.9-17.3l86.1-96.8c37.3-42 106.7-15.6 106.7 40.5v325.5c0 33.8-27.3 61-61 61H304c-51.6-.3-79.8-60.4-47-100.1z"/><path class="st9" d="M265.7 570.9c64.7-78.1 150.5-181.9 193.5-233.5 16.1-19.4 42.4-26.9 66.3-19l119.6 39.9c23.1 7.6 48.7.9 64.9-17.3l86-97c37.3-42 106.7-15.6 106.7 40.5V610c0 33.8-27.3 61-61 61H312.6c-51.5-.2-79.8-60.3-46.9-100.1z"/><path class="st9" d="M274.3 573.2C339 495 425 391.3 467.8 339.5c16.1-19.4 42.4-26.9 66.3-19l119.6 39.9c23.1 7.6 48.7.9 64.9-17.3l86.1-96.8c37.3-42 106.7-15.6 106.7 40.5v325.5c0 33.8-27.3 61-61 61h-529c-51.7-.3-80-60.3-47.1-100.1z"/><path class="st9" d="M283 575.3c64.7-78.1 150.6-181.9 193.5-233.7 16.1-19.4 42.4-26.9 66.3-19l119.6 39.9c23.1 7.6 48.7.9 64.9-17.3l86.1-96.8c37.3-42 106.7-15.6 106.7 40.5v325.3c0 33.8-27.3 61-61 61h-529c-51.8 0-80.1-60.2-47.1-99.9z"/><path class="st9" d="M291.7 577.6c64.7-78.1 150.6-181.9 193.5-233.7 16.1-19.4 42.4-26.9 66.3-19l119.6 39.9c23.1 7.6 48.7.9 64.9-17.3l86.1-96.8c37.3-42 106.7-15.6 106.7 40.5v325.5c0 33.8-27.3 61-61 61h-529c-51.8-.2-80.1-60.4-47.1-100.1z"/><path class="st9" d="M300.3 579.7C365 501.5 451 397.8 493.8 346c16.1-19.4 42.4-26.9 66.3-19l119.6 39.9c23.1 7.6 48.7.9 64.9-17.3l86.1-96.8c37.3-42 106.7-15.6 106.7 40.5v325.5c0 33.8-27.3 61-61 61h-529c-51.6-.3-80-60.3-47.1-100.1z"/><path class="st9" d="M309 581.8c64.7-78.1 150.6-181.9 193.5-233.7 16.1-19.4 42.4-26.9 66.3-19L688.4 369c23.1 7.6 48.7.9 64.9-17.3l86.1-96.8c37.3-42 106.7-15.6 106.7 40.5v325.5c0 33.8-27.3 61-61 61h-529c-51.7-.2-80.1-60.2-47.1-100.1z"/><path class="st9" d="M317.8 584.1c64.7-78.1 150.5-181.9 193.4-233.7 16.1-19.4 42.4-26.9 66.3-19l119.6 39.9c23.1 7.6 48.7.9 64.9-17.3l86.1-96.8c37.3-42 106.7-15.6 106.7 40.5V623c0 33.8-27.3 61-61 61H364.6c-51.5 0-79.8-60.1-46.8-99.9z"/><path class="st9" d="M325.3 587.4c64.7-78.1 150.6-181.9 193.5-233.7 16.1-19.4 42.4-26.9 66.3-19l119.6 39.9c23.1 7.6 48.7.9 64.9-17.3l86.1-96.8c37.3-42 106.7-15.6 106.7 40.5v325.5c0 33.8-27.3 61-61 61H372.3c-51.6-.2-79.8-60.4-47-100.1z"/><path class="st9" d="M332.9 590.6c64.7-78.1 150.6-181.9 193.5-233.5 16.1-19.4 42.4-26.9 66.3-19L712.3 378c23.1 7.6 48.7.9 64.9-17.3l86.1-96.8c37.3-42 106.7-15.6 106.7 40.5v325.5c0 33.8-27.3 61-61 61H380c-51.6-.4-79.9-60.5-47.1-100.3z"/><path class="st9" d="M340.6 593.8c64.7-78.1 150.6-181.9 193.5-233.7 16.1-19.4 42.4-26.9 66.3-19L720 381c23.1 7.6 48.7.9 64.9-17.3l86.1-96.8c37.3-42 106.7-15.6 106.7 40.5v325.5c0 33.8-27.3 61-61 61h-529c-51.7-.1-80.1-60.2-47.1-100.1z"/><path class="st9" d="M348.3 597.1C413 519 499 415.2 541.9 363.4c16.1-19.4 42.4-26.9 66.3-19l119.6 39.9c23.1 7.6 48.7.9 64.9-17.3l86.1-96.8c37.3-42 106.7-15.6 106.7 40.5v325.5c0 33.8-27.3 61-61 61H395.3c-51.6-.2-79.9-60.3-47-100.1z"/><path class="st9" d="M355.9 600.3c64.7-78.1 150.6-181.9 193.5-233.7 16.1-19.4 42.4-26.9 66.3-19l119.6 39.9c23.1 7.6 48.7.9 64.9-17.3l86.1-96.8c37.3-42 106.7-15.6 106.7 40.5v325.5c0 33.8-27.3 61-61 61H402.8c-51.5-.2-79.8-60.3-46.9-100.1z"/><path class="st9" d="M363.5 603.6c64.7-78.1 150.6-181.9 193.5-233.7 16.1-19.4 42.4-26.9 66.3-19l119.6 39.9c23.1 7.6 48.7.9 64.9-17.3l86.1-96.8c37.3-42 106.7-15.6 106.7 40.5v325.5c0 33.8-27.3 61-61 61h-529c-51.7-.2-79.9-60.3-47.1-100.1z"/><path class="st9" d="M371.1 606.9c64.7-78.1 150.6-181.9 193.5-233.7 16.1-19.4 42.4-26.9 66.3-19l119.6 39.9c23.1 7.6 48.7.9 64.9-17.3l86.1-96.8c37.3-42 106.7-15.6 106.7 40.5V646c0 33.8-27.3 61-61 61h-529c-51.5-.2-79.8-60.4-47.1-100.1z"/><path class="st9" d="M378.9 610.1c64.7-78.1 150.6-181.9 193.5-233.7 16.1-19.4 42.4-26.9 66.3-19l119.6 39.9c23.1 7.6 48.7.9 64.9-17.3l86.1-96.8c37.3-42 106.7-15.6 106.7 40.5v325.5c0 33.8-27.3 61-61 61H425.9c-51.7-.2-80-60.3-47-100.1z"/><path class="st9" d="M386.5 613.4c64.7-78.1 150.6-181.9 193.5-233.7 16.1-19.4 42.4-26.9 66.3-19l119.6 39.9c23.1 7.6 48.7.9 64.9-17.3l86.1-96.8c37.3-42 106.7-15.6 106.7 40.5v325.5c0 33.8-27.3 61-61 61h-529c-51.7-.2-80-60.3-47.1-100.1z"/><path class="st9" d="M394.1 616.6c64.7-78.1 150.6-181.9 193.5-233.7 16.1-19.4 42.4-26.9 66.3-19l119.6 39.9c23.1 7.6 48.7.9 64.9-17.3l86.1-96.8c37.3-42 106.7-15.6 106.7 40.5v325.5c0 33.8-27.3 61-61 61h-529c-51.6-.2-80-60.3-47.1-100.1z"/><path class="st9" d="M401.8 619.8c64.7-78.1 150.6-181.9 193.5-233.7 16.1-19.4 42.4-26.9 66.3-19L781.2 407c23.1 7.6 48.7.9 64.9-17.3l86.1-96.8c37.3-42 106.7-15.6 106.7 40.5v325.5c0 33.8-27.3 61-61 61H448.8c-51.5-.2-79.8-60.2-47-100.1z"/><path class="st9" d="M409.5 623.1C474.1 545 560.1 441.2 603 389.4c16.1-19.4 42.4-26.9 66.3-19l119.6 39.9c23.1 7.6 48.7.9 64.9-17.3l86.1-96.8c37.3-42 106.7-15.6 106.7 40.5V662c0 33.8-27.3 61-61 61H456.4c-51.5 0-79.8-60.1-46.9-99.9z"/><path class="st9" d="M417.1 626.4c64.5-78.1 150.6-181.9 193.4-233.7 16.1-19.4 42.4-26.9 66.3-19l119.6 39.9c23.1 7.6 48.7.9 64.9-17.3l86.1-96.8c37.3-42 106.7-15.6 106.7 40.5v325.5c0 33.8-27.3 61-61 61H464.2c-51.8-.2-80.1-60.4-47.1-100.1z"/><path class="st9" d="M424.7 629.6c64.7-78.1 150.6-181.9 193.5-233.7 16.1-19.4 42.4-26.9 66.3-19l119.6 39.9c23.1 7.6 48.7.9 64.9-17.3l86.1-96.8c37.3-42 106.7-15.6 106.7 40.5v325.5c0 33.8-27.3 61-61 61H471.7c-51.5-.2-79.9-60.3-47-100.1z"/></g><g><path class="st9" d="m-214.2 533.3 460.4-168.8c21.7-7.9 37.4-27.1 40.9-49.8l18.6-118.8c3.3-21.3 17.4-39.6 37.2-48.3l184.4-81.4c62.5-27.6 43.6-120.8-24.8-121.8l-845.8-12.3c-41.1-.5-72.1 37.5-62.9 77.7l108.2 478c8.4 37.3 47.8 58.8 83.8 45.5z"/><path class="st9" d="m-214.2 523.2 460.4-168.9c21.7-7.9 37.4-27.1 40.9-49.8l18.6-118.8c3.3-21.3 17.4-39.6 37.2-48.3L527.2 56c62.5-27.6 43.6-120.8-24.8-121.8l-845.8-12.3c-41.1-.5-72.1 37.5-62.9 77.7l108.3 478c8.4 37.3 47.8 58.8 83.8 45.6z"/><path class="st9" d="m-214.2 513.1 460.4-168.9c21.7-7.9 37.4-27.1 40.9-49.8l18.6-118.9c3.3-21.3 17.4-39.6 37.2-48.3l184.4-81.4C589.7 18.2 570.8-75 502.5-76l-845.8-12.3c-41.1-.5-72.1 37.5-62.9 77.7l108.2 478c8.4 37.4 47.8 58.9 83.8 45.7z"/><path class="st9" d="m-214.2 503 460.4-168.9c21.7-7.9 37.4-27.1 40.9-49.8l18.6-118.9c3.3-21.3 17.4-39.6 37.2-48.3l184.4-81.4c62.5-27.6 43.5-120.8-24.8-121.8l-845.8-12.4c-41.1-.5-72.1 37.5-62.9 77.7l108.2 478c8.4 37.5 47.8 59 83.8 45.8z"/><path class="st9" d="m-214.2 492.7 460.4-168.8c21.7-7.9 37.4-27.1 40.9-49.8l18.6-118.8c3.3-21.3 17.4-39.6 37.2-48.3l184.4-81.4C589.8-2 570.9-95.3 502.5-96.3l-845.8-12.3c-41.1-.5-72.1 37.5-62.9 77.7l108.2 478c8.4 37.4 47.9 58.8 83.8 45.6z"/><path class="st9" d="m-214.2 482.6 460.4-168.9c21.7-7.9 37.4-27.1 40.9-49.8L305.7 145c3.3-21.3 17.4-39.6 37.2-48.3l184.4-81.4c62.5-27.6 43.6-120.8-24.8-121.8l-845.8-12.3c-41.1-.6-72.1 37.5-62.9 77.7L-298 437c8.4 37.4 47.9 58.8 83.8 45.6z"/><path class="st9" d="m-214.2 472.5 460.4-168.9c21.7-7.9 37.4-27.1 40.9-49.8l18.6-118.9c3.3-21.3 17.4-39.6 37.2-48.3L527.2 5.2c62.5-27.6 43.6-120.8-24.8-121.8L-343.3-129c-41.1-.6-72.1 37.5-62.9 77.7l108.2 478c8.4 37.5 47.9 59 83.8 45.8z"/><path class="st9" d="m-214.2 462.2 460.4-168.9c21.7-7.9 37.4-27.1 40.9-49.8l18.6-118.8c3.3-21.3 17.4-39.6 37.2-48.3L527.2-4.9c62.5-27.6 43.6-120.8-24.8-121.9l-845.8-12.3c-41.1-.6-72.1 37.5-62.9 77.7l108.3 478c8.4 37.4 47.9 58.9 83.8 45.6z"/><path class="st9" d="m-214.2 452.1 460.4-168.8c21.7-7.9 37.4-27.1 40.9-49.8l18.6-118.9c3.3-21.3 17.4-39.6 37.2-48.3l184.4-81.4c62.5-27.6 43.6-120.8-24.8-121.8l-845.8-12.3c-41.1-.6-72.1 37.5-62.9 77.7l108.2 478c8.5 37.4 47.9 58.8 83.8 45.6z"/><path class="st9" d="m-214.1 442 460.4-168.9c21.7-7.9 37.4-27.1 40.9-49.8l18.6-118.9c3.3-21.3 17.4-39.6 37.2-48.3l184.4-81.4c62.5-27.6 43.6-120.8-24.7-121.8l-845.9-12.4c-41.1-.6-72.1 37.5-62.9 77.7l108.1 478c8.5 37.6 47.9 59 83.9 45.8z"/><path class="st9" d="m-214.1 431.8 460.4-168.9c21.7-7.9 37.4-27.1 40.9-49.8l18.6-118.8C309.1 73 323.2 54.7 343 46l184.4-81.4c62.4-27.6 43.5-120.8-24.7-121.8l-845.9-12.4c-41.1-.6-72.1 37.5-62.9 77.7l108.1 478c8.5 37.4 47.9 58.9 83.9 45.7z"/><path class="st9" d="m-214.1 421.7 460.4-168.8c21.7-7.9 37.4-27.1 40.9-49.8l18.6-118.9c3.3-21.3 17.4-39.6 37.2-48.3l184.4-81.4c62.4-27.5 43.5-120.8-24.7-121.8l-845.9-12.3c-41.1-.6-72.1 37.5-62.9 77.7L-298 376c8.5 37.4 47.9 58.9 83.9 45.7z"/><path class="st9" d="m-214.1 411.5 460.4-168.9c21.7-7.9 37.4-27.1 40.9-49.8l18.6-118.9c3.3-21.3 17.4-39.6 37.2-48.3l184.4-81.4c62.5-27.6 43.5-120.8-24.7-121.8l-845.8-12.3c-41.1-.6-72 37.5-62.9 77.7l108.2 478.1c8.3 37.4 47.7 58.8 83.7 45.6z"/></g></g></g></g></svg>