<svg xmlns="http://www.w3.org/2000/svg" xmlns:xlink="http://www.w3.org/1999/xlink" viewBox="0 0 550 495" style="enable-background:new 0 0 550 495" xml:space="preserve"><style>.st0{opacity:.3}.st1{fill:none;stroke:#fff;stroke-width:.25;stroke-miterlimit:10}.st3{fill:#fff}.st5{opacity:.3;enable-background:new}.st8{fill:none;stroke:#fff;stroke-miterlimit:10}</style><g class="st0" id="Layer_3"><path class="st1" d="M0 0h55v55H0zM55 0h55v55H55zM110 0h55v55h-55zM165 0h55v55h-55zM220 0h55v55h-55zM275 0h55v55h-55zM330 0h55v55h-55zM385 0h55v55h-55zM440 0h55v55h-55zM495 0h55v55h-55z"/><g><path class="st1" d="M0 55h55v55H0zM55 55h55v55H55zM110 55h55v55h-55zM165 55h55v55h-55zM220 55h55v55h-55zM275 55h55v55h-55zM330 55h55v55h-55zM385 55h55v55h-55zM440 55h55v55h-55zM495 55h55v55h-55z"/></g><g><path class="st1" d="M0 110h55v55H0zM55 110h55v55H55zM110 110h55v55h-55zM165 110h55v55h-55zM220 110h55v55h-55zM275 110h55v55h-55zM330 110h55v55h-55zM385 110h55v55h-55zM440 110h55v55h-55zM495 110h55v55h-55z"/></g><g><path class="st1" d="M0 165h55v55H0zM55 165h55v55H55zM110 165h55v55h-55zM165 165h55v55h-55zM220 165h55v55h-55zM275 165h55v55h-55zM330 165h55v55h-55zM385 165h55v55h-55zM440 165h55v55h-55zM495 165h55v55h-55z"/></g><g><path class="st1" d="M0 220h55v55H0zM55 220h55v55H55zM110 220h55v55h-55zM165 220h55v55h-55zM220 220h55v55h-55zM275 220h55v55h-55zM330 220h55v55h-55zM385 220h55v55h-55zM440 220h55v55h-55zM495 220h55v55h-55z"/></g><g><path class="st1" d="M0 275h55v55H0zM55 275h55v55H55zM110 275h55v55h-55zM165 275h55v55h-55zM220 275h55v55h-55zM275 275h55v55h-55zM330 275h55v55h-55zM385 275h55v55h-55zM440 275h55v55h-55zM495 275h55v55h-55z"/></g><g><path class="st1" d="M0 330h55v55H0zM55 330h55v55H55zM110 330h55v55h-55zM165 330h55v55h-55zM220 330h55v55h-55zM275 330h55v55h-55zM330 330h55v55h-55zM385 330h55v55h-55zM440 330h55v55h-55zM495 330h55v55h-55z"/></g><g><path class="st1" d="M0 385h55v55H0zM55 385h55v55H55zM110 385h55v55h-55zM165 385h55v55h-55zM220 385h55v55h-55zM275 385h55v55h-55zM330 385h55v55h-55zM385 385h55v55h-55zM440 385h55v55h-55zM495 385h55v55h-55z"/></g><g><path class="st1" d="M0 440h55v55H0zM55 440h55v55H55zM110 440h55v55h-55zM165 440h55v55h-55zM220 440h55v55h-55zM275 440h55v55h-55zM330 440h55v55h-55zM385 440h55v55h-55zM440 440h55v55h-55zM495 440h55v55h-55z"/></g></g><g style="opacity:.2" id="Layer_4"><path class="st3" d="M54 50h2v10h-2z"/><path transform="rotate(90 55 55)" class="st3" d="M54 50h2v10h-2z"/><path class="st3" d="M109 50h2v10h-2z"/><path transform="rotate(90 110 55)" class="st3" d="M109 50h2v10h-2z"/><path class="st3" d="M164 50h2v10h-2z"/><path transform="rotate(90 165 55)" class="st3" d="M164 50h2v10h-2z"/><path class="st3" d="M219 50h2v10h-2z"/><path transform="rotate(90 220 55)" class="st3" d="M219 50h2v10h-2z"/><path class="st3" d="M274 50h2v10h-2z"/><path transform="rotate(90 275 55)" class="st3" d="M274 50h2v10h-2z"/><g><path class="st3" d="M329 50h2v10h-2z"/><path transform="rotate(90 330 55)" class="st3" d="M329 50h2v10h-2z"/></g><g><path class="st3" d="M384 50h2v10h-2z"/><path transform="rotate(90 385 55)" class="st3" d="M384 50h2v10h-2z"/></g><g><path class="st3" d="M439 50h2v10h-2z"/><path transform="rotate(90 440 55)" class="st3" d="M439 50h2v10h-2z"/></g><g><path class="st3" d="M494 50h2v10h-2z"/><path transform="rotate(90 495 55)" class="st3" d="M494 50h2v10h-2z"/></g><g><path class="st3" d="M54 105h2v10h-2z"/><path transform="rotate(90 55 110)" class="st3" d="M54 105h2v10h-2z"/><path class="st3" d="M109 105h2v10h-2z"/><path transform="rotate(90 110 110)" class="st3" d="M109 105h2v10h-2z"/><path class="st3" d="M164 105h2v10h-2z"/><path transform="rotate(90 165 110)" class="st3" d="M164 105h2v10h-2z"/><path class="st3" d="M219 105h2v10h-2z"/><path transform="rotate(90 220 110)" class="st3" d="M219 105h2v10h-2z"/><path class="st3" d="M274 105h2v10h-2z"/><path transform="rotate(90 275 110)" class="st3" d="M274 105h2v10h-2z"/><g><path class="st3" d="M329 105h2v10h-2z"/><path transform="rotate(90 330 110)" class="st3" d="M329 105h2v10h-2z"/></g><g><path class="st3" d="M384 105h2v10h-2z"/><path transform="rotate(90 385 110)" class="st3" d="M384 105h2v10h-2z"/></g><g><path class="st3" d="M439 105h2v10h-2z"/><path transform="rotate(90 440 110)" class="st3" d="M439 105h2v10h-2z"/></g><g><path class="st3" d="M494 105h2v10h-2z"/><path transform="rotate(90 495 110)" class="st3" d="M494 105h2v10h-2z"/></g></g><g><path class="st3" d="M54 160h2v10h-2z"/><path transform="rotate(90 55 165)" class="st3" d="M54 160h2v10h-2z"/><path class="st3" d="M109 160h2v10h-2z"/><path transform="rotate(90 110 165)" class="st3" d="M109 160h2v10h-2z"/><path class="st3" d="M164 160h2v10h-2z"/><path transform="rotate(90 165 165)" class="st3" d="M164 160h2v10h-2z"/><path class="st3" d="M219 160h2v10h-2z"/><path transform="rotate(90 220 165)" class="st3" d="M219 160h2v10h-2z"/><path class="st3" d="M274 160h2v10h-2z"/><path transform="rotate(90 275 165)" class="st3" d="M274 160h2v10h-2z"/><g><path class="st3" d="M329 160h2v10h-2z"/><path transform="rotate(90 330 165)" class="st3" d="M329 160h2v10h-2z"/></g><g><path class="st3" d="M384 160h2v10h-2z"/><path transform="rotate(90 385 165)" class="st3" d="M384 160h2v10h-2z"/></g><g><path class="st3" d="M439 160h2v10h-2z"/><path transform="rotate(90 440 165)" class="st3" d="M439 160h2v10h-2z"/></g><g><path class="st3" d="M494 160h2v10h-2z"/><path transform="rotate(90 495 165)" class="st3" d="M494 160h2v10h-2z"/></g></g><g><path class="st3" d="M54 215h2v10h-2z"/><path transform="rotate(90 55 220)" class="st3" d="M54 215h2v10h-2z"/><path class="st3" d="M109 215h2v10h-2z"/><path transform="rotate(90 110 220)" class="st3" d="M109 215h2v10h-2z"/><path class="st3" d="M164 215h2v10h-2z"/><path transform="rotate(90 165 220)" class="st3" d="M164 215h2v10h-2z"/><path class="st3" d="M219 215h2v10h-2z"/><path transform="rotate(90 220 220)" class="st3" d="M219 215h2v10h-2z"/><path class="st3" d="M274 215h2v10h-2z"/><path transform="rotate(90 275 220)" class="st3" d="M274 215h2v10h-2z"/><g><path class="st3" d="M329 215h2v10h-2z"/><path transform="rotate(90 330 220)" class="st3" d="M329 215h2v10h-2z"/></g><g><path class="st3" d="M384 215h2v10h-2z"/><path transform="rotate(90 385 220)" class="st3" d="M384 215h2v10h-2z"/></g><g><path class="st3" d="M439 215h2v10h-2z"/><path transform="rotate(90 440 220)" class="st3" d="M439 215h2v10h-2z"/></g><g><path class="st3" d="M494 215h2v10h-2z"/><path transform="rotate(90 495 220)" class="st3" d="M494 215h2v10h-2z"/></g></g><g><path class="st3" d="M54 270h2v10h-2z"/><path transform="rotate(90 55 275)" class="st3" d="M54 270h2v10h-2z"/><path class="st3" d="M109 270h2v10h-2z"/><path transform="rotate(90 110 275)" class="st3" d="M109 270h2v10h-2z"/><path class="st3" d="M164 270h2v10h-2z"/><path transform="rotate(90 165 275)" class="st3" d="M164 270h2v10h-2z"/><path class="st3" d="M219 270h2v10h-2z"/><path transform="rotate(90 220 275)" class="st3" d="M219 270h2v10h-2z"/><path class="st3" d="M274 270h2v10h-2z"/><path transform="rotate(90 275 275)" class="st3" d="M274 270h2v10h-2z"/><g><path class="st3" d="M329 270h2v10h-2z"/><path transform="rotate(90 330 275)" class="st3" d="M329 270h2v10h-2z"/></g><g><path class="st3" d="M384 270h2v10h-2z"/><path transform="rotate(90 385 275)" class="st3" d="M384 270h2v10h-2z"/></g><g><path class="st3" d="M439 270h2v10h-2z"/><path transform="rotate(90 440 275)" class="st3" d="M439 270h2v10h-2z"/></g><g><path class="st3" d="M494 270h2v10h-2z"/><path transform="rotate(90 495 275)" class="st3" d="M494 270h2v10h-2z"/></g></g><g><path class="st3" d="M54 325h2v10h-2z"/><path transform="rotate(90 55 330)" class="st3" d="M54 325h2v10h-2z"/><path class="st3" d="M109 325h2v10h-2z"/><path transform="rotate(90 110 330)" class="st3" d="M109 325h2v10h-2z"/><path class="st3" d="M164 325h2v10h-2z"/><path transform="rotate(90 165 330)" class="st3" d="M164 325h2v10h-2z"/><path class="st3" d="M219 325h2v10h-2z"/><path transform="rotate(90 220 330)" class="st3" d="M219 325h2v10h-2z"/><path class="st3" d="M274 325h2v10h-2z"/><path transform="rotate(90 275 330)" class="st3" d="M274 325h2v10h-2z"/><g><path class="st3" d="M329 325h2v10h-2z"/><path transform="rotate(90 330 330)" class="st3" d="M329 325h2v10h-2z"/></g><g><path class="st3" d="M384 325h2v10h-2z"/><path transform="rotate(90 385 330)" class="st3" d="M384 325h2v10h-2z"/></g><g><path class="st3" d="M439 325h2v10h-2z"/><path transform="rotate(90 440 330)" class="st3" d="M439 325h2v10h-2z"/></g><g><path class="st3" d="M494 325h2v10h-2z"/><path transform="rotate(90 495 330)" class="st3" d="M494 325h2v10h-2z"/></g></g><g><path class="st3" d="M54 380h2v10h-2z"/><path transform="rotate(90 55 385)" class="st3" d="M54 380h2v10h-2z"/><path class="st3" d="M109 380h2v10h-2z"/><path transform="rotate(90 110 385)" class="st3" d="M109 380h2v10h-2z"/><path class="st3" d="M164 380h2v10h-2z"/><path transform="rotate(90 165 385)" class="st3" d="M164 380h2v10h-2z"/><path class="st3" d="M219 380h2v10h-2z"/><path transform="rotate(90 220 385)" class="st3" d="M219 380h2v10h-2z"/><path class="st3" d="M274 380h2v10h-2z"/><path transform="rotate(90 275 385)" class="st3" d="M274 380h2v10h-2z"/><g><path class="st3" d="M329 380h2v10h-2z"/><path transform="rotate(90 330 385)" class="st3" d="M329 380h2v10h-2z"/></g><g><path class="st3" d="M384 380h2v10h-2z"/><path transform="rotate(90 385 385)" class="st3" d="M384 380h2v10h-2z"/></g><g><path class="st3" d="M439 380h2v10h-2z"/><path transform="rotate(90 440 385)" class="st3" d="M439 380h2v10h-2z"/></g><g><path class="st3" d="M494 380h2v10h-2z"/><path transform="rotate(90 495 385)" class="st3" d="M494 380h2v10h-2z"/></g></g><g><path class="st3" d="M54 435h2v10h-2z"/><path transform="rotate(90 55 440)" class="st3" d="M54 435h2v10h-2z"/><path class="st3" d="M109 435h2v10h-2z"/><path transform="rotate(90 110 440)" class="st3" d="M109 435h2v10h-2z"/><path class="st3" d="M164 435h2v10h-2z"/><path transform="rotate(90 165 440)" class="st3" d="M164 435h2v10h-2z"/><path class="st3" d="M219 435h2v10h-2z"/><path transform="rotate(90 220 440)" class="st3" d="M219 435h2v10h-2z"/><path class="st3" d="M274 435h2v10h-2z"/><path transform="rotate(90 275 440)" class="st3" d="M274 435h2v10h-2z"/><g><path class="st3" d="M329 435h2v10h-2z"/><path transform="rotate(90 330 440)" class="st3" d="M329 435h2v10h-2z"/></g><g><path class="st3" d="M384 435h2v10h-2z"/><path transform="rotate(90 385 440)" class="st3" d="M384 435h2v10h-2z"/></g><g><path class="st3" d="M439 435h2v10h-2z"/><path transform="rotate(90 440 440)" class="st3" d="M439 435h2v10h-2z"/></g><g><path class="st3" d="M494 435h2v10h-2z"/><path transform="rotate(90 495 440)" class="st3" d="M494 435h2v10h-2z"/></g></g></g><g id="OBJECTS"><defs><path id="SVGID_1_" d="M0-2.5h750v500H0z"/></defs><clipPath id="SVGID_2_"><use xlink:href="#SVGID_1_" style="overflow:visible"/></clipPath><g style="clip-path:url(#SVGID_2_)"><g class="st5"><defs><path id="SVGID_3_" class="st5" d="m595.6 252 2.3-235.2c.2-24.3-29.2-36.6-46.3-19.2l-226.7 231c-16.6 16.9-4.9 45.5 18.7 45.9l224.4 4.2c15.1.3 27.5-11.7 27.6-26.7z"/></defs><clipPath id="SVGID_4_"><use xlink:href="#SVGID_3_" style="overflow:visible"/></clipPath><g style="clip-path:url(#SVGID_4_)"><path transform="rotate(-22.691 419.893 51.563)" class="st3" d="M214.1 47.8h411.5v7.6H214.1z"/><path transform="rotate(-22.691 428.105 71.271)" class="st3" d="M222.4 67.5h411.5v7.6H222.4z"/><path transform="rotate(-22.691 436.278 90.77)" class="st3" d="M230.5 87H642v7.6H230.5z"/><path transform="rotate(-22.691 444.49 110.36)" class="st3" d="M238.7 106.6h411.5v7.6H238.7z"/><path transform="rotate(-22.691 452.702 130.07)" class="st3" d="M246.9 126.3h411.5v7.6H246.9z"/><path transform="rotate(-22.691 460.875 149.568)" class="st3" d="M255.1 145.8h411.5v7.6H255.1z"/><path transform="rotate(-22.691 469.087 169.277)" class="st3" d="M263.3 165.5h411.5v7.6H263.3z"/><path transform="rotate(-22.691 477.298 188.867)" class="st3" d="M271.5 185.1H683v7.6H271.5z"/><path transform="rotate(-22.691 485.51 208.576)" class="st3" d="M279.8 204.8h411.5v7.6H279.8z"/><path transform="rotate(-22.691 493.683 228.074)" class="st3" d="M287.9 224.3h411.5v7.6H287.9z"/><path transform="rotate(-22.691 501.895 247.665)" class="st3" d="M296.1 243.9h411.5v7.6H296.1z"/><path transform="rotate(-22.691 510.107 267.374)" class="st3" d="M304.3 263.6h411.5v7.6H304.3z"/><path transform="rotate(-22.691 518.28 286.872)" class="st3" d="M312.5 283.1H724v7.6H312.5z"/></g></g><g class="st5"><defs><path id="SVGID_5_" class="st5" d="m171.5 583.7 79.8-184.3c8.2-19.1-10.9-38.4-30.1-30.4L-33.6 475.7c-18.7 7.8-18.9 34.1-.5 42.3L141 595.6c11.7 5.1 25.4-.2 30.5-11.9z"/></defs><clipPath id="SVGID_6_"><use xlink:href="#SVGID_5_" style="overflow:visible"/></clipPath><g style="clip-path:url(#SVGID_6_)"><path transform="rotate(-89.871 99.563 367.845)" class="st3" d="M96.3 192.2h6.5v351.2h-6.5z"/><path transform="rotate(-89.871 99.518 385.918)" class="st3" d="M96.3 210.3h6.5v351.2h-6.5z"/><path transform="rotate(-89.871 99.473 404.091)" class="st3" d="M96.2 228.5h6.5v351.2h-6.5z"/><path transform="rotate(-89.871 99.428 422.265)" class="st3" d="M96.2 246.7h6.5v351.2h-6.5z"/><path transform="rotate(-89.871 99.383 440.338)" class="st3" d="M96.1 264.7h6.5v351.2h-6.5z"/><path transform="rotate(-89.871 99.337 458.611)" class="st3" d="M96.1 283h6.5v351.2h-6.5z"/><path transform="rotate(-89.871 99.293 476.684)" class="st3" d="M96 301.1h6.5v351.2H96z"/><path transform="rotate(-89.871 99.248 494.758)" class="st3" d="M96 319.2h6.5v351.2H96z"/><path transform="rotate(-89.871 99.202 513.03)" class="st3" d="M96 337.4h6.5v351.2H96z"/><path transform="rotate(-89.871 99.157 531.104)" class="st3" d="M95.9 355.5h6.5v351.2h-6.5z"/><path transform="rotate(-89.871 99.112 549.177)" class="st3" d="M95.9 373.6h6.5v351.2h-6.5z"/><path transform="rotate(-89.871 99.067 567.45)" class="st3" d="M95.8 391.9h6.5v351.2h-6.5z"/><path transform="rotate(-89.871 99.022 585.524)" class="st3" d="M95.8 409.9h6.5v351.2h-6.5z"/></g></g><g class="st0"><path class="st8" d="M192.7 532.8c56.7-68.5 132.1-159.5 169.7-204.9 14.1-17 37.2-23.6 58.1-16.7l104.9 35c20.3 6.7 42.7.8 56.9-15.2l75.5-84.9c32.7-36.8 93.6-13.7 93.6 35.5v285.3c0 29.6-23.9 53.5-53.5 53.5H234c-45.3 0-70.1-52.7-41.3-87.6z"/><path class="st8" d="M200.3 534.8C257 466.2 332.4 375.2 370 329.9c14.1-17 37.2-23.6 58.1-16.7l104.9 35c20.3 6.7 42.7.8 56.9-15.2l75.5-84.9c32.7-36.8 93.6-13.7 93.6 35.5V569c0 29.6-23.9 53.5-53.5 53.5H241.6c-45.3-.1-70.1-52.9-41.3-87.7z"/><path class="st8" d="M207.9 536.6c56.7-68.5 132.1-159.5 169.7-204.9 14.1-17 37.2-23.6 58.1-16.7l104.9 35c20.3 6.7 42.7.8 56.9-15.2l75.5-84.9c32.7-36.8 93.6-13.7 93.6 35.5v285.4c0 29.6-23.9 53.5-53.5 53.5H249.2c-45.2-.1-70.1-52.8-41.3-87.7z"/><path class="st8" d="M215.5 538.6c56.7-68.5 132.1-159.5 169.7-204.9 14.1-17 37.2-23.6 58.1-16.7l104.9 35c20.3 6.7 42.7.8 56.9-15.2l75.5-84.9c32.7-36.8 93.6-13.7 93.6 35.5v285.4c0 29.6-23.9 53.5-53.5 53.5H256.8c-45.3-.1-70.2-52.8-41.3-87.7z"/><path class="st8" d="M223.2 540.5C279.9 472 355.3 381 392.9 335.6c14.1-17 37.2-23.6 58.1-16.7l104.9 35c20.3 6.7 42.7.8 56.9-15.2l75.5-84.9c32.7-36.8 93.6-13.7 93.6 35.5v285.3c0 29.6-23.9 53.5-53.5 53.5h-464c-45.3 0-70.2-52.7-41.2-87.6z"/><path class="st8" d="M230.8 542.5C287.5 474 362.9 383 400.5 337.6c14.1-17 37.2-23.6 58.1-16.7l104.9 35c20.3 6.7 42.7.8 56.9-15.2l75.5-84.9c32.7-36.8 93.6-13.7 93.6 35.5v285.4c0 29.6-23.9 53.5-53.5 53.5H272c-45.3-.1-70.1-52.9-41.2-87.7z"/><path class="st8" d="M238.4 544.4c56.7-68.5 132.1-159.5 169.7-204.9 14.1-17 37.2-23.6 58.1-16.7l104.9 35c20.3 6.7 42.7.8 56.9-15.2l75.5-84.9c32.7-36.8 93.6-13.7 93.6 35.5v285.4c0 29.6-23.9 53.5-53.5 53.5h-464c-45.3-.1-70.1-52.9-41.2-87.7z"/><path class="st8" d="M246 546.2c56.7-68.5 132.1-159.5 169.7-204.9 14.1-17 37.2-23.6 58.1-16.7l104.9 35c20.3 6.7 42.7.8 56.9-15.2l75.5-84.9c32.7-36.8 93.6-13.7 93.6 35.5v285.4c0 29.6-23.9 53.5-53.5 53.5h-464c-45.3-.1-70.1-52.7-41.2-87.7z"/><path class="st8" d="M253.6 548.2c56.7-68.5 132.1-159.5 169.7-204.9 14.1-17 37.2-23.6 58.1-16.7l104.9 35c20.3 6.7 42.7.8 56.9-15.2l75.5-84.9c32.7-36.8 93.6-13.7 93.6 35.5v285.3c0 29.6-23.9 53.5-53.5 53.5h-464c-45.3 0-70.1-52.7-41.2-87.6z"/><path class="st8" d="M260.2 551.1c56.7-68.5 132.1-159.5 169.7-204.9 14.1-17 37.2-23.6 58.1-16.7l105 35c20.3 6.7 42.7.8 56.9-15.2l75.5-84.9c32.7-36.8 93.6-13.7 93.6 35.5v285.4c0 29.6-23.9 53.5-53.5 53.5h-464c-45.3-.1-70.1-52.9-41.3-87.7z"/><path class="st8" d="M266.9 554c56.7-68.5 132.1-159.5 169.7-204.9 14.1-17 37.2-23.6 58.1-16.7l104.9 35c20.3 6.7 42.7.8 56.9-15.2l75.5-84.9c32.7-36.8 93.6-13.7 93.6 35.5v285.4c0 29.6-23.9 53.5-53.5 53.5H308.2c-45.2-.1-70-52.9-41.3-87.7z"/><path class="st8" d="M273.7 556.7c56.7-68.5 132.1-159.5 169.7-204.9 14.1-17 37.2-23.6 58.1-16.7l104.9 35c20.3 6.7 42.7.8 56.9-15.2l75.5-84.9c32.7-36.8 93.6-13.7 93.6 35.5v285.4c0 29.6-23.9 53.5-53.5 53.5h-464c-45.3 0-70.1-52.7-41.2-87.7z"/><path class="st8" d="M280.4 559.6c56.7-68.5 132.1-159.5 169.7-204.9 14.1-17 37.2-23.6 58.1-16.7l104.9 35c20.3 6.7 42.7.8 56.9-15.2l75.5-84.9c32.7-36.8 93.6-13.7 93.6 35.5v285.4c0 29.6-23.9 53.5-53.5 53.5H321.7c-45.4-.1-70.2-52.7-41.3-87.7z"/><path class="st8" d="M287 562.5C343.7 494 419.1 403 456.7 357.6c14.1-17 37.2-23.6 58.1-16.7l104.9 35c20.3 6.7 42.7.8 56.9-15.2l75.5-84.9c32.7-36.8 93.6-13.7 93.6 35.5v285.4c0 29.6-23.9 53.5-53.5 53.5H328.3c-45.2-.2-70.1-52.9-41.3-87.7z"/><path class="st8" d="M293.8 565.3c56.7-68.5 132.1-159.5 169.7-204.9 14.1-17 37.2-23.6 58.1-16.7l104.9 35c20.3 6.7 42.7.8 56.9-15.2l75.5-84.9c32.7-36.8 93.6-13.7 93.6 35.5v285.4c0 29.6-23.9 53.5-53.5 53.5H335c-45.2-.1-70-52.8-41.2-87.7z"/><path class="st8" d="M300.5 568.2c56.7-68.5 132.1-159.5 169.7-204.9 14.1-17 37.2-23.6 58.1-16.7l104.9 35c20.3 6.7 42.7.8 56.9-15.2l75.5-84.9c32.7-36.8 93.6-13.7 93.6 35.5v285.4c0 29.6-23.9 53.5-53.5 53.5h-464c-45.2-.1-70-52.9-41.2-87.7z"/><path class="st8" d="M307.2 571.1c56.7-68.6 132.1-159.6 169.7-204.9 14.1-17 37.2-23.6 58.1-16.7l105 35c20.3 6.7 42.7.8 56.9-15.2l75.5-84.9c32.7-36.8 93.6-13.7 93.6 35.5v285.4c0 29.6-23.9 53.5-53.5 53.5h-464c-45.4-.1-70.2-52.9-41.3-87.7z"/><path class="st8" d="M313.9 573.9C370.6 505.4 446 414.4 483.6 369c14.1-17 37.2-23.6 58.1-16.7l104.9 35c20.3 6.7 42.7.8 56.9-15.2l75.5-84.9c32.7-36.8 93.6-13.7 93.6 35.5v285.4c0 29.6-23.9 53.5-53.5 53.5H355.2c-45.3-.1-70.2-52.8-41.3-87.7z"/><path class="st8" d="M320.6 576.7c56.7-68.5 132.1-159.5 169.7-204.9 14.1-17 37.2-23.6 58.1-16.7l104.9 35c20.3 6.7 42.7.8 56.9-15.2l75.5-84.9c32.7-36.8 93.6-13.7 93.6 35.5v285.4c0 29.6-23.9 53.5-53.5 53.5h-464c-45.2-.1-70-52.7-41.2-87.7z"/><path class="st8" d="M327.3 579.6C384 511 459.4 420 497 374.7c14.1-17 37.2-23.6 58.1-16.7L660 393c20.3 6.7 42.7.8 56.9-15.2l75.5-84.9c32.7-36.8 93.6-13.7 93.6 35.5v285.4c0 29.6-23.9 53.5-53.5 53.5H368.6c-45.3-.2-70.1-52.8-41.3-87.7z"/><path class="st8" d="M334 582.4c56.7-68.5 132.1-159.5 169.7-204.9 14.1-17 37.2-23.6 58.1-16.7l104.9 35c20.3 6.7 42.7.8 56.9-15.2l75.5-84.9c32.7-36.8 93.6-13.7 93.6 35.5v285.3c0 29.6-23.9 53.5-53.5 53.5H375.3c-45.2 0-70.1-52.7-41.3-87.6z"/><path class="st8" d="M340.8 585.3c56.6-68.5 132.1-159.5 169.6-204.9 14.1-17 37.2-23.6 58.1-16.7l104.9 35c20.3 6.7 42.7.8 56.9-15.2l75.5-84.9c32.7-36.8 93.6-13.7 93.6 35.5v285.4c0 29.6-23.9 53.5-53.5 53.5H382c-45.3-.1-70.1-52.9-41.2-87.7z"/><path class="st8" d="M347.5 588.2c56.7-68.5 132.1-159.5 169.7-204.9 14.1-17 37.2-23.6 58.1-16.7l104.9 35c20.3 6.7 42.7.8 56.9-15.2l75.5-84.9c32.7-36.8 93.6-13.7 93.6 35.5v285.4c0 29.6-23.9 53.5-53.5 53.5h-464c-45.3-.1-70.1-52.9-41.2-87.7z"/></g><g class="st0"><path class="st8" d="m-396.1 562.8 527-193.2c24.9-9 42.8-31 46.9-57.1l21.2-136c3.7-24.4 19.9-45.3 42.6-55.3L452.7 28c71.5-31.6 49.8-138.2-28.4-139.3l-968.2-14.1c-47.1-.7-82.5 42.9-72 88.9L-492 510.6c9.6 42.7 54.7 67.5 95.9 52.2z"/><path class="st8" d="m-396.1 551.2 527-193.2c24.9-9 42.8-31 46.9-57.1l21.2-136c3.7-24.4 19.9-45.3 42.6-55.3l211.1-93.2c71.5-31.6 49.8-138.2-28.4-139.3L-543.9-137c-47.1-.7-82.5 42.9-72 88.9L-492 499.1c9.6 42.7 54.7 67.2 95.9 52.1z"/><path class="st8" d="m-396.1 539.7 527-193.2c24.9-9 42.8-31 46.9-57.1L199 153.2c3.7-24.4 19.9-45.3 42.6-55.3l211-93.2c71.5-31.6 49.8-138.2-28.4-139.3L-544-148.7c-47.1-.7-82.5 42.9-72 88.9l124 547.2c9.6 42.8 54.7 67.3 95.9 52.3z"/><path class="st8" d="m-396.1 528 527-193.2c24.9-9 42.8-31 46.9-57.1L199 141.5c3.7-24.4 19.9-45.3 42.6-55.3l211-93.1c71.5-31.6 49.7-138.2-28.4-139.3L-544-160.4c-47.1-.7-82.5 42.9-72 88.9l124 547.2c9.6 42.9 54.7 67.5 95.9 52.3z"/><path class="st8" d="m-396.1 516.4 527-193.2c24.9-9 42.8-31 46.9-57.1L199 130c3.7-24.4 19.9-45.3 42.6-55.3l211.1-93.2c71.5-31.6 49.8-138.4-28.4-139.6l-968.2-14c-47.1-.7-82.5 42.9-72 88.9L-492 464.1c9.6 42.8 54.8 67.3 95.9 52.3z"/><path class="st8" d="m-396.1 504.8 527-193.2c24.9-9 42.8-31 46.9-57.1L199 118.3c3.7-24.4 19.9-45.3 42.6-55.3l211.1-93.2c71.5-31.6 49.8-138.2-28.4-139.3l-968.2-14.1c-47.1-.7-82.5 42.9-72 88.9L-492 452.6c9.6 42.7 54.8 67.3 95.9 52.2z"/><path class="st8" d="m-396.1 493.1 527-193.2c24.9-9 42.8-31 46.9-57.1L199 106.7c3.7-24.4 19.9-45.3 42.6-55.3l211.1-93c71.5-31.6 49.8-138.2-28.4-139.3l-968.2-14.2c-47.1-.7-82.5 42.9-72 88.9L-492 440.9c9.6 42.8 54.8 67.4 95.9 52.2z"/><path class="st8" d="m-396.1 481.5 527-193.2c24.9-9 42.8-31 46.9-57.1l21.2-136c3.7-24.4 19.9-45.3 42.6-55.3l211.1-93.2c71.5-31.6 49.8-138.2-28.4-139.6L-543.9-207c-47.1-.7-82.5 42.9-72 88.9L-492 429.1c9.6 42.9 54.8 67.5 95.9 52.4z"/><path class="st8" d="m-396.1 469.8 527-193.2c24.9-9 42.8-31 46.9-57.1L199 83.4c3.8-24.4 19.9-45.3 42.6-55.2l211-93.2c71.5-31.6 49.8-138.2-28.4-139.3L-544-218.4c-47.1-.7-82.5 42.9-72 88.9l124 547.2c9.7 42.8 54.8 67.3 95.9 52.1z"/><path class="st8" d="M-396 458.3 131 265c24.9-9 42.8-31 46.9-57.1l21.2-136.2c3.7-24.4 19.9-45.3 42.6-55.3l211.1-93.2c71.6-31.6 49.9-138.2-28.3-139.3l-968.4-14.2c-47.1-.7-82.5 42.9-72 88.9L-492 405.9c9.7 42.9 54.8 67.5 96 52.4z"/><path class="st8" d="m-396 446.6 527-193.3c24.9-9 42.8-31 46.9-57.1l21.2-136C203 35.8 219 14.9 241.7 4.9l211.1-93.2c71.4-31.6 49.7-138.2-28.4-139.3L-544-241.7c-47.1-.7-82.5 42.9-72 88.9l123.9 547.3c9.8 42.7 54.9 67.2 96.1 52.1z"/><path class="st8" d="m-396 435 527-193.2c24.9-9 42.8-31 46.9-57.1l21.2-136.2c3.7-24.4 19.9-45.3 42.6-55.3l211-93.2c71.4-31.5 49.7-138.2-28.4-139.3L-544-253.4c-47.1-.7-82.5 42.9-72 88.9l124 547.2c9.7 42.8 54.8 67.4 96 52.3z"/><path class="st8" d="m-396 423.4 527-193.3c24.9-9 42.8-31 46.9-57.1l21.2-136c3.7-24.4 19.9-45.3 42.6-55.3l211.1-93.2c71.5-31.6 49.7-138.2-28.4-139.3L-543.8-265c-47.1-.7-82.5 42.9-72 88.9l123.9 547.3c9.6 42.8 54.7 67.3 95.9 52.2z"/></g></g></g></svg>