<svg xmlns="http://www.w3.org/2000/svg" width="200" height="50"><path fill="#A3ABB0" d="M0 0h200v50H0z"/><text fill="#FFF" transform="translate(57.917 31.916)" font-family="'Arial'" font-size="20">Consulte-nos</text><path fill="#8C969C" d="M0 0h35.84v50H0z"/><path fill="#A3ABB0" d="M17.43 10.4c-7.88-.06-14.32 6.27-14.4 14.15-.06 7.88 6.28 14.33 14.16 14.4 7.87.06 14.3-6.27 14.38-14.15.06-7.88-6.27-14.33-14.15-14.4zm-.23 26.53c-6.76-.06-12.2-5.6-12.14-12.36s5.6-12.2 12.35-12.15c6.78.06 12.22 5.6 12.16 12.36-.06 6.76-5.6 12.2-12.36 12.15z"/><circle cx="17.308" cy="24.676" r="11.039" fill="#A3ABB0"/><path fill="#8C969C" d="M23.92 27.93l-3.36 3.35-3.25-3.25-3.25 3.25-3.35-3.35 3.25-3.25-3.25-3.26 3.35-3.36 3.26 3.26 3.26-3.26 3.36 3.36-3.26 3.26z"/></svg>