<!DOCTYPE svg PUBLIC "-//W3C//DTD SVG 1.1//EN" "http://www.w3.org/Graphics/SVG/1.1/DTD/svg11.dtd"><svg version="1.1" xmlns="http://www.w3.org/2000/svg" xmlns:xlink="http://www.w3.org/1999/xlink" x="0px" y="0px" width="2000px" height="2000px" viewBox="0 0 2000 2000" enable-background="new 0 0 2000 2000" xml:space="preserve"><g><path fill="#3D3E3E" d="M1469.756,1857.567c-13.514,13.514-13.514,32.433,0,45.946s32.433,13.514,45.946,0l381.081-383.784 c13.514-13.514,13.514-32.433,0-45.945c-13.514-13.514-32.432-13.514-45.945,0L1469.756,1857.567z M1850.838,1903.514 c13.513,13.514,32.432,13.514,45.945,0s13.514-32.433,0-45.946L1513,1476.486c-13.514-13.514-32.433-13.514-45.946,0 s-13.514,32.433,0,45.946L1850.838,1903.514L1850.838,1903.514z"/></g></svg>