<svg xmlns="http://www.w3.org/2000/svg" xmlns:xlink="http://www.w3.org/1999/xlink" x="0px" y="0px" width="24px" height="24px" viewBox="0 0 24 24" enable-background="new 0 0 24 24" xml:space="preserve"><g><g><g><g><path fill="#424242" d="M12,2.25c-5.574,0-10.094,4.52-10.094,10.094c0,5.575,4.52,10.094,10.094,10.094					c5.575,0,10.094-4.519,10.094-10.094C22.094,6.77,17.575,2.25,12,2.25z M12,21.092c-4.823,0-8.748-3.925-8.748-8.748					S7.177,3.596,12,3.596s8.748,3.925,8.748,8.748S16.823,21.092,12,21.092z"/><path fill="#424242" d="M15.726,7.667l-3.699,3.7l-3.319-3.7c-0.263-0.263-0.689-0.263-0.951,0					c-0.263,0.262-0.263,0.689,0,0.952l3.318,3.7l-3.75,3.751c-0.262,0.263-0.262,0.69,0,0.95c0.262,0.264,0.689,0.264,0.951,0					l3.701-3.697l3.318,3.697c0.261,0.264,0.688,0.264,0.95,0c0.263-0.26,0.263-0.688,0-0.95l-3.321-3.699l3.752-3.752					c0.263-0.263,0.263-0.689,0-0.952C16.413,7.404,15.988,7.404,15.726,7.667z"/></g></g></g></g></svg>