<svg xmlns="http://www.w3.org/2000/svg" width="200" height="45"><path fill="#9A9A99" d="M0 0h200v45H0z"/><path fill="#FFF" d="M25.84 28.12h-5.56v-9.65h5.56v1.67h-3.5v2.12h3.26v1.68h-3.27v2.5h3.5v1.68zm7.72-2.68c0 .87-.3 1.56-.94 2.06-.63.5-1.5.76-2.62.76-1.03 0-1.94-.2-2.73-.58v-1.9c.65.28 1.2.5 1.65.6a4.94 4.94 0 0 0 1.24.18c.45 0 .8-.08 1.03-.25.23-.17.35-.42.35-.76a.85.85 0 0 0-.16-.5 1.83 1.83 0 0 0-.47-.43c-.2-.13-.63-.35-1.26-.65-.6-.27-1.03-.54-1.32-.8a2.98 2.98 0 0 1-.7-.9c-.2-.33-.27-.72-.27-1.18 0-.85.3-1.52.87-2 .57-.5 1.37-.75 2.4-.75.5 0 .98.06 1.43.18.46.12.93.3 1.43.5l-.65 1.6a9.66 9.66 0 0 0-1.28-.45 4.15 4.15 0 0 0-1-.12c-.38 0-.67.1-.88.27a.9.9 0 0 0-.32.7c0 .2.04.35.12.48.1.13.22.26.4.4.2.12.62.34 1.3.67.9.43 1.52.86 1.86 1.3.33.43.5.96.5 1.6zm5.85-5.4c-.76 0-1.35.28-1.78.86S37 22.3 37 23.32c0 2.15.8 3.23 2.4 3.23.7 0 1.5-.17 2.48-.5v1.7c-.8.34-1.68.5-2.66.5-1.4 0-2.48-.42-3.22-1.27-.75-.86-1.12-2.08-1.12-3.67 0-1 .2-1.88.55-2.63.37-.76.9-1.34 1.58-1.74.7-.4 1.5-.6 2.4-.6.95 0 1.9.22 2.84.68l-.66 1.67c-.36-.17-.73-.32-1.1-.45a3.27 3.27 0 0 0-1.07-.2zm13.3 3.24c0 1.6-.4 2.83-1.2 3.7-.78.85-1.92 1.28-3.4 1.28s-2.62-.43-3.4-1.3c-.8-.85-1.2-2.08-1.2-3.7 0-1.6.4-2.83 1.2-3.67s1.93-1.28 3.4-1.28c1.5 0 2.63.42 3.4 1.28.8.85 1.2 2.08 1.2 3.68zm-7.05 0c0 1.08.2 1.9.6 2.44.42.55 1.03.82 1.85.82 1.63 0 2.45-1.1 2.45-3.26 0-2.17-.8-3.26-2.44-3.26-.8 0-1.42.27-1.83.82-.42.55-.62 1.36-.62 2.44zm9.05 4.84v-9.65h2.04v7.96h3.92v1.7H54.7zm15.55 0H68.2v-4.17h-3.8v4.17h-2.06v-9.65h2.05v3.78h3.8v-3.78h2.05v9.65zm8.35 0l-.7-2.3h-3.52l-.7 2.3h-2.2l3.4-9.7h2.5l3.43 9.7h-2.2zm-1.2-4a672.95 672.95 0 0 1-1.08-3.55 9.74 9.74 0 0 1-.17-.64c-.15.56-.57 1.95-1.25 4.18h2.5zm16.9-.84c0 1.6-.4 2.83-1.2 3.7-.78.85-1.9 1.28-3.4 1.28-1.47 0-2.6-.43-3.4-1.3-.8-.85-1.2-2.08-1.2-3.7 0-1.6.4-2.83 1.2-3.67.8-.86 1.93-1.28 3.42-1.28 1.48 0 2.62.42 3.4 1.28.8.85 1.18 2.08 1.18 3.68zm-7.04 0c0 1.08.2 1.9.6 2.44.42.55 1.03.82 1.85.82 1.64 0 2.46-1.1 2.46-3.26 0-2.17-.8-3.26-2.44-3.26-.82 0-1.43.27-1.84.82-.42.55-.62 1.36-.62 2.44zm15.72-1.8c0 1.04-.33 1.83-.98 2.38s-1.57.83-2.77.83h-.88v3.42H96.3v-9.65h3.1c1.16 0 2.05.25 2.66.75s.92 1.26.92 2.26zM98.35 23h.68c.63 0 1.1-.1 1.4-.36.33-.25.48-.6.48-1.1 0-.47-.12-.82-.38-1.05-.27-.24-.67-.35-1.23-.35h-.94V23zm10.55-2.97c-.77 0-1.37.3-1.8.87-.4.58-.62 1.4-.62 2.42 0 2.15.8 3.23 2.42 3.23.68 0 1.5-.17 2.47-.5v1.7c-.8.34-1.68.5-2.66.5-1.4 0-2.47-.42-3.2-1.27-.76-.86-1.13-2.08-1.13-3.67 0-1 .2-1.88.55-2.63.37-.76.9-1.34 1.58-1.74.68-.4 1.48-.6 2.4-.6.94 0 1.88.22 2.83.68l-.66 1.67c-.36-.17-.72-.32-1.1-.45s-.7-.2-1.07-.2zm1.02 9.74c0 .57-.17.98-.5 1.23s-.85.37-1.54.37c-.34 0-.67-.04-.97-.14v-1.1c.13.03.3.06.5.1.2.02.35.03.46.03.32 0 .48-.13.48-.4 0-.37-.37-.6-1.1-.72l.5-1.02h1.3l-.2.4c.34.1.6.28.8.5.18.22.28.47.28.75zm12.27-6.5c0 1.6-.4 2.84-1.2 3.7-.8.86-1.93 1.3-3.4 1.3-1.5 0-2.62-.44-3.42-1.3-.8-.86-1.2-2.1-1.2-3.7.02-1.6.4-2.84 1.2-3.68s1.94-1.28 3.42-1.28 2.62.42 3.4 1.28c.8.85 1.2 2.08 1.2 3.68zM116.5 17a.58.58 0 0 0-.38.17c-.13.12-.22.3-.28.54h-.98c.05-.63.23-1.13.55-1.5.32-.35.74-.53 1.26-.53.18 0 .36.03.53.1.16.08.34.16.5.24.18.1.34.18.5.25.17.07.33.1.48.1.14 0 .27-.06.4-.17.13-.12.22-.3.27-.53h1c-.06.64-.24 1.14-.57 1.5-.3.36-.73.54-1.24.54a1.38 1.38 0 0 1-.53-.12 7.52 7.52 0 0 1-.5-.23 9.7 9.7 0 0 0-.5-.24 1.17 1.17 0 0 0-.5-.1zm-1.36 6.28c0 1.08.2 1.9.6 2.44.42.55 1.03.82 1.85.82 1.62 0 2.44-1.1 2.44-3.26 0-2.17-.8-3.26-2.44-3.26-.8 0-1.43.27-1.84.82-.42.55-.62 1.36-.62 2.44zm14.6 4.84h-5.55v-9.65h5.55v1.67h-3.5v2.12h3.26v1.68h-3.26v2.5h3.5v1.68zm7.72-2.68c0 .87-.3 1.56-.94 2.06-.62.5-1.5.76-2.62.76-1.02 0-1.94-.2-2.73-.58v-1.9c.65.28 1.2.5 1.66.6a4.94 4.94 0 0 0 1.24.18c.44 0 .8-.08 1.03-.25s.36-.42.36-.76c0-.2-.06-.36-.16-.5s-.26-.3-.47-.43c-.2-.13-.62-.35-1.25-.65-.6-.27-1.03-.54-1.32-.8a2.98 2.98 0 0 1-.7-.9c-.2-.33-.28-.72-.28-1.18 0-.85.3-1.52.87-2 .58-.5 1.38-.75 2.4-.75.5 0 .98.06 1.44.18.45.12.92.3 1.42.5l-.66 1.6a9.62 9.62 0 0 0-1.28-.45 4.14 4.14 0 0 0-1-.12c-.38 0-.68.1-.88.27a.9.9 0 0 0-.3.7c0 .2.03.35.1.48.1.13.23.26.4.4.2.12.62.34 1.3.67.9.43 1.53.86 1.86 1.3.34.43.5.96.5 1.6zm11.18 2.68l-.7-2.3h-3.52l-.7 2.3h-2.2l3.4-9.7h2.5l3.43 9.7h-2.2zm-1.2-4c-.63-2.1-1-3.28-1.08-3.55a9.62 9.62 0 0 1-.18-.64c-.14.56-.56 1.95-1.25 4.18h2.52zm8.73-4.1c-.77 0-1.37.3-1.8.88-.42.58-.63 1.4-.63 2.42 0 2.15.8 3.23 2.43 3.23.68 0 1.5-.17 2.46-.5v1.7c-.8.34-1.68.5-2.65.5-1.4 0-2.48-.42-3.23-1.27-.74-.86-1.1-2.08-1.1-3.67-.02-1 .17-1.88.53-2.63a3.95 3.95 0 0 1 1.58-1.74c.68-.4 1.5-.6 2.4-.6.94 0 1.9.22 2.83.68l-.67 1.67c-.36-.17-.72-.32-1.1-.45s-.7-.2-1.06-.2zm4.5 8.1v-9.65h2.06v9.65h-2.05zm8.58 0l-2.32-7.57h-.06c.08 1.54.12 2.57.12 3.08v4.5h-1.84v-9.66h2.8l2.28 7.38h.04l2.42-7.38h2.8v9.65h-1.92v-4.57c0-.2 0-.46 0-.74.02-.27.04-1.02.1-2.24h-.06l-2.5 7.56h-1.87zm14.58 0l-.7-2.3h-3.52l-.7 2.3h-2.2l3.4-9.7h2.52l3.42 9.7h-2.2zm-1.2-4c-.63-2.1-1-3.28-1.08-3.55-.08-.27-.14-.5-.18-.64-.14.56-.56 1.95-1.25 4.18h2.52z"/></svg>