<svg xmlns="http://www.w3.org/2000/svg" width="200" height="45"><path fill="#9A9A99" d="M0 0h200v45H0z"/><path fill="#FFF" d="M20.38 20.03c-.77 0-1.36.3-1.8.87s-.62 1.4-.62 2.42c0 2.15.8 3.23 2.42 3.23.68 0 1.5-.17 2.47-.5v1.7c-.8.34-1.68.5-2.66.5-1.4 0-2.5-.42-3.23-1.27-.75-.86-1.12-2.08-1.12-3.67 0-1 .18-1.88.55-2.63.37-.76.9-1.34 1.58-1.74.68-.4 1.48-.6 2.4-.6.94 0 1.88.22 2.83.68l-.65 1.67c-.36-.17-.72-.32-1.1-.45a3.25 3.25 0 0 0-1.07-.2zm13.3 3.25c0 1.6-.4 2.83-1.2 3.7-.8.85-1.93 1.28-3.4 1.28-1.5 0-2.63-.43-3.42-1.3-.8-.85-1.2-2.08-1.2-3.7s.4-2.83 1.2-3.67 1.94-1.28 3.42-1.28c1.5 0 2.62.42 3.4 1.28.8.85 1.2 2.08 1.2 3.68zm-7.06 0c0 1.08.2 1.9.6 2.44.42.55 1.03.82 1.85.82 1.63 0 2.45-1.1 2.45-3.26 0-2.17-.8-3.26-2.44-3.26-.8 0-1.43.27-1.84.82-.4.55-.62 1.36-.62 2.44zm17.62 4.84h-2.6l-4.2-7.3h-.07c.1 1.3.13 2.2.13 2.76v4.54h-1.83v-9.65h2.58l4.2 7.23h.04a58.7 58.7 0 0 1-.1-2.66v-4.57h1.83v9.65zm8.13-2.68c0 .87-.3 1.56-.94 2.06-.63.5-1.5.76-2.62.76-1.02 0-1.93-.2-2.73-.58v-1.9c.65.28 1.2.48 1.66.6.45.12.86.18 1.24.18.45 0 .8-.08 1.03-.26.24-.17.36-.42.36-.76a.84.84 0 0 0-.16-.5 1.8 1.8 0 0 0-.46-.43c-.2-.13-.62-.35-1.25-.65-.6-.27-1.05-.54-1.34-.8a3 3 0 0 1-.7-.9c-.2-.33-.27-.72-.27-1.18-.02-.85.27-1.52.85-2 .58-.5 1.38-.75 2.4-.75.5 0 .98.06 1.44.18.45.12.92.3 1.42.5l-.66 1.6a9.66 9.66 0 0 0-1.28-.45 4.15 4.15 0 0 0-1-.12c-.38 0-.68.1-.88.27a.9.9 0 0 0-.3.7c0 .2.03.35.1.48.1.13.23.26.4.4.2.12.63.34 1.3.67.9.43 1.53.86 1.86 1.3.34.43.5.96.5 1.6zm9.6-6.97v6.25c0 .7-.15 1.33-.47 1.87s-.78.94-1.38 1.23c-.6.28-1.32.43-2.14.43-1.25 0-2.2-.32-2.9-.96s-1.03-1.5-1.03-2.6v-6.23h2.04v5.9c0 .75.14 1.3.44 1.65.3.35.8.52 1.5.52.66 0 1.14-.18 1.44-.53.3-.33.46-.88.46-1.63v-5.9h2.04zm2.37 9.65v-9.65h2.05v7.96h3.9v1.7h-5.96zm11.37 0h-2.04v-7.95h-2.62v-1.7h7.3v1.7H75.7v7.95zm9.68 0h-5.56v-9.65h5.56v1.67h-3.5v2.12h3.26v1.68h-3.27v2.5h3.5v1.68zm1.2-2.8v-1.65h3.55v1.65h-3.55zm13.74 2.8h-2.6l-4.2-7.3h-.06c.08 1.3.12 2.2.12 2.76v4.54h-1.83v-9.65h2.58l4.2 7.23h.04a58.7 58.7 0 0 1-.1-2.66v-4.57h1.85v9.65zm11.2-4.84c0 1.6-.4 2.83-1.2 3.7-.8.85-1.92 1.28-3.4 1.28s-2.62-.43-3.4-1.3c-.8-.85-1.2-2.08-1.2-3.7s.4-2.83 1.2-3.67 1.93-1.28 3.4-1.28c1.5 0 2.63.42 3.42 1.28.78.85 1.17 2.08 1.17 3.68zm-7.05 0c0 1.08.2 1.9.6 2.44s1.03.82 1.85.82c1.63 0 2.45-1.1 2.45-3.26 0-2.17-.8-3.26-2.44-3.26-.8 0-1.43.27-1.84.82-.43.55-.63 1.36-.63 2.44zm14.75 2.16c0 .87-.32 1.56-.94 2.06-.63.5-1.5.76-2.62.76-1.03 0-1.94-.2-2.74-.58v-1.9c.65.28 1.2.48 1.66.6s.86.18 1.23.18c.47 0 .8-.08 1.05-.26.24-.17.36-.42.36-.76a.85.85 0 0 0-.15-.5 1.8 1.8 0 0 0-.47-.43c-.2-.13-.62-.35-1.25-.65-.6-.27-1.03-.54-1.33-.8a3 3 0 0 1-.7-.9c-.18-.33-.27-.72-.27-1.18 0-.85.3-1.52.87-2 .58-.5 1.38-.75 2.4-.75.5 0 .98.06 1.44.18.45.12.93.3 1.43.5l-.66 1.6a9.7 9.7 0 0 0-1.27-.45 4.16 4.16 0 0 0-1-.12c-.38 0-.68.1-.9.27s-.3.42-.3.7c0 .2.04.35.13.48.08.13.22.26.4.4.18.12.6.34 1.3.67.9.43 1.52.86 1.85 1.3.35.43.52.96.52 1.6z"/><g fill="#FFF"><path d="M162.18 13.28l10.8 10.92s1.03 1.2 2.24 0c.4-.46 10.7-11 10.7-11l1.76.13-.17 1.4s-11.16 11.22-11.4 11.43c-2.13 1.7-4.1 0-4.1 0L160.56 14.7v-1.83l1.63.4zM168.8 22.57l-8.2 8.54-.1 1.8 1.9-.45 8-8.25zm10.3 0l8.2 8.54.08 1.8-1.87-.45-8-8.25zM158.84 11.45v22.88h30.25V11.45h-30.26zm28.13 20.8h-26V13.52h26v18.7z"/></g></svg>