<svg xmlns="http://www.w3.org/2000/svg" width="200" height="42" version="1"><path fill="#3D58A4" d="M0 0h200v42H0z"/><path fill="#fff" d="M34.3 8.4H10.2c-.8 0-1.5.6-1.5 1.4v22.4c0 .8.7 1.4 1.5 1.4h13v-9.7h-3.5V20h3.5v-2.8c0-3.2 2.1-5 5.3-5 1.5 0 2.8.1 3.2.1v3.4h-2.2c-1.7 0-2 .7-2 1.8V20h4l-.5 3.8h-3.5v9.7h6.9c.8 0 1.5-.6 1.5-1.4V9.8c-.1-.7-.8-1.4-1.6-1.4z"/><text fill="#fff" transform="matrix(.874 0 0 1 46.999 24.86)" font-family="Verdana" font-weight="bold" font-size="13.779">Entrar com Facebook</text></svg>