<svg xmlns="http://www.w3.org/2000/svg" width="200" height="42" version="1"><path fill="#fff" d="M.5.5h199v41H.5z"/><path fill="#CFCFCF" d="M200 42H0V0h200v42zM1 41h198V1H1v40z"/><path fill="#4285F4" d="M35.8 21.3c0-1-.1-1.8-.3-2.5H24v4.6h6.8c-.1 1.1-.9 2.9-2.5 4v.2l3.7 2.8h.3c2.2-2.2 3.5-5.4 3.5-9.1"/><path fill="#34A853" d="M24 33.3c3.3 0 6.1-1.1 8.2-3l-3.9-3c-1 .7-2.4 1.2-4.3 1.2-3.3 0-6-2.2-7-5.1h-.1l-3.9 3v.1c2 4.1 6.2 6.8 11 6.8"/><path fill="#FBBC05" d="M17 23.4c-.3-.8-.4-1.6-.4-2.4 0-.8.2-1.7.4-2.4v-.2l-3.9-3-.1.1c-.8 1.7-1.3 3.6-1.3 5.5s.5 3.9 1.3 5.5l4-3.1"/><path fill="#EB4335" d="M24 13.4c2.3 0 3.9 1 4.8 1.8l3.5-3.4c-2.1-2-4.9-3.2-8.3-3.2-4.8 0-9 2.8-11 6.8l4 3.1c1-2.9 3.7-5.1 7-5.1"/><text fill="#757575" transform="matrix(.839 0 0 1 46.255 25.043)" font-family="Verdana" font-weight="bold" font-size="14.432">Entrar com Google</text></svg>