<svg xmlns="http://www.w3.org/2000/svg" width="512" height="512" viewBox="0 0 509.337 509.338" enable-background="new 0 0 509.337 509.338"><g fill="#fff"><path d="M396.28 310.9c-3.8-1.5-7.14-.85-10 2l-18.27 18.28c-1.7 1.7-2.56 3.8-2.56 6.27v35.98c0 12.57-4.46 23.32-13.4 32.27-8.96 8.94-19.7 13.42-32.27 13.42H82.22c-12.56 0-23.3-4.48-32.26-13.42-8.95-8.95-13.42-19.7-13.42-32.27V135.9c0-12.57 4.47-23.32 13.42-32.27C58.9 94.7 69.66 90.2 82.22 90.2h237.55c4.2 0 8.47.58 12.85 1.73 3.43 1.14 6.47.38 9.13-2.3l14-13.98c2.27-2.28 3.12-5.04 2.56-8.28-.56-3.04-2.28-5.23-5.13-6.56-10.28-4.74-21.42-7.13-33.4-7.13H82.2c-22.64 0-42 8.04-58.1 24.13C8.04 93.88 0 113.25 0 135.9v237.54c0 22.65 8.04 42 24.12 58.1 16.1 16.1 35.46 24.13 58.1 24.13h237.54c22.65 0 42.02-8.04 58.1-24.13 16.1-16.1 24.13-35.45 24.13-58.1V319.2c0-4-1.92-6.77-5.72-8.3zM182.72 300.35v82.22h82.23L456.8 190.72 374.6 108.5 182.72 300.34zm70.8 54.82h-16v-27.4h-27.4v-16l33.13-33.1 43.4 43.4-33.13 33.1zm125.34-196.15l-99.93 99.93c-3.23 3.24-6.38 3.34-9.42.3-3.03-3.06-2.94-6.2.3-9.43l99.93-99.93c3.23-3.25 6.36-3.34 9.42-.3s2.94 6.2-.3 9.42zM501.35 107.35l-43.4-43.4c-5.33-5.33-11.8-8-19.4-8-7.63 0-14.1 2.67-19.42 8L392.86 90.2l82.22 82.24 26.27-26.26c5.32-5.33 8-11.8 8-19.42s-2.68-14.08-8-19.4z"/></g></svg>