<svg xmlns="http://www.w3.org/2000/svg" xmlns:xlink="http://www.w3.org/1999/xlink" x="0px" y="0px" width="256px" height="168px" viewBox="0 0 256 168" enable-background="new 0 0 256 168" xml:space="preserve"><path fill="#FFFFFF" d="M240,0.4H16C8,0.4,0.8,6.8,0.8,15.6v136.8c0,8,6.4,15.199,15.2,15.199h224c8,0,15.2-6.4,15.2-15.199V15.6
	C254.4,6.8,248,0.4,240,0.4z"/><path fill="#8E8E8E" d="M240.8,2.4c7.2,0,12.8,5.6,12.8,12.8v137.601c0,7.199-5.6,12.799-12.8,12.799H15.2
	c-7.2,0-12.8-5.6-12.8-12.799V15.2C2.4,8,8,2.4,15.2,2.4H240.8 M240.8,0H15.2C7.2,0,0,6.4,0,15.2v137.601
	c0,8,6.4,15.199,15.2,15.199h225.6c8,0,15.2-6.4,15.2-15.199V15.2C256,6.4,249.6,0,240.8,0z"/><g><path fill="#9A9A9A" d="M108.262,120.027c-0.783,0-1.419-0.637-1.419-1.42V74.196l0.016-0.104
		c0.021-0.145,2.318-14.514,15.604-14.514h14.624l0.115,0.019c4.953,0.821,14.318,4.952,14.318,14.704v13.875l-0.033,0.152
		c-0.93,4.227-4.938,12.225-13.449,12.225h-20.46c-0.784,0-1.419-0.637-1.419-1.42s0.635-1.42,1.419-1.42h20.46
		c7.9,0,10.33-8.592,10.645-9.857V74.301c0-9.318-10.672-11.657-11.842-11.885h-14.377c-10.429,0-12.571,10.772-12.781,12v44.191
		C109.681,119.391,109.045,120.027,108.262,120.027z"/><path fill="#9A9A9A" d="M165.369,100.553c-0.783,0-1.418-0.637-1.418-1.42v-32.18c0-3.349-3.799-4.369-4.531-4.536h-6.113
		c-0.783,0-1.42-0.634-1.42-1.419c0-0.783,0.637-1.419,1.42-1.419h6.391l0.127,0.023c2.41,0.444,6.965,2.552,6.965,7.351v32.18
		C166.789,99.916,166.152,100.553,165.369,100.553z"/><path fill="#9A9A9A" d="M234.082,59.579h-7.33l-0.227,0.019c-0.158,0.026-3.947,0.658-6.668,3.063l-13.918,14.091
		c-0.074,0.051-0.391,0.234-1.021,0.234c-0.633,0-0.949-0.184-1.021-0.234l-13.85-14.026l-0.07-0.065
		c-2.721-2.405-6.51-3.037-6.67-3.063l-7.553-0.019c-0.785,0-1.42,0.636-1.42,1.419c0,0.785,0.635,1.419,1.42,1.419h7.199
		c0.547,0.108,3.229,0.699,5.109,2.341l13.867,14.04c0.17,0.172,1.119,1.027,2.988,1.027c1.865,0,2.816-0.855,2.992-1.031
		l13.861-14.036c1.881-1.644,4.566-2.235,5.109-2.341h7.201c0.783,0,1.418-0.634,1.418-1.419
		C235.5,60.214,234.865,59.579,234.082,59.579z"/><path fill="#9A9A9A" d="M234.082,97.713h-7.201c-0.539-0.107-3.238-0.707-5.109-2.34l-13.867-14.039
		c-0.17-0.172-1.121-1.027-2.986-1.027c-1.869,0-2.818,0.855-2.996,1.031l-13.859,14.035c-1.883,1.643-4.568,2.234-5.109,2.34
		h-7.199c-0.785,0-1.42,0.637-1.42,1.42s0.635,1.42,1.42,1.42h7.441l0.111-0.02c0.16-0.025,3.949-0.658,6.67-3.062l13.92-14.092
		c0.072-0.049,0.389-0.234,1.021-0.234c0.631,0,0.947,0.186,1.02,0.234l13.85,14.026l0.07,0.066c2.721,2.404,6.51,3.037,6.668,3.062
		l7.557,0.02c0.783,0,1.418-0.637,1.418-1.42S234.865,97.713,234.082,97.713z"/><path fill="#37B3A9" d="M166.043,56.438c-0.449,0.448-1.178,0.448-1.625,0l-3.252-3.252c-0.449-0.449-0.449-1.176,0-1.625
		l3.252-3.251c0.447-0.449,1.176-0.449,1.625,0l3.25,3.251c0.449,0.449,0.449,1.176,0,1.625L166.043,56.438z"/><g><path fill="#37B3A9" d="M37.719,64.936c3.494,0,5.082,1.852,5.082,1.852l11.756,11.628c0.587,0.479,1.128,0.629,1.588,0.621
			c0.46,0.008,1.002-0.143,1.589-0.621L69.49,66.788c0,0,1.588-1.852,5.084-1.852h2.587L64.2,51.973
			c-4.75-4.751-12.451-4.751-17.202,0L34.037,64.936H37.719z"/><path fill="#37B3A9" d="M87.136,74.909l-6.978-6.978h-5.585c0,0-2.161-0.19-4.321,1.907L58.625,81.34c0,0-0.763,0.761-2.479,0.761
			c-1.715,0-2.477-0.761-2.477-0.761L42.04,69.838c-2.16-2.098-4.32-1.907-4.32-1.907h-6.679l-6.978,6.978
			c-4.75,4.75-4.75,12.451,0,17.201l7.019,7.02h6.638c0,0,2.16,0.189,4.32-1.906l11.629-11.504c0,0,0.762-0.762,2.477-0.762
			c1.717,0,2.479,0.762,2.479,0.762l11.628,11.504c2.16,2.096,4.321,1.906,4.321,1.906h5.543l7.02-7.02
			C91.886,87.359,91.886,79.658,87.136,74.909z"/><path fill="#37B3A9" d="M74.574,102.123c-3.496,0-5.084-1.852-5.084-1.852L57.734,88.643c-0.587-0.479-1.129-0.629-1.589-0.619
			c-0.46-0.01-1.001,0.141-1.588,0.619l-11.756,11.629c0,0-1.588,1.852-5.082,1.852h-3.642l12.92,12.922
			c4.751,4.75,12.452,4.75,17.202,0l12.921-12.922H74.574z"/></g></g></svg>
