<?xml version="1.0" encoding="utf-8"?>
<!-- Generator: Adobe Illustrator 16.0.3, SVG Export Plug-In . SVG Version: 6.00 Build 0)  -->
<!DOCTYPE svg PUBLIC "-//W3C//DTD SVG 1.1//EN" "http://www.w3.org/Graphics/SVG/1.1/DTD/svg11.dtd">
<svg version="1.1" id="Layer_1" xmlns="http://www.w3.org/2000/svg" xmlns:xlink="http://www.w3.org/1999/xlink" x="0px" y="0px"
	 width="60px" height="60px" viewBox="0 0 60 60" enable-background="new 0 0 60 60" xml:space="preserve">
<g id="XMLID_110_">
	<path id="XMLID_1108_" fill="#25D366" d="M29.968,59.332L29.968,59.332c-16.301,0-29.516-13.215-29.516-29.516l0,0
		C0.452,13.513,13.667,0.3,29.968,0.3l0,0c16.302,0,29.516,13.213,29.516,29.516l0,0C59.483,46.117,46.27,59.332,29.968,59.332z"/>
	<g id="XMLID_115_">
		<path id="XMLID_118_" fill-rule="evenodd" clip-rule="evenodd" fill="#FFFFFF" d="M46.15,28.996
			c-0.216-8.528-7.241-15.373-15.888-15.373c-8.543,0-15.509,6.689-15.88,15.083c-0.008,0.23-0.016,0.461-0.016,0.691
			c0,2.985,0.834,5.768,2.277,8.149l-2.864,8.461l8.803-2.798c2.278,1.249,4.896,1.964,7.68,1.964
			c8.782,0,15.895-7.063,15.895-15.776C46.157,29.264,46.157,29.131,46.15,28.996z M30.262,42.659c-2.717,0-5.239-0.804-7.353-2.195
			l-5.134,1.637l1.667-4.926c-1.6-2.188-2.545-4.874-2.545-7.777c0-0.431,0.022-0.863,0.067-1.288
			c0.655-6.711,6.37-11.973,13.299-11.973c7.017,0,12.784,5.396,13.32,12.227c0.03,0.342,0.045,0.685,0.045,1.034
			C43.627,36.713,37.629,42.659,30.262,42.659z"/>
		<path id="XMLID_117_" fill-rule="evenodd" clip-rule="evenodd" fill="#FFFFFF" d="M37.546,32.584
			c-0.393-0.194-2.306-1.132-2.663-1.26c-0.356-0.133-0.617-0.192-0.878,0.194s-1.012,1.259-1.235,1.511
			c-0.23,0.26-0.454,0.29-0.849,0.099c-0.387-0.195-1.645-0.598-3.133-1.922c-1.153-1.019-1.942-2.284-2.166-2.672
			s-0.021-0.596,0.171-0.789c0.178-0.178,0.387-0.453,0.587-0.677c0.053-0.067,0.097-0.127,0.142-0.187
			c0.089-0.142,0.156-0.275,0.246-0.461c0.133-0.261,0.067-0.485-0.03-0.678c-0.097-0.193-0.878-2.097-1.206-2.871
			c-0.32-0.775-0.647-0.642-0.878-0.642c-0.224,0-0.484-0.037-0.745-0.037s-0.684,0.098-1.042,0.484
			c-0.357,0.388-1.362,1.326-1.362,3.23c0,0.447,0.082,0.893,0.201,1.317c0.395,1.362,1.242,2.486,1.392,2.68
			c0.193,0.254,2.693,4.286,6.651,5.842c3.967,1.541,3.967,1.025,4.682,0.959c0.715-0.06,2.308-0.929,2.627-1.837
			c0.328-0.9,0.328-1.677,0.231-1.839C38.194,32.874,37.935,32.777,37.546,32.584z"/>
	</g>
</g>
</svg>
