<svg version="1.1" id="Layer_1" xmlns="http://www.w3.org/2000/svg" xmlns:xlink="http://www.w3.org/1999/xlink" x="0px" y="0px" width="153px" height="55px" viewBox="0 0 153 55" enable-background="new 0 0 153 55" xml:space="preserve"><path fill="#fff" stroke="#E0E1E0" stroke-miterlimit="10" d="M152.66 51.38c0 1.54-.689 2.79-1.53 2.78H2.33c-.85 0-1.54-1.24-1.54-2.78V3.28C.8 1.73 1.5.5 2.33.5h148.8c.841 0 1.53 1.24 1.53 2.77v48.11z"/><path fill="#6BBE5E" d="M24.23 47.641V10.92H8.66V22.7S7.5 39.05 24.23 47.641z"/><path fill="#339044" d="M24.23 47.641V10.92h15.42V22.7s1.14 16.34-15.42 24.93v.011z"/><path fill="#DFE0E0" d="M39.65 10.92h-31V6.97s.49-1.63 2.38-1.89H37.3s1.76.32 2.35 2.12l-.01 3.72h.01z"/><circle fill="#FFF" cx="12.4" cy="8.01" r=".94"/><circle fill="#FFF" cx="15.77" cy="8.01" r=".94"/><circle fill="#FFF" cx="23.96" cy="22.16" r="5.19"/><path fill="#FFF" d="M24.2 41.77l-3.15-3.189s3.1-2.7 6.23 0l-3.08 3.2v-.011zm-4.4-4.629l-1.03-1.32s4.8-4.381 10.74-.2l-.98 1.35c0-.001-4.52-3.511-8.73.17z"/><path fill="#FFF" d="M31.05 32.189l-.67 1.621s-6.59-4.48-12.48.229l-.77-1.681c0 .001 6.42-5.028 13.92-.169z"/><path fill="#547DBF" d="M58.26 16.59v3.33h7.96a7.065 7.065 0 01-1.81 4.2 8.142 8.142 0 01-6.15 2.43 8.73 8.73 0 01-8.721-8.739l.001-.111a8.731 8.731 0 0114.719-6.471L66.6 8.9a11.503 11.503 0 00-8.34-3.38c-6.7 0-12.35 5.47-12.35 12.18 0 6.7 5.64 12.17 12.35 12.17 3.63 0 6.36-1.19 8.5-3.4 2.19-2.2 2.88-5.3 2.88-7.79 0-.77-.05-1.48-.17-2.08h-11.2l-.01-.01z"/><path fill="#E94636" d="M79.59 13.88a7.75 7.75 0 00-7.899 7.87 7.77 7.77 0 007.9 7.859 7.76 7.76 0 007.88-7.638l.001-.222a7.752 7.752 0 00-7.882-7.869m0 12.63c-2.39 0-4.44-1.96-4.44-4.76 0-2.83 2.06-4.77 4.44-4.77 2.381 0 4.43 1.94 4.43 4.77 0 2.8-2.049 4.76-4.43 4.76"/><path fill="#547DBF" d="M118.26 15.64h-.13a5.447 5.447 0 00-4.14-1.76c-3.92 0-7.34 3.43-7.34 7.87 0 4.4 3.42 7.859 7.34 7.859 1.88 0 3.369-.84 4.15-1.79h.119v1.1c0 3-1.619 4.61-4.199 4.61-2.101 0-3.42-1.521-3.961-2.8l-3 1.239a7.48 7.48 0 006.961 4.64c4.049 0 7.469-2.379 7.469-8.18V14.29h-3.27v1.35h.001zm-3.97 10.87c-2.38 0-4.2-2.03-4.2-4.76 0-2.78 1.82-4.77 4.2-4.77 2.351 0 4.2 2.03 4.2 4.8.01 2.74-1.849 4.73-4.2 4.73"/><path fill="#F7BB17" d="M97.18 13.88c-4.35 0-7.9 3.3-7.9 7.87a7.77 7.77 0 007.901 7.859 7.76 7.76 0 007.88-7.638l.001-.222a7.751 7.751 0 00-7.882-7.869m0 12.63c-2.39 0-4.439-1.96-4.439-4.76 0-2.83 2.06-4.77 4.439-4.77 2.381 0 4.43 1.94 4.43 4.77-.001 2.8-2.049 4.76-4.43 4.76"/><path fill="#34A750" d="M124.24 5.83h3.4V29.6h-3.4V5.83z"/><path fill="#E94636" d="M138.12 26.5a3.999 3.999 0 01-3.82-2.38l10.511-4.34-.351-.9c-.649-1.75-2.649-5-6.72-5-4.051 0-7.42 3.18-7.42 7.87a7.68 7.68 0 007.8 7.859c3.601 0 5.68-2.209 6.55-3.479l-2.68-1.79a4.5 4.5 0 01-3.87 2.17v-.01zm-.25-9.67c1.399 0 2.59.72 2.979 1.74l-7.1 2.93c.001-3.3 2.341-4.67 4.121-4.67"/><text transform="translate(44.9 46.5)" fill="#5E5D5E" font-family="'ArialMT'" font-size="15">Loja Segura</text></svg>
