<svg xmlns="http://www.w3.org/2000/svg" width="46" height="46"><filter id="a" width="200%" height="200%" x="-50%" y="-50%" filterUnits="objectBoundingBox"><feOffset result="shadowOffsetOuter1" dy="1" in="SourceAlpha"/><feGaussianBlur result="shadowBlurOuter1" in="shadowOffsetOuter1" stdDeviation=".5"/><feColorMatrix result="shadowMatrixOuter1" values="0 0 0 0 0 0 0 0 0 0 0 0 0 0 0 0 0 0 0.168 0" in="shadowBlurOuter1"/><feOffset result="shadowOffsetOuter2" in="SourceAlpha"/><feGaussianBlur result="shadowBlurOuter2" in="shadowOffsetOuter2" stdDeviation=".5"/><feColorMatrix result="shadowMatrixOuter2" values="0 0 0 0 0 0 0 0 0 0 0 0 0 0 0 0 0 0 0.084 0" in="shadowBlurOuter2"/><feMerge><feMergeNode in="shadowMatrixOuter1"/><feMergeNode in="shadowMatrixOuter2"/><feMergeNode in="SourceGraphic"/></feMerge></filter><title>btn_google_light_pressed_ios</title><desc>Created with Sketch.</desc><g><g><path fill="#646464" d="M42.33 20.24c0 12.3-9.98 22.3-22.3 22.3-12.3 0-22.28-10-22.28-22.3s9.98-22.3 22.3-22.3c12.3 0 22.28 10 22.28 22.3z" transform="translate(-1 -1) translate(4 4)" filter="url(#a)"/><g><path fill="#fff" d="M37.4 23.85c0-1.03-.1-2.02-.27-2.97H23.46v5.62h7.8c-.33 1.8-1.35 3.35-2.9 4.38v3.64h4.7c2.75-2.53 4.34-6.25 4.34-10.67z"/><path fill="#fff" d="M23.46 38.04c3.92 0 7.2-1.3 9.6-3.52l-4.7-3.65c-1.3.88-2.95 1.4-4.9 1.4-3.8 0-7-2.56-8.13-6h-4.85v3.77c2.4 4.75 7.3 8 12.98 8z"/><path fill="#fff" d="M15.33 26.27c-.3-.86-.46-1.8-.46-2.75 0-.96.17-1.9.46-2.76V17h-4.85c-1 1.96-1.55 4.17-1.55 6.52 0 2.34.56 4.56 1.55 6.52l4.85-3.77z"/><path fill="#fff" d="M23.46 14.77c2.13 0 4.04.73 5.55 2.17l4.17-4.16c-2.5-2.35-5.8-3.78-9.7-3.78-5.7 0-10.6 3.25-13 8l4.86 3.76c1.14-3.43 4.34-6 8.13-6z"/><path fill="none" d="M8.93 9h29.05v29.04H8.93V9z"/></g></g></g></svg>