<svg version="1.1" id="Layer_1" xmlns:sketch="http://www.bohemiancoding.com/sketch/ns" xmlns="http://www.w3.org/2000/svg" xmlns:xlink="http://www.w3.org/1999/xlink" x="0px" y="0px" viewBox="-403 281.3 34 34" style="enable-background:new -403 281.3 34 34;" xml:space="preserve">
<g><path fill="#fff" d="M-382.8,300.4h-6.3c-0.6,0-1.1,0.5-1.1,1.1c0,0.6,0.5,1.1,1.1,1.1h6.3c0.6,0,1.1-0.5,1.1-1.1
		C-381.7,300.9-382.2,300.4-382.8,300.4z"/><path fill="#fff" d="M-389.2,296.2h3.1c0.6,0,1.1-0.5,1.1-1.1c0-0.6-0.5-1.1-1.1-1.1h-3.1c-0.6,0-1.1,0.5-1.1,1.1
		C-390.2,295.7-389.8,296.2-389.2,296.2z"/><path fill="#fff" d="M-386,281.3c-9.4,0-17,7.6-17,17s7.6,17,17,17s17-7.6,17-17S-376.6,281.3-386,281.3z M-377.5,301.4
		c0,2.9-2.4,5.4-5.4,5.4h-6.2c-3,0-5.4-2.4-5.4-5.4v-6.3c0-3,2.4-5.4,5.4-5.4h3.8c1.4,0.2,3.4,1.4,4.2,2.9c0.2,0.4,0.3,0.5,0.5,1.8
		c0.1,0.7,0.1,1.2,0.4,1.5c0.4,0.4,2,0.1,2.3,0.4l0.2,0.2l0.1,0.3l0,0.2L-377.5,301.4z"/></g></svg>
