<svg version="1.1" id="Layer_1" xmlns="http://www.w3.org/2000/svg" xmlns:xlink="http://www.w3.org/1999/xlink" x="0px" y="0px" width="18px" height="18px" viewBox="-3 -3 18 18" enable-background="new -3 -3 18 18" xml:space="preserve"><g><circle fill="#212121" cx="6" cy="6" r="9"/><g><g><path fill="#FFFFFF" d="M11.57,1.714H0.429C0.192,1.714,0,1.906,0,2.143v7.714c0,0.235,0.192,0.428,0.429,0.428h11.143
				c0.236,0,0.429-0.191,0.429-0.428V2.143C12,1.906,11.809,1.714,11.57,1.714z M10.869,2.571L6,6.316L1.131,2.571H10.869z
				 M11.143,9.43H0.857V3.442l4.882,3.755c0.154,0.117,0.368,0.117,0.521,0l4.883-3.755V9.43L11.143,9.43z"/></g></g></g></svg>
