<svg version="1.1" id="Layer_1" xmlns="http://www.w3.org/2000/svg" xmlns:xlink="http://www.w3.org/1999/xlink" x="0px" y="0px" viewBox="-403 281.3 34 34" style="enable-background:new -403 281.3 34 34;" xml:space="preserve"><path fill="#fff" d="M-386,281.3c-9.4,0-17,7.6-17,17c0,9.4,7.6,17,17,17s17-7.6,17-17C-369,288.8-376.6,281.3-386,281.3z
	 M-381.8,293h-2.2c-0.6,0-1,0.5-1,1.2v1h3.1l-0.5,3.2h-2.7v8.5h-3.2v-8.5h-2.1v-3.2h2.1v-1.6l0,0c0.1-1.8,0.7-3.6,3.8-3.7l0,0h2.6
	L-381.8,293L-381.8,293z"/></svg>
