<svg version="1.1" id="Layer_1" xmlns="http://www.w3.org/2000/svg" xmlns:xlink="http://www.w3.org/1999/xlink" x="0px" y="0px" viewBox="76 282.3 32 32" style="enable-background:new 76 282.3 32 32;" xml:space="preserve"><path fill="#fff" d="M95.1,298.3c0,1.7-1.4,3.1-3.1,3.1s-3.1-1.4-3.1-3.1s1.4-3.1,3.1-3.1S95.1,296.6,95.1,298.3z"/>
<path fill="#fff" d="M99.2,292.9c-0.1-0.4-0.4-0.8-0.7-1.1c-0.3-0.3-0.7-0.5-1.1-0.7c-0.3-0.1-0.8-0.3-1.7-0.3c-1,0-1.3-0.1-3.7-0.1
	c-2.5,0-2.7,0-3.7,0.1c-0.9,0-1.4,0.2-1.7,0.3c-0.4,0.1-0.8,0.4-1.1,0.7c-0.3,0.3-0.5,0.7-0.7,1.1c-0.1,0.3-0.3,0.8-0.3,1.7
	c0,1-0.1,1.3-0.1,3.7c0,2.5,0,2.7,0.1,3.7c0,0.9,0.2,1.4,0.3,1.7c0.1,0.4,0.4,0.8,0.7,1.1c0.3,0.3,0.7,0.5,1.1,0.7
	c0.3,0.1,0.8,0.3,1.7,0.3c1,0,1.3,0.1,3.7,0.1c2.5,0,2.7,0,3.7-0.1c0.9,0,1.4-0.2,1.7-0.3c0.8-0.3,1.4-0.9,1.7-1.7
	c0.1-0.3,0.3-0.8,0.3-1.7c0-1,0.1-1.3,0.1-3.7c0-2.5,0-2.7-0.1-3.7C99.4,293.7,99.3,293.2,99.2,292.9z M92,303
	c-2.6,0-4.7-2.1-4.7-4.7s2.1-4.7,4.7-4.7c2.6,0,4.7,2.1,4.7,4.7S94.6,303,92,303z M96.9,294.5c-0.6,0-1.1-0.5-1.1-1.1
	s0.5-1.1,1.1-1.1s1.1,0.5,1.1,1.1C98,294,97.5,294.5,96.9,294.5z"/><path fill="#fff" d="M92,282.3c-8.8,0-16,7.2-16,16s7.2,16,16,16s16-7.2,16-16S100.8,282.3,92,282.3z M101.1,302.1
	c0,1-0.2,1.6-0.4,2.2c-0.5,1.2-1.5,2.2-2.7,2.7c-0.6,0.2-1.3,0.4-2.2,0.4c-1,0-1.3,0.1-3.8,0.1c-2.5,0-2.8,0-3.8-0.1
	c-1,0-1.6-0.2-2.2-0.4c-0.6-0.2-1.2-0.6-1.6-1.1c-0.5-0.5-0.8-1-1.1-1.6c-0.2-0.6-0.4-1.3-0.4-2.2c0-1-0.1-1.3-0.1-3.8
	s0-2.8,0.1-3.8c0-1,0.2-1.6,0.4-2.2c0.2-0.6,0.6-1.2,1.1-1.6c0.5-0.5,1-0.8,1.6-1.1c0.6-0.2,1.3-0.4,2.2-0.4c1,0,1.3-0.1,3.8-0.1
	s2.8,0,3.8,0.1c1,0,1.6,0.2,2.2,0.4c0.6,0.2,1.2,0.6,1.6,1.1c0.5,0.5,0.8,1,1.1,1.6c0.2,0.6,0.4,1.3,0.4,2.2c0,1,0.1,1.3,0.1,3.8
	S101.2,301.1,101.1,302.1z"/></svg>
