<svg version="1.1" id="Layer_1" xmlns="http://www.w3.org/2000/svg" xmlns:xlink="http://www.w3.org/1999/xlink" x="0px" y="0px" viewBox="0 0 28 28" style="enable-background:new 0 0 28 28;" xml:space="preserve"><g><rect fill="none" width="28" height="28"/><g><path fill="#87939C" d="M28,3c0,0.6-0.4,1-1,1H1C0.4,4,0,3.6,0,3l0,0c0-0.6,0.4-1,1-1h26C27.6,2,28,2.4,28,3L28,3z"/><path fill="#87939C" d="M28,14c0,0.6-0.4,1-1,1H1c-0.6,0-1-0.4-1-1l0,0c0-0.6,0.4-1,1-1h26C27.6,13,28,13.4,28,14L28,14z"/><path fill="#87939C" d="M28,25c0,0.6-0.4,1-1,1H1c-0.6,0-1-0.4-1-1l0,0c0-0.6,0.4-1,1-1h26C27.6,24,28,24.4,28,25L28,25z"/></g></g></svg>
