<svg version="1.1" id="Layer_1" xmlns="http://www.w3.org/2000/svg" xmlns:xlink="http://www.w3.org/1999/xlink" x="0px" y="0px" width="18px" height="18px" viewBox="-3 -3 18 18" enable-background="new -3 -3 18 18" xml:space="preserve"><g><circle fill="#212121" cx="6" cy="6" r="9"/><g><g><path fill="#FFFFFF" d="M9.105,7.836c-0.371-0.372-0.891-0.372-1.263,0C7.546,8.133,7.249,8.43,6.952,8.727
				C6.878,8.801,6.804,8.838,6.691,8.764C6.505,8.652,6.283,8.578,6.098,8.467c-0.854-0.52-1.56-1.226-2.191-2.005
				C3.609,6.09,3.312,5.645,3.127,5.199C3.09,5.088,3.09,5.051,3.164,4.977C3.461,4.68,3.758,4.382,4.018,4.122
				c0.408-0.409,0.408-0.892,0-1.3C3.795,2.6,3.572,2.376,3.312,2.116C3.089,1.893,2.829,1.633,2.605,1.41
				c-0.371-0.371-0.891-0.371-1.263,0C1.046,1.707,0.749,2.004,0.452,2.301c-0.298,0.26-0.409,0.594-0.446,0.967
				C-0.031,3.898,0.118,4.455,0.34,5.012C0.785,6.2,1.454,7.24,2.234,8.169c1.076,1.299,2.377,2.302,3.898,3.045
				c0.668,0.334,1.374,0.595,2.154,0.632c0.52,0.036,1.002-0.111,1.374-0.521c0.26-0.298,0.521-0.558,0.815-0.817
				c0.408-0.408,0.408-0.892,0-1.263C10.07,8.801,9.588,8.318,9.105,7.836z"/><path fill="#FFFFFF" d="M8.66,5.867l0.928-0.148c-0.148-0.854-0.557-1.597-1.15-2.191C7.807,2.896,6.99,2.488,6.1,2.377
				L5.988,3.305C6.654,3.417,7.287,3.714,7.77,4.197C8.215,4.643,8.549,5.236,8.66,5.867z"/><path fill="#FFFFFF" d="M10.07,1.932C9.031,0.891,7.693,0.223,6.209,0L6.098,0.928C7.359,1.114,8.512,1.671,9.439,2.6
				c0.854,0.854,1.447,1.967,1.633,3.155l0.93-0.147C11.742,4.195,11.072,2.934,10.07,1.932z"/></g></g></g></svg>
