<svg version="1.1" id="Capa_1" xmlns="http://www.w3.org/2000/svg" xmlns:xlink="http://www.w3.org/1999/xlink" x="0px" y="0px" viewBox="-404 282.3 32 32" style="enable-background:new -404 282.3 32 32;" xml:space="preserve"><g><g><path fill="#fff" d="M-379.7,303.4c-1-1-2.4-1-3.4,0c-0.8,0.8-1.6,1.6-2.4,2.4c-0.2,0.2-0.4,0.3-0.7,0.1c-0.5-0.3-1.1-0.5-1.6-0.8
			c-2.3-1.4-4.2-3.3-5.9-5.4c-0.8-1-1.6-2.2-2.1-3.4c-0.1-0.3-0.1-0.4,0.1-0.6c0.8-0.8,1.6-1.6,2.3-2.3c1.1-1.1,1.1-2.4,0-3.5
			c-0.6-0.6-1.2-1.2-1.9-1.9c-0.6-0.6-1.3-1.3-1.9-1.9c-1-1-2.4-1-3.4,0c-0.8,0.8-1.6,1.6-2.4,2.4c-0.8,0.7-1.1,1.6-1.2,2.6
			c-0.1,1.7,0.3,3.2,0.9,4.7c1.2,3.2,3,6,5.1,8.5c2.9,3.5,6.4,6.2,10.5,8.2c1.8,0.9,3.7,1.6,5.8,1.7c1.4,0.1,2.7-0.3,3.7-1.4
			c0.7-0.8,1.4-1.5,2.2-2.2c1.1-1.1,1.1-2.4,0-3.4C-377.1,306-378.4,304.7-379.7,303.4z"/><path fill="#fff" d="M-380.9,298.1l2.5-0.4c-0.4-2.3-1.5-4.3-3.1-5.9c-1.7-1.7-3.9-2.8-6.3-3.1l-0.3,2.5c1.8,0.3,3.5,1.1,4.8,2.4
			C-382.1,294.8-381.2,296.4-380.9,298.1z"/><path fill="#fff" d="M-377.1,287.5c-2.8-2.8-6.4-4.6-10.4-5.2l-0.3,2.5c3.4,0.5,6.5,2,9,4.5c2.3,2.3,3.9,5.3,4.4,8.5l2.5-0.4
			C-372.6,293.6-374.4,290.2-377.1,287.5z"/></g></g>
</svg>
