<svg version="1.1" id="Layer_1" xmlns="http://www.w3.org/2000/svg" xmlns:xlink="http://www.w3.org/1999/xlink" x="0px" y="0px" viewBox="-404 282.3 32 32" style="enable-background:new -404 282.3 32 32;" xml:space="preserve"><path fill="#fff" d="M-388,282.3c-8.8,0-16,7.2-16,16s7.2,16,16,16s16-7.2,16-16C-372,289.4-379.2,282.3-388,282.3z M-386.4,303.7
	c-1.3,0-2.5-0.7-2.9-1.4c0,0-0.7,2.6-0.8,3.2c-0.5,1.8-2,3.6-2.1,3.8c-0.1,0.1-0.3,0.1-0.3-0.1s-0.4-2.5,0-4.4l1.5-6.3
	c0,0-0.4-0.7-0.4-1.8c0-1.7,1-3,2.3-3c1.1,0,1.6,0.8,1.6,1.7c0,1.1-0.7,2.6-1,4.1c-0.3,1.2,0.6,2.2,1.9,2.2c2.2,0,3.8-2.8,3.8-6.1
	c0-2.5-1.7-4.4-4.9-4.4c-3.6,0-5.8,2.6-5.8,5.5c0,1,0.3,1.7,0.8,2.3c0.2,0.3,0.3,0.4,0.2,0.6l-0.2,0.9c-0.1,0.3-0.3,0.4-0.6,0.3
	c-1.7-0.7-2.4-2.4-2.4-4.4c0-3.3,2.8-7.2,8.5-7.2c4.5,0,7.5,3.2,7.5,6.6C-380,300.4-382.6,303.7-386.4,303.7L-386.4,303.7z"/></svg>
