<svg xmlns="http://www.w3.org/2000/svg" viewBox="0 0 20 16" xml:space="preserve"><g fill="#626262"><path d="m13.515 7.931 1.224-.209A5.468 5.468 0 0 0 13.21 4.77a5.442 5.442 0 0 0-3.118-1.556L9.92 4.445a4.22 4.22 0 0 1 2.415 1.204 4.223 4.223 0 0 1 1.18 2.282zM15.429 2.611a9.023 9.023 0 0 0-5.174-2.58l-.172 1.23a7.829 7.829 0 0 1 4.471 2.229 7.817 7.817 0 0 1 2.192 4.229l1.224-.209a9.092 9.092 0 0 0-2.541-4.899zM14.148 10.574c-.521-.514-1.171-.514-1.688 0-.395.391-.789.783-1.177 1.181-.106.109-.196.133-.325.06-.255-.139-.527-.252-.773-.405-1.144-.72-2.103-1.645-2.952-2.687-.421-.517-.796-1.071-1.058-1.694-.053-.126-.043-.209.06-.312.395-.382.779-.773 1.168-1.164.541-.544.541-1.181-.003-1.728-.31-.312-.618-.617-.926-.929-.319-.318-.634-.64-.956-.955-.52-.508-1.171-.508-1.688.003-.398.392-.779.793-1.184 1.178-.375.355-.564.79-.604 1.297-.063.826.14 1.605.425 2.364.584 1.572 1.473 2.969 2.551 4.249a15.798 15.798 0 0 0 5.227 4.09c.916.444 1.864.786 2.896.842.71.04 1.327-.139 1.821-.693.338-.378.72-.723 1.078-1.085.531-.537.534-1.187.007-1.718-.632-.633-1.265-1.263-1.899-1.894zm0 0"/></g><path fill="none" d="M0 0h20v16H0z"/></svg>