<svg version="1.1" id="Layer_1" xmlns="http://www.w3.org/2000/svg" xmlns:xlink="http://www.w3.org/1999/xlink" x="0px" y="0px" width="17px" height="17px" viewBox="-0.5 -0.5 17 17" enable-background="new -0.5 -0.5 17 17" xml:space="preserve"><g><circle fill="#212121" cx="8" cy="8" r="8.5"/><path fill="#FFFFFF" d="M12.632,11.538C12.632,11.539,12.631,11.539,12.632,11.538l-0.001-0.002l-0.456,0.453
		c-0.59,0.598-1.446,0.843-2.265,0.646c-0.823-0.221-1.604-0.569-2.317-1.036c-0.66-0.425-1.273-0.918-1.826-1.476
		C5.257,9.62,4.8,9.064,4.401,8.471C3.965,7.828,3.62,7.13,3.375,6.395C3.095,5.53,3.327,4.582,3.976,3.944L4.509,3.41
		c0.148-0.15,0.39-0.15,0.539-0.002l0.001,0.001l1.687,1.687c0.148,0.148,0.149,0.391,0,0.538c0,0.001,0,0.001,0,0.002l-0.99,0.989
		c-0.284,0.281-0.32,0.729-0.084,1.051c0.357,0.491,0.754,0.953,1.186,1.383C7.327,9.541,7.85,9.98,8.407,10.371
		c0.323,0.225,0.76,0.188,1.038-0.091l0.957-0.972c0.147-0.148,0.391-0.148,0.539-0.002c0,0,0,0,0,0.002l1.689,1.69
		C12.779,11.146,12.779,11.389,12.632,11.538z"/></g></svg>