<svg version="1.1" id="Capa_1" xmlns="http://www.w3.org/2000/svg" xmlns:xlink="http://www.w3.org/1999/xlink" x="0px" y="0px" viewBox="-49 141 512 512" style="enable-background:new -49 141 512 512;" xml:space="preserve"><path fill="#fff" d="M391.164,212.836C344.84,166.511,283.249,141,217.737,141S90.633,166.511,44.308,212.836
	s-71.835,107.915-71.835,173.427c0,41.499,10.505,82.279,30.445,118.402L-49,653l148.333-51.917
	c36.124,19.938,76.904,30.444,118.403,30.444c65.512,0,127.104-25.512,173.427-71.836C437.488,513.367,463,451.776,463,386.263
	S437.488,259.16,391.164,212.836z M217.737,601.495c-38.497,0-76.282-10.296-109.267-29.776l-6.009-3.549L-0.048,604.047
	l35.878-102.508l-3.549-6.009C12.801,462.544,2.505,424.761,2.505,386.263c0-118.678,96.553-215.231,215.231-215.231
	s215.231,96.553,215.231,215.231C432.968,504.943,336.415,601.495,217.737,601.495z"/><path fill="#fff" d="M336.077,441.391l-49.169-14.128c-6.464-1.84-13.44-0.032-18.16,4.784l-12.032,12.256
	c-5.056,5.168-12.752,6.832-19.472,4.128c-23.28-9.424-72.225-52.945-84.721-74.705c-3.6-6.288-3.008-14.128,1.424-19.856
	l10.496-13.584c4.112-5.328,4.992-12.464,2.256-18.624l-20.688-46.801c-4.96-11.216-19.28-14.464-28.641-6.56
	c-13.728,11.616-30.016,29.248-32,48.801c-3.488,34.464,11.296,77.905,67.185,130.066c64.561,60.288,116.29,68.24,149.938,60.08
	c19.088-4.624,34.336-23.168,43.985-38.352C353.054,458.527,347.854,444.767,336.077,441.391z"/></svg>
