<svg version="1.1" xmlns="http://www.w3.org/2000/svg" x="0px" y="0px" width="12px" height="12px" viewBox="144 144 12 12" enable-background="new 144 144 12 12" xml:space="preserve"><path fill="#1CB39B" d="M154.316,145.684c-1.086-1.086-2.529-1.684-4.065-1.684c-1.535,0-2.979,0.598-4.064,1.684
	c-1.086,1.086-1.684,2.529-1.684,4.065c0,0.972,0.246,1.928,0.713,2.775L144,156l3.477-1.217c0.847,0.468,1.802,0.714,2.775,0.714
	c1.536,0,2.979-0.599,4.065-1.684c1.086-1.086,1.684-2.53,1.684-4.065C156,148.213,155.402,146.77,154.316,145.684z
	 M150.251,154.793c-0.902,0-1.788-0.241-2.561-0.698l-0.141-0.083l-2.402,0.841l0.841-2.402l-0.083-0.142
	c-0.457-0.772-0.698-1.658-0.698-2.56c0-2.782,2.263-5.044,5.044-5.044c2.782,0,5.044,2.263,5.044,5.044
	C155.296,152.529,153.033,154.793,150.251,154.793z"/><path fill="#1CB39B" d="M153.025,151.041l-1.152-0.332c-0.152-0.043-0.315,0-0.426,0.112l-0.282,0.288
	c-0.118,0.121-0.299,0.159-0.456,0.096c-0.546-0.221-1.693-1.241-1.986-1.75c-0.084-0.147-0.07-0.331,0.033-0.465l0.246-0.318
	c0.097-0.125,0.117-0.292,0.053-0.437l-0.485-1.097c-0.117-0.263-0.452-0.339-0.671-0.154c-0.322,0.272-0.704,0.686-0.75,1.144
	c-0.082,0.808,0.265,1.826,1.575,3.048c1.513,1.413,2.725,1.6,3.514,1.408c0.447-0.108,0.805-0.543,1.031-0.898
	C153.424,151.441,153.301,151.119,153.025,151.041z"/></svg>