<svg version="1.1" id="Layer_1" xmlns:sketch="http://www.bohemiancoding.com/sketch/ns" xmlns="http://www.w3.org/2000/svg" xmlns:xlink="http://www.w3.org/1999/xlink" x="0px" y="0px" viewBox="-404 282.3 32 32" style="enable-background:new -404 282.3 32 32;" xml:space="preserve">
<g><path fill="#fff" d="M-388,282.3c-8.8,0-16,7.2-16,16s7.2,16,16,16s16-7.2,16-16C-372,289.4-379.2,282.3-388,282.3z M-377.8,299.1
		c0,1.8-0.2,3.5-0.2,3.5s-0.2,1.5-0.8,2.2c-0.8,0.9-1.7,0.9-2.1,0.9c-2.9,0.2-7.2,0.2-7.2,0.2s-5.3-0.1-7-0.2
		c-0.5-0.1-1.5-0.1-2.3-0.9c-0.6-0.7-0.8-2.2-0.8-2.2s-0.2-1.8-0.2-3.5v-1.7c0-1.8,0.2-3.5,0.2-3.5s0.2-1.5,0.8-2.2
		c0.8-0.9,1.7-0.9,2.1-0.9c2.9-0.2,7.2-0.2,7.2-0.2l0,0c0,0,4.3,0,7.2,0.2c0.4,0,1.3,0.1,2.1,0.9c0.6,0.7,0.8,2.2,0.8,2.2
		s0.2,1.8,0.2,3.5L-377.8,299.1L-377.8,299.1z"/><polygon fill="#fff" points="-390.6,294.4 -390.6,302.1 -384.2,298.3 	"/></g></svg>
