<?xml version="1.0" encoding="utf-8"?>
<!-- Generator: Adobe Illustrator 16.0.3, SVG Export Plug-In . SVG Version: 6.00 Build 0)  -->
<!DOCTYPE svg PUBLIC "-//W3C//DTD SVG 1.1//EN" "http://www.w3.org/Graphics/SVG/1.1/DTD/svg11.dtd">
<svg version="1.1" xmlns="http://www.w3.org/2000/svg" xmlns:xlink="http://www.w3.org/1999/xlink" x="0px" y="0px"
	 width="65px" height="65px" viewBox="0 0 65 65" enable-background="new 0 0 65 65" xml:space="preserve">
<g>
	<path fill="#F44336" d="M61.405,15.97c-1.708-3.035-3.559-3.594-7.329-3.806c-3.768-0.256-13.24-0.362-21.444-0.362
		c-8.222,0-17.697,0.106-21.46,0.358c-3.763,0.216-5.619,0.771-7.342,3.81c-1.758,3.031-2.661,8.253-2.661,17.445
		c0,0.007,0,0.011,0,0.011c0,0.01,0,0.014,0,0.014v0.008c0,9.153,0.903,14.414,2.661,17.413c1.723,3.036,3.575,3.587,7.337,3.843
		c3.768,0.219,13.243,0.349,21.465,0.349c8.204,0,17.677-0.13,21.446-0.345c3.771-0.255,5.624-0.807,7.33-3.843
		c1.772-2.999,2.67-8.261,2.67-17.413c0,0,0-0.012,0-0.02c0,0,0-0.01,0-0.014C64.078,24.223,63.181,19.001,61.405,15.97z"/>
	<polygon fill="#FAFAFA" points="24.76,45.222 24.76,21.632 44.42,33.426 	"/>
</g>
</svg>
