<?xml version="1.0" encoding="UTF-8"?>
<svg enable-background="new 0 0 512 512" version="1.1" viewBox="0 0 512 512" xml:space="preserve" xmlns="http://www.w3.org/2000/svg">
			<rect transform="matrix(.7071 -.7071 .7071 .7071 -175.9 183.32)" x="35.28" y="293.33" width="196.11" height="21.333"/>
			<rect transform="matrix(.7071 -.7071 .7071 .7071 -104.09 356.82)" x="368.01" y="206" width="21.333" height="196.11"/>
		<path d="m480 74.667h-448c-17.673 0-32 14.327-32 32v298.67c0 17.673 14.327 32 32 32h448c17.673 0 32-14.327 32-32v-298.67c0-17.673-14.327-32-32-32zm10.667 330.67c0 5.891-4.776 10.667-10.667 10.667h-448c-5.891 0-10.667-4.776-10.667-10.667v-298.67c0-5.891 4.776-10.667 10.667-10.667h448c5.891 0 10.667 4.776 10.667 10.667v298.67z"/>
		<path d="m484.15 87.552l-228.15 176.3-228.15-176.3-13.035 16.896 234.67 181.33c1.865 1.444 4.159 2.225 6.517 2.219 2.359 6e-3 4.652-0.775 6.517-2.219l234.67-181.33-13.035-16.896z"/>
</svg>
