<svg xmlns="http://www.w3.org/2000/svg" xmlns:xlink="http://www.w3.org/1999/xlink" x="0px" y="0px" width="35px" height="35px" viewBox="0 0 35 35" enable-background="new 0 0 35 35" xml:space="preserve"><g><g><g><circle fill="#FFFFFF" cx="12.086" cy="28.742" r="3.565"/><path fill="#FFFFFF" d="M23.51,25.143L23.51,25.143c-1.979-0.196-3.741,1.251-3.936,3.229c-0.195,1.979,1.252,3.74,3.23,3.935 c0.234,0.023,0.471,0.023,0.705,0c1.979-0.194,3.424-1.956,3.229-3.935C26.571,26.662,25.219,25.31,23.51,25.143z"/> <path fill="#FFFFFF" d="M30.848,11.573c-0.176-0.266-0.477-0.422-0.797-0.416h-3.945v-0.069c0-4.187-3.394-7.581-7.58-7.581 c-4.187,0-7.581,3.394-7.581,7.58v0.001v0.069H8.002L6.998,6.588C6.887,6.124,6.472,5.795,5.994,5.792H1.667v2.077h3.496 l3.219,14.78c0.085,0.486,0.511,0.838,1.004,0.831H27.49c0.479-0.003,0.893-0.332,1.004-0.796l2.561-10.246 C31.131,12.133,31.053,11.811,30.848,11.573z M18.525,16.592c-3.04,0-5.504-2.464-5.504-5.504c0-3.039,2.464-5.503,5.504-5.503 c3.039,0,5.503,2.464,5.503,5.503C24.01,14.12,21.557,16.573,18.525,16.592z"/><path fill="#FFFFFF" d="M17.694,11.192l-1.903-1.938l-1.489,1.453l2.631,2.666c0.192,0.195,0.453,0.308,0.727,0.312 c0.271,0.013,0.534-0.087,0.727-0.277l4.361-4.119l-1.42-1.523L17.694,11.192z"/></g></g></g></svg>