<svg version="1.1" xmlns="http://www.w3.org/2000/svg" x="0px" y="0px" width="30px" height="28px" viewBox="0 0 30 28" enable-background="new 0 0 30 28" xml:space="preserve"><path fill="#87939C" d="M14.926,14.713C7.23,14.713,0.879,20.535,0,28c0.444,0,0.889,0,1.323,0
	c0.868-6.754,6.616-11.994,13.603-11.994c6.987,0,12.733,5.24,13.602,11.984c0.426,0,0.879,0,1.313,0
	c-0.879-7.465-7.229-13.277-14.925-13.277H14.926z M14.926,0c-3.959,0-7.198,3.218-7.198,7.198c0,3.949,3.239,7.177,7.198,7.177
	c3.961,0,7.198-3.229,7.198-7.198C22.124,3.218,18.887,0,14.926,0z M14.926,13.063c-3.239,0-5.886-2.646-5.886-5.875
	c0-3.25,2.646-5.896,5.886-5.896c3.24,0,5.875,2.646,5.875,5.896C20.801,10.427,18.154,13.063,14.926,13.063z"/></svg>
