<svg shape-rendering="geometricPrecision" image-rendering="optimizeQuality" text-rendering="geometricPrecision"	 xmlns="http://www.w3.org/2000/svg" xmlns:xlink="http://www.w3.org/1999/xlink" x="0px" y="0px" width="43px" height="43px" viewBox="0 0 43 43" enable-background="new 0 0 43 43" xml:space="preserve"><path fill="#87939c" d="M21.5,42.749c11.736,0,21.25-9.514,21.25-21.25C42.75,9.765,33.236,0.25,21.5,0.25	C9.765,0.25,0.25,9.764,0.25,21.5C0.25,33.235,9.764,42.749,21.5,42.749"/><path fill="#FFFFFF" d="M31.316,12.142H11.458c-1.365,0-2.469,1.117-2.469,2.483L8.976,29.519c0,1.365,1.117,2.482,2.482,2.482	h19.859c1.365,0,2.482-1.117,2.482-2.482V14.625C33.799,13.259,32.682,12.142,31.316,12.142z M31.316,17.107l-9.93,6.207	l-9.929-6.207v-2.483l9.929,6.207l9.93-6.207V17.107L31.316,17.107z"/></svg>