<svg xmlns="http://www.w3.org/2000/svg" xmlns:xlink="http://www.w3.org/1999/xlink" x="0px" y="0px" width="35px" height="35px" viewBox="0 0 35 35" enable-background="new 0 0 35 35" xml:space="preserve"><path fill="#FFFFFF" d="M17.438,0.511c-9.387,0-16.927,7.54-16.927,16.927c0,9.386,7.54,16.927,16.927,16.927 s16.927-7.541,16.927-16.927C34.364,8.051,26.824,0.511,17.438,0.511z M19.898,17.745l5.771,5.771 c0.154,0.153,0.23,0.385,0.23,0.539c0,0.153-0.076,0.384-0.23,0.539l-1.076,1.076c-0.155,0.154-0.385,0.231-0.54,0.231 c-0.229,0-0.385-0.077-0.537-0.231l-5.771-5.771c-0.153-0.153-0.385-0.153-0.538,0l-5.771,5.771 c-0.153,0.154-0.384,0.231-0.538,0.231c-0.231,0-0.385-0.077-0.539-0.231l-1.077-1.076c-0.154-0.155-0.231-0.386-0.231-0.539 c0-0.154,0.078-0.386,0.231-0.539l5.771-5.771c0.153-0.154,0.153-0.385,0-0.538l-5.771-5.771c-0.154-0.154-0.231-0.384-0.231-0.539 c0-0.154,0.078-0.384,0.231-0.539l1.077-1.077c0.154-0.154,0.385-0.231,0.539-0.231c0.154,0,0.385,0.078,0.538,0.231l5.771,5.771 c0.153,0.153,0.385,0.153,0.538,0l5.771-5.771c0.152-0.154,0.385-0.231,0.537-0.231c0.232,0,0.385,0.078,0.54,0.231l1.076,1.077 c0.154,0.154,0.23,0.385,0.23,0.539c0,0.154-0.076,0.385-0.23,0.539l-5.771,5.771C19.746,17.284,19.746,17.591,19.898,17.745z"/></svg>