<svg version="1.1" xmlns="http://www.w3.org/2000/svg" x="0px" y="0px" width="25px" height="25px" viewBox="-1.85 0 25 25" enable-background="new -1.85 0 25 25" xml:space="preserve"><g><path fill="#87939C" d="M6.025,10.976h2.147v2.14c0,0.375,0.306,0.682,0.682,0.682c0.375,0,0.692-0.312,0.692-0.682v-2.14h2.139
		c0.38,0,0.691-0.306,0.691-0.682c0-0.376-0.29-0.656-0.72-0.674H9.529V7.463c0-0.376-0.307-0.682-0.683-0.682
		c-0.371,0-0.674,0.302-0.674,0.673V9.62H6.017c-0.365,0-0.674,0.308-0.674,0.674C5.342,10.67,5.648,10.976,6.025,10.976z"/><path fill="#87939C" d="M21.057,22.346c-0.014-0.02-0.025-0.039-0.041-0.057l-5.783-6.018c1.516-1.65,2.347-3.762,2.347-5.978
		c0-4.822-3.922-8.744-8.742-8.744c-4.821,0-8.744,3.922-8.744,8.744c0,4.821,3.922,8.741,8.744,8.741
		c1.982,0,3.834-0.639,5.372-1.854l5.808,6.037c0.121,0.15,0.303,0.232,0.512,0.232c0.186,0,0.365-0.08,0.462-0.191
		c0.135-0.121,0.215-0.295,0.217-0.479C21.209,22.621,21.154,22.467,21.057,22.346z M8.836,2.933c4.07,0,7.379,3.302,7.379,7.361
		c0,4.058-3.302,7.36-7.361,7.36c-4.068,0-7.378-3.303-7.378-7.36C1.476,6.235,4.777,2.933,8.836,2.933z"/></g></svg>
