<svg xmlns="http://www.w3.org/2000/svg" xmlns:xlink="http://www.w3.org/1999/xlink" x="0px" y="0px" width="30px" height="50px" viewBox="0 0 30 50" enable-background="new 0 0 30 50" xml:space="preserve"><g>	<path fill="#87939C" d="M22.68,24.402L8.527,10.25c-0.333-0.333-0.868-0.333-1.201,0s-0.333,0.868,0,1.201l13.549,13.548		L7.326,38.548c-0.333,0.333-0.333,0.868,0,1.2C7.49,39.912,7.71,40,7.923,40c0.214,0,0.434-0.082,0.598-0.252l14.152-14.15		C23.006,25.27,23.006,24.729,22.68,24.402z"/></g><g display="none"><path display="inline" fill="#87939C" d="M9.128,24.999l13.548-13.548c0.334-0.333,0.334-0.868,0-1.201		c-0.332-0.333-0.867-0.333-1.199,0L7.324,24.402c-0.333,0.333-0.333,0.868,0,1.202l14.152,14.146		C21.639,39.912,21.859,40,22.072,40c0.215,0,0.435-0.082,0.598-0.252c0.334-0.332,0.334-0.867,0-1.2L9.128,24.999z"/></g></svg>