<svg version="1.1" xmlns="http://www.w3.org/2000/svg" x="0px" y="0px" width="43px" height="43px" viewBox="0 0 43 43" enable-background="new 0 0 43 43" xml:space="preserve"><circle fill="#212121" cx="21.5" cy="21.499" r="21.5"/><g><path fill="#FFFFFF" d="M32.194,20.306v-2.378h-2.378v2.378h-2.377v2.378h2.377v2.377h2.378v-2.377h2.377v-2.378H32.194z
		 M20.176,17.532l2.113-2.113c0,0-7.166-6.379-13.01,2.397c0,0-2.939,5.311,2.1,10.156c0,0,4.121,3.592,9.747,0.76
		c0,0,4.569-2.245,3.407-8.287h-7.527v2.642h4.755c0,0-0.08,2.562-3.5,3.79c0,0-3.718,1.01-5.931-2.521c0,0-2.034-3.778,1.123-6.803
		c-0.013,0,2.958-2.925,6.724-0.013L20.176,17.532L20.176,17.532z"/></g></svg>