<svg xmlns="http://www.w3.org/2000/svg" xmlns:xlink="http://www.w3.org/1999/xlink" x="0px" y="0px" width="30px" height="30px" viewBox="0 0 30 30" enable-background="new 0 0 30 30" xml:space="preserve"><path fill="#ffffff" d="M15,18.703c2.459,0,4.43-1.985,4.43-4.444l0.015-8.889c0-2.459-1.985-4.444-4.444-4.444	c-2.46,0-4.445,1.985-4.445,4.444v8.889C10.555,16.718,12.54,18.703,15,18.703z M22.851,14.259c0,4.444-3.763,7.555-7.851,7.555	c-4.09,0-7.852-3.11-7.852-7.555H4.629c0,5.052,4.03,9.229,8.889,9.956v4.858h2.963v-4.858c4.857-0.711,8.889-4.89,8.889-9.956	H22.851z"/></svg>