<svg version="1.1" xmlns="http://www.w3.org/2000/svg" x="0px" y="0px" width="30px" height="30px" viewBox="0 0 30 30" enable-background="new 0 0 30 30" xml:space="preserve"><path fill="#87939C" d="M15.001,18.947c2.621,0,4.722-2.116,4.722-4.736l0.017-9.474C19.739,2.116,17.623,0,15.002,0
	c-2.622,0-4.737,2.116-4.737,4.737v9.474C10.264,16.831,12.379,18.947,15.001,18.947z M23.369,14.211
	c0,4.736-4.012,8.053-8.368,8.053c-4.359,0-8.369-3.315-8.369-8.053H3.947c0,5.384,4.295,9.837,9.474,10.611V30h3.158v-5.178
	c5.177-0.758,9.475-5.212,9.475-10.611H23.369z"/></svg>
