<svg version="1.1" xmlns="http://www.w3.org/2000/svg" x="0px" y="0px" width="108px" height="84px" viewBox="0 12 108 84" enable-background="new 0 12 108 84" xml:space="preserve"><path fill="#fff" d="M17.884,44.178h3.553v7.107h-3.553V44.178z M10.777,44.178h3.553v7.107h-3.553V44.178z M106.326,31.346l-1.876-2.96
	l-8.884,5.329l1.777,3.061L106.326,31.346z"/><path fill="#fff" d="M91.619,44.277l-9.478-3.158V19.107c0-3.948-3.256-7.107-7.106-7.107c-3.946,0-7.105,3.16-7.105,7.107v1.283L26.471,36.974
	h-12.14C6.426,36.963,0.01,43.363,0,51.268c-0.008,6.625,4.531,12.39,10.974,13.936l6.91,29.415C18.082,95.407,18.772,96,19.661,96
	h0.296l13.424-2.566c0.789-0.197,1.48-0.592,2.072-1.185c1.69-1.625,1.743-4.312,0.119-6.001c-0.04-0.04-0.079-0.08-0.119-0.118
	l-1.777-1.777l-4.443-17.57L67.731,82.18v1.285c0,3.946,3.255,7.105,7.105,7.105s7.107-3.257,7.107-7.105V61.551l9.476-3.16
	c0.692-0.197,1.283-0.889,1.283-1.677V45.956C92.902,45.166,92.408,44.475,91.619,44.277z M67.831,78.232L28.544,62.539V40.032
	l39.287-15.694V78.232z M3.572,51.285c0-5.922,4.837-10.759,10.66-10.759h10.76v21.421H14.331
	C8.409,61.945,3.572,57.208,3.572,51.285z M30.913,86.426l2.171,2.171c0.197,0.197,0.197,0.396,0.197,0.494
	c0,0.1,0,0.296-0.197,0.493l-0.297,0.196l-11.747,2.271l-6.218-26.454h10.66l5.035,20.037C30.52,85.933,30.617,86.229,30.913,86.426
	z M78.59,83.366c0,1.974-1.579,3.553-3.555,3.553c-1.973,0-3.554-1.579-3.554-3.553v-64.16c0-1.976,1.581-3.555,3.554-3.555
	c1.976,0,3.555,1.579,3.555,3.555V83.366z M89.25,55.332l-7.108,2.369v-12.93l7.108,2.37V55.332z M95.566,68.854l8.884,5.331
	l1.876-3.06l-8.982-5.329L95.566,68.854z M96.456,49.509v3.553h10.66v-3.553H96.456z"/></svg>
