<svg version="1.1" xmlns="http://www.w3.org/2000/svg" x="0px" y="0px" width="30px" height="28px" viewBox="0 0 30 28" enable-background="new 0 0 30 28" xml:space="preserve"><g><path fill="#87939C" d="M28.488,23.3c-2.418-5.073-7.588-8.587-13.572-8.587h0.01C7.23,14.713,0.879,20.535,0,28
		c0.444,0,0.889,0,1.323,0c0.868-6.754,6.616-11.994,13.603-11.994c5.592,0,10.389,3.355,12.525,8.153L28.488,23.3z M14.926,0
		c-3.959,0-7.198,3.218-7.198,7.198c0,3.949,3.239,7.177,7.198,7.177c3.961,0,7.198-3.229,7.198-7.198
		C22.124,3.218,18.887,0,14.926,0z M14.926,13.063c-3.239,0-5.886-2.646-5.886-5.875c0-3.25,2.646-5.896,5.886-5.896
		c3.24,0,5.875,2.646,5.875,5.896C20.801,10.427,18.154,13.063,14.926,13.063z"/><g><circle fill="#AAAAAA" cx="23.484" cy="21.484" r="6.516"/><path fill="#FFFFFF" d="M19.898,25.398l3.02-4.08l-2.66-3.739h1.23l1.42,2c0.3,0.42,0.5,0.739,0.629,0.96
			c0.171-0.28,0.381-0.58,0.621-0.9l1.57-2.07h1.129l-2.75,3.682l2.961,4.141h-1.271l-1.97-2.801
			c-0.101-0.148-0.229-0.318-0.341-0.5c-0.18,0.271-0.301,0.471-0.381,0.58l-1.959,2.721h-1.25v0.008H19.898z"/></g></g></svg>
