<svg xmlns="http://www.w3.org/2000/svg" xmlns:xlink="http://www.w3.org/1999/xlink" x="0px" y="0px" width="26px" height="26px" viewBox="0 0 26 26" enable-background="new 0 0 26 26" xml:space="preserve"><g>	<g>		<g>			<g>				<path fill="#FFFFFF" d="M11.667,0.333C5.218,0.333-0.01,5.563-0.01,12.011s5.229,11.676,11.677,11.676					c6.449,0,11.677-5.228,11.677-11.676S18.116,0.333,11.667,0.333z M11.667,22.132c-5.58,0-10.12-4.541-10.12-10.121					c0-5.58,4.54-10.12,10.12-10.12s10.121,4.54,10.121,10.12C21.788,17.591,17.247,22.132,11.667,22.132z"/>				<path fill="#FFFFFF" d="M15.978,6.6l-4.28,4.28L7.858,6.6c-0.305-0.304-0.797-0.304-1.101,0c-0.304,0.303-0.304,0.797,0,1.102					l3.839,4.28l-4.338,4.34c-0.303,0.305-0.303,0.798,0,1.099c0.302,0.306,0.796,0.306,1.1,0l4.282-4.278l3.838,4.278					c0.304,0.306,0.796,0.306,1.099,0c0.305-0.301,0.305-0.796,0-1.099l-3.842-4.279l4.341-4.34c0.305-0.305,0.305-0.797,0-1.102					C16.772,6.296,16.28,6.296,15.978,6.6z"/>			</g>		</g>	</g></g></svg>