<svg xmlns="http://www.w3.org/2000/svg" width="25" height="25"><path fill="#87939c" d="M24.7 11.7c-.22-.3-5.48-7.4-12.2-7.4S.5 11.4.3 11.7c-.22.3-.22.68 0 .97.2.3 5.48 7.4 12.2 7.4s11.98-7.1 12.2-7.4c.2-.3.2-.68 0-.97zm-12.2 6.74c-4.95 0-9.24-4.7-10.5-6.25 1.26-1.56 5.54-6.26 10.5-6.26 4.95 0 9.24 4.7 10.5 6.25-1.26 1.53-5.54 6.24-10.5 6.24zM12.5 7.3c-2.7 0-4.9 2.2-4.9 4.88 0 2.7 2.2 4.9 4.9 4.9s4.9-2.2 4.9-4.9-2.2-4.9-4.9-4.9zm0 8.15c-1.8 0-3.26-1.46-3.26-3.26 0-1.8 1.46-3.28 3.26-3.28s3.26 1.47 3.26 3.27-1.46 3.25-3.26 3.25z"/></svg>
