<svg version="1.1" xmlns="http://www.w3.org/2000/svg" x="0px" y="0px" width="43px" height="43px" viewBox="128.5 128.5 43 43" enable-background="new 128.5 128.5 43 43" xml:space="preserve"><g><circle fill="#212121" cx="150" cy="150" r="21.5"/><path fill="#FFFFFF" d="M163,141.943c-0.964,0.418-1.984,0.707-3.054,0.836c1.093-0.661,1.929-1.704,2.331-2.949
		c-1.045,0.619-2.188,1.061-3.376,1.286c-0.979-1.029-2.362-1.671-3.897-1.671c-2.94,0-5.326,2.386-5.326,5.327
		c0,0.417,0.046,0.82,0.137,1.206c-4.437-0.217-8.357-2.331-10.992-5.56c-0.458,0.787-0.723,1.703-0.723,2.675
		c0,1.848,0.94,3.486,2.37,4.443c-0.843-0.024-1.671-0.24-2.411-0.667v0.081c0,2.57,1.849,4.723,4.275,5.223
		c-0.466,0.111-0.94,0.176-1.414,0.176c-0.345,0-0.675-0.031-1.004-0.096c0.675,2.121,2.653,3.662,4.981,3.695
		c-1.832,1.447-4.13,2.289-6.629,2.289c-0.425,0-0.851-0.021-1.269-0.078c2.362,1.525,5.158,2.395,8.171,2.395
		c9.803,0,15.153-8.115,15.153-15.162v-0.684c1.029-0.747,1.929-1.687,2.651-2.748L163,141.943L163,141.943z"/></g></svg>
