<svg xmlns="http://www.w3.org/2000/svg" width="16" height="16"><path d="M13.02 10.8c0-3.03-2.83-3.65-3.73-3.9-.3-.07-.27-.14-.88-.2V3.5c1.22.22 1.48.9 1.55 2.13h2.62c0-3.04-1.75-4.23-4.18-4.5V.2H7.2v.97c-2 .22-3.96 1.52-3.96 4 0 2.5 1.84 3.25 3.66 3.78.1.03.2.05.3.08v3.65c-.95-.28-1.6-.92-1.6-2.13H2.98c-.02 2.43 1.88 4.2 4.22 4.5v.97h1.22v-.97c3.04-.22 4.6-1.96 4.6-4.24M5.85 4.9c0-.9.65-1.33 1.35-1.47v2.8c-1.08-.36-1.35-.65-1.35-1.33m2.57 7.85v-3.3c1.22.32 1.83.74 1.83 1.68 0 1.1-.6 1.5-1.83 1.62"/></svg>