<svg version="1.1" id="Layer_1" xmlns="http://www.w3.org/2000/svg" xmlns:xlink="http://www.w3.org/1999/xlink" x="0px" y="0px" width="108px" height="108px" viewBox="46 46 108 108" enable-background="new 46 46 108 108" xml:space="preserve"><path fill="#fff" d="M100,104.4c-5.91,0.014-10.689,4.814-10.675,10.725c0.007,2.945,1.228,5.758,3.375,7.775v9.699c0,4.088,3.313,7.4,7.4,7.4
	c4.087,0,7.4-3.312,7.4-7.4V122.9c2.134-2.039,3.359-4.85,3.4-7.801C110.738,109.182,105.921,104.451,100,104.4L100,104.4z
	 M103.8,119.1c-1,1-1.6,2.301-1.6,3.7v9.7c0,1.2-1,2.2-2.2,2.2s-2.2-1-2.2-2.2v-9.7c0-1.399-0.6-2.7-1.6-3.7
	c-1.102-1.036-1.719-2.486-1.7-4c0-3,2.5-5.5,5.5-5.5s5.5,2.5,5.5,5.5C105.5,116.6,104.9,118.1,103.8,119.1L103.8,119.1z
	 M131.4,90.3H123.6V69.6c-0.005-13.034-10.575-23.596-23.609-23.59C86.964,46.015,76.405,56.574,76.4,69.6v20.6h-7.8
	c-4.308,0-7.8,3.492-7.8,7.8l0,0v48.2c0,4.3,3.5,7.8,7.8,7.8h62.8c4.3,0,7.8-3.5,7.8-7.8V98.1C139.2,93.8,135.7,90.3,131.4,90.3z
	 M81.6,69.6c0.005-10.162,8.247-18.396,18.409-18.391c10.155,0.005,18.385,8.236,18.391,18.391v20.6H81.6V69.6z M134,146.2
	c0,1.399-1.2,2.6-2.6,2.6H68.6c-1.436,0-2.6-1.164-2.6-2.6l0,0V98.1c0-1.4,1.2-2.6,2.6-2.6h62.8c1.399,0,2.6,1.2,2.6,2.6V146.2z"/></svg>
