<?xml version="1.0" encoding="utf-8"?>
<!-- Generator: Adobe Illustrator 16.0.3, SVG Export Plug-In . SVG Version: 6.00 Build 0)  -->
<!DOCTYPE svg PUBLIC "-//W3C//DTD SVG 1.1//EN" "http://www.w3.org/Graphics/SVG/1.1/DTD/svg11.dtd">
<svg version="1.1" id="Layer_1" xmlns="http://www.w3.org/2000/svg" xmlns:xlink="http://www.w3.org/1999/xlink" x="0px" y="0px"
	 width="30px" height="30px" viewBox="0 0 30 30" enable-background="new 0 0 30 30" xml:space="preserve">
<g>
	<path fill="#FFFFFF" d="M9.075,6.273h17.053c0.241,0,0.437-0.196,0.437-0.438S26.369,5.4,26.128,5.4H9.075
		C8.861,3.922,7.591,2.782,6.054,2.782c-1.684,0-3.055,1.37-3.055,3.055c0,1.686,1.371,3.055,3.055,3.055
		C7.591,8.891,8.861,7.75,9.075,6.273z"/>
	<path fill="#FFFFFF" d="M17.97,15.437h8.158c0.241,0,0.437-0.195,0.437-0.437s-0.195-0.437-0.437-0.437h-8.131
		c-0.172-1.572-1.508-2.8-3.125-2.8s-2.951,1.229-3.125,2.8H3.435c-0.24,0-0.437,0.195-0.437,0.437s0.195,0.437,0.437,0.437h8.34
		c0.252,1.483,1.543,2.618,3.098,2.618S17.718,16.92,17.97,15.437z"/>
	<path fill="#FFFFFF" d="M23.51,27.219c1.685,0,3.056-1.371,3.056-3.055s-1.371-3.055-3.056-3.055c-1.535,0-2.807,1.139-3.019,2.618
		H3.438C3.196,23.728,3,23.922,3,24.164S3.195,24.6,3.438,24.6H20.49C20.703,26.078,21.975,27.219,23.51,27.219z"/>
</g>
</svg>
