<svg version="1.1" xmlns="http://www.w3.org/2000/svg" x="0px" y="0px" width="30px" height="28px" viewBox="3.5 0 30 28" enable-background="new 3.5 0 30 28" xml:space="preserve"><g><g><g><path fill="#87939C" d="M27.045,21.637c-1.754,0-3.182,1.428-3.182,3.182S25.291,28,27.045,28s3.183-1.428,3.183-3.182
				S28.799,21.637,27.045,21.637z M27.045,26.727c-1.053,0-1.908-0.855-1.908-1.908s0.855-1.909,1.908-1.909s1.91,0.856,1.91,1.909
				S28.098,26.727,27.045,26.727z"/></g></g><g><g><path fill="#87939C" d="M14.318,21.637c-1.754,0-3.182,1.428-3.182,3.182S12.564,28,14.318,28c1.753,0,3.182-1.428,3.182-3.182
				S16.072,21.637,14.318,21.637z M14.318,26.727c-1.053,0-1.909-0.855-1.909-1.908s0.856-1.909,1.909-1.909
				c1.052,0,1.909,0.856,1.909,1.909S15.371,26.727,14.318,26.727z"/></g></g><g><g><path fill="#87939C" d="M29.591,19.091H14.902c-1.511,0-2.823-1.075-3.12-2.558L8.578,0.512C8.519,0.214,8.257,0,7.955,0H4.136
				C3.785,0,3.5,0.285,3.5,0.636c0,0.352,0.285,0.637,0.636,0.637h3.296l3.102,15.51c0.415,2.074,2.253,3.58,4.368,3.58h14.688
				c0.352,0,0.637-0.285,0.637-0.637C30.228,19.376,29.942,19.091,29.591,19.091z"/></g></g><g><g><path fill="#87939C" d="M32.613,4.033c-0.121-0.136-0.293-0.215-0.477-0.215H9.227c-0.351,0-0.636,0.285-0.636,0.636
				s0.285,0.636,0.636,0.636h22.189l-0.904,7.237C30.392,13.281,29.576,14,28.616,14h-17.48c-0.351,0-0.636,0.285-0.636,0.637
				s0.285,0.637,0.636,0.637h17.48c1.601,0,2.959-1.198,3.157-2.788l0.994-7.952C32.791,4.353,32.734,4.169,32.613,4.033z"/></g></g></g></svg>
