<svg version="1.1" id="Layer_1" xmlns="http://www.w3.org/2000/svg" xmlns:xlink="http://www.w3.org/1999/xlink" x="0px" y="0px" width="108px" height="108px" viewBox="46 46 108 108" enable-background="new 46 46 108 108" xml:space="preserve"><path fill="#fff" d="M143.3,64.6l-33-17.9c-3.273-1.608-7.233-0.434-9.1,2.7L81.9,85.3H58.5c-3,0-5.3,2.4-5.3,5.3v58c0,3,2.4,5.301,5.3,5.301
	h74.9c3,0,5.399-2.301,5.399-5.301v-13.5h2.2c1.104,0.057,2.043-0.791,2.1-1.895c0.004-0.068,0.004-0.137,0-0.205v-15.5
	c0.057-1.104-0.791-2.043-1.895-2.1c-0.068-0.004-0.137-0.004-0.205,0h-2.2v-15.2c0-2.5-1.8-4.7-4.2-5.2l11.5-21.2
	C147.8,70.5,146.6,66.4,143.3,64.6L143.3,64.6z M119.9,56.7L99.3,94.8h-5.9l22-40.5L119.9,56.7z M105,51.4
	c0.658-1.213,2.176-1.664,3.39-1.006c0.003,0.002,0.007,0.004,0.011,0.006l3.3,1.8l-23,42.6h-7.2L105,51.4z M57.2,90.5
	c0-0.4,0.5-1,1.2-1h21.2l-2.9,5.2H58.3l-1.2,0.1L57.2,90.5z M134.4,148.7c0,0.7-0.5,1.2-1.2,1.2H58.3c-0.6,0-1.2-0.5-1.2-1.2v-48.5
	c0-0.7,0.5-1.2,1.2-1.2h74.8c0.7,0,1.2,0.5,1.2,1.2v15.2H126.4c-3.48,0-6.301,2.82-6.301,6.3l0,0v7.2c0,3.5,2.9,6.199,6.2,6.199
	h8.101V148.7z M138.6,119.6h0.101V130.9h-12.4c-1.103,0.057-2.043-0.792-2.1-1.895c-0.004-0.068-0.004-0.138,0-0.206v-7.2
	c-0.057-1.103,0.792-2.043,1.895-2.1c0.068-0.004,0.137-0.004,0.205,0L138.6,119.6L138.6,119.6z M142.3,71.6l-12.5,23.2H104
	l19.6-36.1l17.7,9.7C142.5,68.9,142.9,70.5,142.3,71.6L142.3,71.6z"/></svg>
