<svg version="1.1" xmlns="http://www.w3.org/2000/svg" x="0px" y="0px" width="27px" height="28px" viewBox="-2.5 -3 27 28" enable-background="new -2.5 -3 27 28" xml:space="preserve">
<path fill="#87939C" d="M24.297,24.099l-7.835-8.164c1.998-2.006,3.232-4.776,3.232-7.833C19.694,1.993,14.731-3,8.611-3
	C2.493-3-2.5,1.993-2.5,8.102c0,6.108,4.993,11.102,11.103,11.102c2.681,0,5.149-0.959,7.077-2.543l7.873,8.172
	C23.65,24.932,23.787,25,23.925,25c0.135,0,0.272-0.049,0.372-0.146C24.511,24.659,24.511,24.313,24.297,24.099z M8.61,18.146
	c-5.561,0-10.064-4.5-10.064-10.043c0-5.541,4.503-10.044,10.064-10.044c5.561,0,10.044,4.503,10.044,10.044
	C18.654,13.646,14.151,18.146,8.61,18.146z"/>
</svg>
