<svg version="1.1" xmlns="http://www.w3.org/2000/svg" x="0px" y="0px" width="43px" height="43px" viewBox="0 0 43 43" enable-background="new 0 0 43 43" xml:space="preserve"><g><circle fill="#212121" cx="21.5" cy="21.499" r="21.5"/><g><path fill="#FFFFFF" d="M33.773,16.408c-0.061-1.314-0.27-2.212-0.574-2.997c-0.311-0.823-0.797-1.569-1.424-2.187
			c-0.617-0.628-1.364-1.113-2.188-1.425c-0.785-0.305-1.683-0.513-2.997-0.573c-1.316-0.061-1.736-0.074-5.09-0.074
			s-3.773,0.014-5.09,0.074c-1.315,0.061-2.212,0.269-2.998,0.574c-0.822,0.311-1.568,0.797-2.186,1.424
			c-0.628,0.617-1.114,1.363-1.425,2.187c-0.306,0.785-0.514,1.683-0.573,2.997c-0.061,1.316-0.074,1.736-0.074,5.09
			s0.014,3.773,0.074,5.09c0.06,1.314,0.268,2.212,0.573,2.997c0.31,0.824,0.796,1.57,1.425,2.187
			c0.615,0.629,1.362,1.115,2.187,1.426c0.785,0.305,1.683,0.514,2.997,0.574c1.316,0.061,1.736,0.074,5.09,0.074
			s3.772-0.015,5.09-0.074c1.314-0.061,2.211-0.27,2.996-0.574c1.658-0.642,2.969-1.953,3.611-3.611
			c0.305-0.785,0.514-1.682,0.574-2.996c0.061-1.316,0.074-1.736,0.074-5.091C33.848,18.145,33.834,17.725,33.773,16.408
			L33.773,16.408z M31.551,26.487c-0.056,1.204-0.256,1.856-0.425,2.291c-0.415,1.077-1.267,1.929-2.344,2.344
			c-0.435,0.17-1.087,0.369-2.291,0.426c-1.302,0.06-1.691,0.071-4.99,0.071c-3.297,0-3.687-0.014-4.989-0.071
			c-1.203-0.057-1.857-0.256-2.292-0.426c-0.536-0.198-1.021-0.514-1.42-0.924c-0.41-0.398-0.726-0.884-0.924-1.42
			c-0.169-0.435-0.37-1.087-0.425-2.291c-0.06-1.302-0.072-1.691-0.072-4.989s0.013-3.688,0.072-4.989
			c0.055-1.204,0.256-1.856,0.425-2.292c0.198-0.537,0.513-1.021,0.924-1.419c0.397-0.411,0.882-0.726,1.419-0.924
			c0.436-0.169,1.088-0.369,2.292-0.425c1.302-0.059,1.692-0.071,4.989-0.071s3.688,0.013,4.988,0.071
			c1.205,0.056,1.857,0.256,2.292,0.425c0.536,0.198,1.021,0.513,1.42,0.924c0.409,0.397,0.726,0.884,0.923,1.419
			c0.17,0.436,0.37,1.088,0.426,2.292c0.059,1.302,0.071,1.692,0.071,4.989S31.609,25.186,31.551,26.487L31.551,26.487z"/><circle fill="#FFFFFF" cx="28.094" cy="14.907" r="1.481"/><path fill="#FFFFFF" d="M21.502,15.158c-3.501-0.044-6.375,2.758-6.419,6.26c-0.044,3.5,2.758,6.374,6.259,6.418
			c0.053,0.002,0.107,0.002,0.16,0c3.501-0.044,6.303-2.918,6.258-6.419C27.717,17.979,24.939,15.203,21.502,15.158L21.502,15.158z
			 M21.502,25.613c-2.273,0.004-4.118-1.837-4.121-4.109c-0.003-2.273,1.838-4.119,4.11-4.121c0.003,0,0.007,0,0.011,0
			c2.273,0.002,4.113,1.848,4.11,4.121C25.609,23.772,23.771,25.611,21.502,25.613z"/></g></g></svg>