<svg version="1.1" id="Layer_1" xmlns="http://www.w3.org/2000/svg" xmlns:xlink="http://www.w3.org/1999/xlink" x="0px" y="0px" width="43px" height="43px" viewBox="0 0 43 43" enable-background="new 0 0 43 43" xml:space="preserve"><g><circle fill="#212121" cx="21.5" cy="21.499" r="21.5"/><path fill="#F2F2F2" d="M23.212,27.455c-1.612-0.119-2.292-0.922-3.551-1.688c-0.689,3.638-1.551,7.136-4.05,8.963
		c-0.776-5.517,1.12-9.652,2.016-14.029c-1.517-2.551,0.173-7.688,3.378-6.42c3.938,1.551-3.403,9.48,1.526,10.47
		c5.152,1.034,7.256-8.928,4.051-12.168c-4.603-4.679-13.41-0.112-12.324,6.583c0.259,1.638,1.956,2.138,0.672,4.396
		c-2.947-0.655-3.826-2.981-3.706-6.084c0.173-5.068,4.567-8.618,8.962-9.118c5.542-0.621,10.772,2.042,11.479,7.273
		c0.811,5.896-2.498,12.28-8.446,11.823H23.212z"/></g></svg>
