<svg version="1.1" xmlns="http://www.w3.org/2000/svg" x="0px" y="0px" width="108px" height="68px" viewBox="0 20 108 68" enable-background="new 0 20 108 68" xml:space="preserve"><path fill="#fff" d="M99.9,48.8l-2.8-11.1c0.8-0.2,1.3-0.8,1.3-1.601v-1.8c0-3.899-3.2-7.1-7.101-7.1H78.7v-3.7c0-1.9-1.6-3.5-3.5-3.5h-64.6
	c-1.934,0-3.5,1.566-3.5,3.5V54c0,0.9,0.8,1.7,1.7,1.7c0.9,0,1.7-0.8,1.7-1.7V23.5l0.101-0.1h64.6l0.1,0.1V54
	c0,0.9,0.801,1.7,1.7,1.7c0.9,0,1.7-0.8,1.7-1.7v-1.9h19.8c2.4,0,4.5,1.601,5.2,3.801h-5.2c-0.899,0-1.7,0.8-1.7,1.699V61.2
	c0,2.899,2.4,5.3,5.301,5.3H104v7.4h-4.3c-1.951-5.578-8.055-8.52-13.633-6.568c-3.074,1.076-5.492,3.493-6.567,6.568h-0.8V61.2
	c0-0.9-0.8-1.7-1.7-1.7c-0.899,0-1.7,0.7-1.7,1.7v12.7H40.4c-1.951-5.578-8.056-8.52-13.634-6.568
	c-3.074,1.076-5.491,3.493-6.566,6.568h-9.7l-0.1-0.102V70h7.3c0.9,0,1.7-0.7,1.7-1.7c0-0.899-0.7-1.7-1.7-1.7h-16
	C0.8,66.6,0,67.4,0,68.3C0,69.2,0.8,70,1.7,70h5.5v3.7c0,1.899,1.6,3.5,3.5,3.5h9v0.1c0,5.909,4.791,10.7,10.7,10.7
	s10.7-4.791,10.7-10.7l0,0v-0.1H79v0.1c0,5.882,4.769,10.65,10.65,10.65c5.881,0,10.649-4.769,10.649-10.65v-0.1h5.5
	c0.899,0,1.699-0.8,1.699-1.7v-18C107.407,53.143,104.206,49.477,99.9,48.8z M78.7,30.6h12.7c2,0,3.7,1.601,3.7,3.7V34.4H78.7V30.6
	L78.7,30.6z M78.7,48.7v-11h15l2.8,11H78.7z M30.4,84.6c-4,0-7.3-3.3-7.3-7.3s3.3-7.3,7.3-7.3s7.3,3.3,7.3,7.3S34.4,84.6,30.4,84.6z
	 M89.601,84.6c-4,0-7.301-3.3-7.301-7.3s3.301-7.3,7.301-7.3s7.3,3.3,7.3,7.3S93.601,84.6,89.601,84.6z M104.101,63.1h-1.9
	c-1.1,0-1.9-0.8-1.9-1.898v-1.9h3.801V63.1L104.101,63.1z M30.4,73.8c-1.9,0-3.5,1.601-3.5,3.5c0,1.9,1.6,3.5,3.5,3.5
	c1.899,0,3.5-1.6,3.5-3.5C33.9,75.4,32.3,73.8,30.4,73.8z M89.601,73.8c-1.9,0-3.5,1.601-3.5,3.5c0,1.9,1.6,3.5,3.5,3.5
	c1.898,0,3.5-1.6,3.5-3.5C93.101,75.4,91.5,73.8,89.601,73.8z M69.9,66.7H44.7c-0.9,0-1.7,0.8-1.7,1.7c0,0.898,0.8,1.699,1.7,1.699
	h25.1c0.9,0,1.7-0.699,1.7-1.699S70.8,66.7,69.9,66.7z M26.8,59.5H5.3c-0.9,0-1.7,0.7-1.7,1.7s0.7,1.7,1.7,1.7h21.5
	c0.9,0,1.7-0.7,1.7-1.7S27.7,59.5,26.8,59.5z"/></svg>
