<svg version="1.1" xmlns="http://www.w3.org/2000/svg" width="50" height="50"><path fill="#212121" d="M25 .37C38.55.37 49.63 11.45 49.63 25S38.55 49.63 25 49.63C11.46 49.63.37 38.53.37 25S11.47.37 25 .37z"/><g fill="#fff"><path d="M9.56 39.96l2.25-8.02c-1.44-2.46-2.2-5.27-2.2-8.15 0-8.88 7.22-16.1 16.1-16.1 8.86 0 16.08 7.22 16.08 16.1 0 8.87-7.22 16.09-16.1 16.09-2.76 0-5.46-.72-7.86-2.07l-8.26 2.13zm8.68-5.06l.5.3c2.08 1.28 4.5 1.95 6.95 1.95 7.35 0 13.35-6 13.35-13.35 0-7.37-6-13.37-13.36-13.37-7.38 0-13.37 6-13.37 13.37 0 2.56.73 5.06 2.1 7.2l.34.52-1.3 4.6 4.77-1.22zM21.17 16.3l-1.05-.05c-.32-.02-.65.1-.9.3-.5.45-1.3 1.3-1.56 2.4-.37 1.65.2 3.67 1.7 5.7 1.47 2.02 4.23 5.25 9.12 6.63 1.57.45 2.8.15 3.77-.46.75-.5 1.28-1.26 1.46-2.14l.18-.78c.05-.25-.07-.5-.3-.6l-3.53-1.63c-.23-.1-.5-.04-.65.16l-1.4 1.8c-.1.13-.27.18-.43.13-.95-.34-4.13-1.67-5.87-5.02-.08-.15-.06-.33.05-.45l1.32-1.54c.14-.16.17-.38.1-.57l-1.53-3.57c-.1-.2-.27-.3-.47-.32z"/></g></svg>