<?xml version="1.0" encoding="utf-8"?>
<!DOCTYPE svg PUBLIC "-//W3C//DTD SVG 1.1//EN" "http://www.w3.org/Graphics/SVG/1.1/DTD/svg11.dtd">
<svg version="1.1" id="Layer_1" xmlns="http://www.w3.org/2000/svg" xmlns:xlink="http://www.w3.org/1999/xlink" x="0px" y="0px"
	 width="200px" height="60px" viewBox="0 0 200 60" enable-background="new 0 0 200 60" xml:space="preserve">
<g>
	<path fill="#212121" d="M21.634,39.694V27.657l-4.687,8.964h-1.921l-4.687-8.964v12.038H6.804V21.51h3.791l5.378,10.348
		l5.43-10.348h3.765v18.185H21.634z"/>
	<path fill="#212121" d="M36.719,39.822c-1.332,0-2.54-0.26-3.624-0.781c-1.084-0.521-2.015-1.212-2.792-2.074
		s-1.379-1.849-1.806-2.958c-0.427-1.11-0.64-2.245-0.64-3.406c0-1.212,0.226-2.374,0.679-3.483c0.452-1.11,1.076-2.091,1.87-2.945
		s1.737-1.533,2.831-2.036c1.092-0.504,2.279-0.756,3.56-0.756c1.314,0,2.514,0.269,3.599,0.807c1.084,0.538,2.01,1.242,2.779,2.113
		c0.768,0.871,1.366,1.861,1.793,2.971c0.426,1.11,0.64,2.237,0.64,3.381c0,1.212-0.222,2.369-0.666,3.47
		c-0.444,1.101-1.059,2.074-1.844,2.919c-0.785,0.846-1.725,1.521-2.817,2.023C39.187,39.57,38,39.822,36.719,39.822z
		 M31.443,30.603c0,0.786,0.119,1.545,0.358,2.279c0.239,0.734,0.584,1.383,1.037,1.946s1.007,1.016,1.665,1.357
		c0.657,0.342,1.404,0.512,2.241,0.512c0.854,0,1.609-0.175,2.267-0.524c0.657-0.35,1.212-0.815,1.665-1.396
		c0.452-0.58,0.794-1.232,1.024-1.959c0.23-0.726,0.346-1.464,0.346-2.215c0-0.785-0.124-1.545-0.372-2.28
		c-0.248-0.734-0.598-1.383-1.05-1.946c-0.453-0.563-1.008-1.012-1.665-1.345c-0.658-0.333-1.396-0.5-2.215-0.5
		c-0.854,0-1.614,0.175-2.28,0.525c-0.666,0.35-1.221,0.812-1.665,1.383c-0.444,0.572-0.781,1.221-1.012,1.946
		C31.559,29.113,31.443,29.851,31.443,30.603z"/>
	<path fill="#212121" d="M48.322,39.694V21.51h6.608c1.485,0,2.787,0.24,3.906,0.717c1.118,0.479,2.053,1.127,2.805,1.947
		c0.751,0.819,1.314,1.78,1.69,2.881c0.375,1.101,0.563,2.275,0.563,3.521c0,1.383-0.209,2.634-0.627,3.751
		c-0.419,1.119-1.021,2.075-1.806,2.869c-0.786,0.794-1.729,1.408-2.83,1.844c-1.102,0.436-2.335,0.653-3.701,0.653H48.322z
		 M60.334,30.577c0-0.871-0.12-1.673-0.359-2.407c-0.239-0.734-0.589-1.366-1.05-1.896s-1.029-0.939-1.703-1.229
		c-0.675-0.29-1.439-0.436-2.292-0.436h-3.074v11.987h3.074c0.871,0,1.643-0.154,2.318-0.462c0.674-0.307,1.238-0.729,1.69-1.268
		c0.452-0.538,0.798-1.174,1.037-1.908C60.214,32.225,60.334,31.431,60.334,30.577z"/>
	<path fill="#212121" d="M79.287,36.596v3.099H66.66V21.51h12.396v3.099h-8.862v4.38h7.658v2.869h-7.658v4.738H79.287z"/>
	<path fill="#212121" d="M82.053,39.694V21.51h3.534v15.086h9.272v3.099H82.053z"/>
	<path fill="#212121" d="M103.618,39.822c-1.332,0-2.54-0.26-3.624-0.781c-1.084-0.521-2.015-1.212-2.792-2.074
		s-1.379-1.849-1.806-2.958c-0.427-1.11-0.64-2.245-0.64-3.406c0-1.212,0.226-2.374,0.679-3.483c0.452-1.11,1.076-2.091,1.87-2.945
		s1.737-1.533,2.831-2.036c1.092-0.504,2.278-0.756,3.56-0.756c1.314,0,2.514,0.269,3.599,0.807
		c1.084,0.538,2.011,1.242,2.778,2.113c0.769,0.871,1.366,1.861,1.793,2.971s0.641,2.237,0.641,3.381
		c0,1.212-0.222,2.369-0.666,3.47c-0.444,1.101-1.059,2.074-1.844,2.919c-0.786,0.846-1.726,1.521-2.817,2.023
		C106.086,39.57,104.899,39.822,103.618,39.822z M98.343,30.603c0,0.786,0.119,1.545,0.358,2.279
		c0.239,0.734,0.584,1.383,1.037,1.946s1.007,1.016,1.665,1.357c0.656,0.342,1.403,0.512,2.24,0.512
		c0.854,0,1.609-0.175,2.267-0.524s1.213-0.815,1.665-1.396c0.452-0.58,0.794-1.232,1.024-1.959c0.23-0.726,0.346-1.464,0.346-2.215
		c0-0.785-0.124-1.545-0.371-2.28c-0.248-0.734-0.598-1.383-1.05-1.946c-0.453-0.563-1.008-1.012-1.665-1.345s-1.396-0.5-2.216-0.5
		c-0.854,0-1.613,0.175-2.279,0.525c-0.665,0.35-1.22,0.812-1.664,1.383c-0.444,0.572-0.781,1.221-1.012,1.946
		C98.458,29.113,98.343,29.851,98.343,30.603z"/>
</g>
<g>
	<path fill="#616262" d="M127.713,24.198c-0.666-0.734-1.4-1.25-2.203-1.549s-1.741-0.448-2.817-0.448
		c-1.93,0-3.329,0.367-4.2,1.101c-0.871,0.734-1.307,1.716-1.307,2.945c0,0.615,0.106,1.131,0.32,1.55s0.542,0.773,0.986,1.063
		c0.443,0.291,1.016,0.534,1.716,0.73s1.537,0.397,2.51,0.602c0.99,0.205,1.887,0.427,2.689,0.666
		c0.803,0.239,1.485,0.543,2.049,0.909c0.563,0.367,0.999,0.824,1.307,1.37c0.308,0.547,0.461,1.221,0.461,2.023
		c0,0.769-0.149,1.443-0.448,2.023s-0.729,1.067-1.293,1.46s-1.242,0.688-2.036,0.884c-0.794,0.195-1.678,0.294-2.651,0.294
		c-1.451,0-2.758-0.226-3.919-0.679c-1.161-0.452-2.236-1.148-3.227-2.087l0.537-0.641c0.854,0.871,1.827,1.528,2.92,1.972
		c1.093,0.444,2.331,0.666,3.714,0.666c1.707,0,3.052-0.312,4.034-0.935c0.981-0.623,1.473-1.575,1.473-2.855
		c0-0.649-0.119-1.199-0.358-1.652c-0.239-0.452-0.602-0.836-1.089-1.152c-0.486-0.315-1.101-0.589-1.844-0.819
		s-1.618-0.448-2.625-0.653c-0.991-0.205-1.866-0.418-2.626-0.641c-0.76-0.222-1.4-0.503-1.921-0.845
		c-0.521-0.341-0.913-0.759-1.178-1.255c-0.265-0.495-0.397-1.118-0.397-1.87c0-0.803,0.154-1.515,0.461-2.139
		c0.308-0.623,0.739-1.144,1.294-1.563c0.555-0.418,1.225-0.738,2.011-0.96c0.785-0.222,1.655-0.333,2.612-0.333
		c1.178,0,2.211,0.171,3.099,0.512c0.888,0.342,1.699,0.888,2.434,1.639L127.713,24.198z"/>
	<path fill="#616262" d="M145.001,22.329h-6.813v17.365h-0.896V22.329h-6.813v-0.82h14.522V22.329z"/>
	<path fill="#616262" d="M154.299,39.821c-1.265,0-2.417-0.265-3.458-0.794c-1.042-0.529-1.938-1.221-2.689-2.074
		c-0.752-0.854-1.332-1.836-1.741-2.945c-0.41-1.11-0.615-2.245-0.615-3.406c0-1.212,0.218-2.374,0.653-3.483
		s1.033-2.091,1.793-2.945s1.656-1.533,2.689-2.036c1.032-0.504,2.155-0.756,3.368-0.756c1.263,0,2.416,0.269,3.457,0.807
		c1.042,0.538,1.934,1.242,2.677,2.113c0.743,0.871,1.319,1.857,1.729,2.958c0.41,1.102,0.615,2.216,0.615,3.343
		c0,1.229-0.218,2.398-0.653,3.508c-0.436,1.11-1.033,2.088-1.793,2.933c-0.76,0.846-1.656,1.521-2.689,2.023
		C156.607,39.569,155.493,39.821,154.299,39.821z M146.691,30.602c0,1.093,0.188,2.143,0.563,3.15
		c0.376,1.007,0.9,1.899,1.575,2.676c0.675,0.777,1.477,1.396,2.407,1.857c0.931,0.461,1.951,0.691,3.062,0.691
		c1.144,0,2.181-0.244,3.111-0.73s1.729-1.122,2.395-1.908c0.666-0.785,1.179-1.682,1.537-2.688
		c0.358-1.008,0.538-2.023,0.538-3.048c0-1.093-0.192-2.143-0.576-3.15c-0.385-1.007-0.914-1.899-1.588-2.677
		c-0.675-0.777-1.478-1.396-2.408-1.857c-0.931-0.461-1.934-0.691-3.009-0.691c-1.145,0-2.182,0.243-3.112,0.73
		s-1.729,1.123-2.395,1.908c-0.666,0.786-1.183,1.678-1.55,2.676C146.875,28.54,146.691,29.56,146.691,30.602z"/>
	<path fill="#616262" d="M166.413,39.693V21.509h7.479c0.752,0,1.447,0.163,2.088,0.487c0.641,0.325,1.19,0.747,1.652,1.268
		c0.461,0.521,0.819,1.114,1.075,1.78s0.385,1.341,0.385,2.023c0,0.7-0.107,1.366-0.32,1.998c-0.214,0.632-0.517,1.196-0.909,1.69
		c-0.394,0.495-0.863,0.905-1.409,1.229c-0.547,0.324-1.152,0.521-1.818,0.589l4.559,7.12h-1.024l-4.508-7.018h-6.352v7.018H166.413
		z M167.31,31.856h6.736c0.631,0,1.208-0.137,1.729-0.409c0.521-0.273,0.961-0.632,1.319-1.076s0.636-0.956,0.832-1.537
		c0.196-0.58,0.295-1.169,0.295-1.767c0-0.615-0.115-1.208-0.346-1.78c-0.23-0.572-0.543-1.076-0.936-1.511
		c-0.393-0.436-0.854-0.785-1.383-1.05c-0.529-0.265-1.093-0.397-1.69-0.397h-6.557V31.856z"/>
	<path fill="#616262" d="M194.945,38.874v0.819h-12.013V21.509h11.782v0.82h-10.886v7.658h9.528v0.819h-9.528v8.068H194.945z"/>
</g>
</svg>