<svg xmlns="http://www.w3.org/2000/svg" xmlns:xlink="http://www.w3.org/1999/xlink" x="0px" y="0px" width="24px" height="24px" viewBox="0 0 24 24" enable-background="new 0 0 24 24" xml:space="preserve"><path fill="none" d="M0,0h24v24H0V0z"/><path display="none" d="M12,21.815l-1.424-1.296C5.52,15.934,2.182,12.91,2.182,9.199c0-3.024,2.376-5.4,5.4-5.4	c1.708,0,3.348,0.795,4.418,2.052c1.07-1.256,2.71-2.052,4.419-2.052c3.023,0,5.399,2.376,5.399,5.4	c0,3.711-3.338,6.734-8.395,11.33L12,21.815z"/><path id="heart-wishlist" d="M12,22.35l-1.45-1.32C5.4,16.359,2,13.279,2,9.5C2,6.42,4.42,4,7.5,4c1.74,0,3.41,0.81,4.5,2.09C13.09,4.81,14.76,4,16.5,4	C19.58,4,22,6.42,22,9.5c0,3.779-3.4,6.859-8.55,11.54L12,22.35z"/><g>	<path id="heart-wishlist-border" d="M21.712,9.343c-0.285-3.131-2.501-5.402-5.274-5.402c-1.848,0-3.539,0.994-4.491,2.588		C11.002,4.915,9.38,3.94,7.562,3.94c-2.773,0-4.989,2.271-5.273,5.402c-0.022,0.138-0.115,0.867,0.166,2.053		c0.404,1.712,1.337,3.27,2.698,4.502l6.789,6.161l6.906-6.161c1.36-1.232,2.295-2.79,2.698-4.502		C21.826,10.209,21.732,9.481,21.712,9.343z M20.814,11.225c-0.369,1.563-1.223,2.987-2.469,4.116l-6.4,5.709l-6.29-5.707		c-1.248-1.131-2.103-2.555-2.472-4.12c-0.266-1.123-0.157-1.757-0.156-1.761l0.006-0.038C3.277,6.681,5.181,4.69,7.562,4.69		c1.757,0,3.303,1.08,4.037,2.816l0.345,0.818l0.345-0.818c0.722-1.71,2.35-2.816,4.148-2.816c2.381,0,4.285,1.991,4.533,4.77		C20.973,9.466,21.081,10.102,20.814,11.225z"/></g></svg>