<?xml version="1.0" encoding="utf-8"?>
<!-- Generator: Adobe Illustrator 15.0.0, SVG Export Plug-In . SVG Version: 6.00 Build 0)  -->
<!DOCTYPE svg PUBLIC "-//W3C//DTD SVG 1.1//EN" "http://www.w3.org/Graphics/SVG/1.1/DTD/svg11.dtd">
<svg version="1.1" id="Camada_1" xmlns="http://www.w3.org/2000/svg" xmlns:xlink="http://www.w3.org/1999/xlink" x="0px" y="0px"
	 width="32px" height="32px" viewBox="0 0 32 32" enable-background="new 0 0 32 32" xml:space="preserve">
<g>
	<g>
		<g>
			<path d="M31.619,0.38c-0.505-0.507-1.321-0.507-1.828,0L0.38,29.791c-0.507,0.507-0.507,1.323,0,1.828
				c0.252,0.254,0.582,0.379,0.913,0.379c0.33,0,0.663-0.127,0.915-0.379L31.619,2.208C32.125,1.701,32.125,0.885,31.619,0.38z"/>
		</g>
	</g>
	<g>
		<g>
			<path d="M31.619,29.791L2.208,0.38c-0.507-0.507-1.324-0.507-1.828,0c-0.507,0.505-0.507,1.321,0,1.828l29.411,29.411
				c0.254,0.254,0.585,0.379,0.915,0.379s0.66-0.125,0.913-0.379C32.125,31.114,32.125,30.298,31.619,29.791z"/>
		</g>
	</g>
</g>
</svg>
