<svg version="1.1" xmlns="http://www.w3.org/2000/svg" x="0px" y="0px" width="25px" height="25px" viewBox="0 0 25 25" enable-background="new 0 0 25 25" xml:space="preserve"><path fill="#87939C" d="M22.948,3.577c-1.279-1.311-3.01-2.027-4.851-2.027c-1.842,0-3.58,0.716-4.893,2.027L12.53,4.262
	l-0.685-0.695C10.524,2.266,8.784,1.55,6.933,1.55c-1.842,0-3.583,0.716-4.872,2.017c-1.32,1.299-2.037,3.018-2.037,4.881
	c0,1.842,0.716,3.582,2.026,4.871l9.948,9.927c0.143,0.144,0.327,0.205,0.513,0.205c0.173,0,0.357-0.062,0.489-0.205l9.948-9.906
	c1.31-1.3,2.027-3.039,2.027-4.882c0-1.842-0.718-3.583-2.019-4.882h-0.009V3.577z M21.947,12.337l-9.446,9.415l-9.426-9.436
	c-1.053-1.024-1.617-2.405-1.617-3.869s0.564-2.845,1.596-3.87C4.078,3.556,5.46,2.972,6.923,2.972s2.834,0.564,3.889,1.597
	l1.186,1.208c0.307,0.276,0.747,0.276,1.023,0l1.187-1.188c1.023-1.022,2.415-1.606,3.868-1.606s2.837,0.573,3.871,1.606
	c1.022,1.024,1.604,2.405,1.604,3.869c0,1.463-0.581,2.834-1.617,3.89L21.947,12.337z"/></svg>